<svg width="1254" height="391" viewBox="0 0 1254 391" fill="none" xmlns="http://www.w3.org/2000/svg">
<path d="M194.92 208.24L158.92 217.12C158.6 215.52 158.36 214.32 158.2 213.52C158.04 212.72 157.88 212 157.72 211.36C157.72 210.72 157.64 210 157.48 209.2C157.32 208.4 157.16 207.2 157 205.6C156.68 204.64 155.96 203.52 154.84 202.24C153.88 200.8 153.56 199.52 153.88 198.4L154.84 194.56L153.4 190.72C153.08 190.56 153.16 190.32 153.64 190C154.28 189.52 154.92 189.2 155.56 189.04C156.36 188.72 157.08 188.64 157.72 188.8C158.36 188.8 158.6 189.04 158.44 189.52C158.28 189.84 158.6 189.68 159.4 189.04C160.36 188.24 161.32 187.44 162.28 186.64C163.4 185.68 164.68 184.48 166.12 183.04L159.4 178.24C158.76 179.84 158.12 181.2 157.48 182.32C157 183.28 156.52 184.08 156.04 184.72C155.56 185.36 155.24 185.28 155.08 184.48C154.92 184 154.92 183.44 155.08 182.8C155.24 182.16 155.4 181.52 155.56 180.88C155.72 180.08 155.8 179.36 155.8 178.72C155.96 178.08 155.8 177.6 155.32 177.28C155.32 177.28 155 177.12 154.36 176.8C153.72 176.32 153 175.84 152.2 175.36C151.4 174.88 150.6 174.48 149.8 174.16C149.16 173.68 148.84 173.44 148.84 173.44L149.8 166C149.96 164.72 149.96 163.84 149.8 163.36C149.64 162.88 149.4 162.48 149.08 162.16C148.92 161.68 148.68 161.28 148.36 160.96C148.04 160.48 147.8 159.68 147.64 158.56C147.48 158.24 147.32 157.84 147.16 157.36C147.16 156.88 147 156.48 146.68 156.16C146.68 156 147 156.24 147.64 156.88C148.28 157.52 148.92 157.92 149.56 158.08C150.2 158.08 150.68 157.52 151 156.4C151.48 155.28 151.4 152.88 150.76 149.2L147.64 146.08L146.68 142.24L144.76 148.96C144.6 148.64 144.36 147.84 144.04 146.56C143.72 145.12 143.4 143.92 143.08 142.96V140.32C143.08 139.68 143 139.12 142.84 138.64C142.84 138.16 142.84 137.84 142.84 137.68L139.96 132.4L132.76 98.8C132.92 99.28 132.52 100.32 131.56 101.92C130.76 103.36 130.36 104.4 130.36 105.04C130.36 105.68 130.52 106.8 130.84 108.4C131.16 109.84 131.16 110.96 130.84 111.76L125.8 114.88C126.76 115.52 127.4 116.24 127.72 117.04C128.2 117.68 128.76 118.4 129.4 119.2L127.72 123.52C126.44 124.64 125.56 125.36 125.08 125.68C124.76 126 124.52 126.32 124.36 126.64C124.36 126.96 124.44 127.44 124.6 128.08C124.76 128.72 124.92 129.84 125.08 131.44V132.16C123.32 137.12 121.64 142 120.04 146.8C118.6 151.6 117.4 156.56 116.44 161.68C114.84 162.32 114.04 163.36 114.04 164.8C114.04 165.92 114.12 166.48 114.28 166.48C114.6 166.32 115.08 166.56 115.72 167.2L110.2 171.04C110.36 172 110.28 173.52 109.96 175.6C109.64 177.52 109.16 179.68 108.52 182.08C108.04 184.32 107.48 186.48 106.84 188.56C106.36 190.64 106.04 192.16 105.88 193.12C105.4 195.2 105.08 197.12 104.92 198.88C104.76 200.64 104.6 202.32 104.44 203.92C104.44 205.52 104.36 207.12 104.2 208.72C104.04 210.32 103.64 211.92 103 213.52C102.84 213.84 102.52 214 102.04 214C101.56 214 101 214 100.36 214C99.72 214 99.08 214 98.44 214C97.96 214 97.64 214.24 97.48 214.72C97 212.8 96.04 210.24 94.6 207.04C93.16 203.68 92.2 201.04 91.72 199.12L92.2 197.68C92.2 196.88 91.96 196.16 91.48 195.52C91.16 194.72 90.92 193.92 90.76 193.12C90.92 192.96 91.24 192.96 91.72 193.12C92.36 193.12 92.92 193.2 93.4 193.36C94.04 193.52 94.52 193.68 94.84 193.84C95.32 193.84 95.56 193.68 95.56 193.36C95.56 193.04 95.08 192.08 94.12 190.48C93.16 188.88 92.52 188 92.2 187.84C91.72 187.04 91.16 186.4 90.52 185.92C90.04 185.44 89.56 184.96 89.08 184.48L88.12 181.12H86.44C84.68 175.52 83.08 170 81.64 164.56C80.36 159.12 78.76 153.68 76.84 148.24C76.84 147.76 77 147.04 77.32 146.08C77.8 145.12 78.04 144.56 78.04 144.4C78.04 143.12 77.64 142 76.84 141.04C76.2 139.92 75.64 138.8 75.16 137.68C75.16 137.04 75.16 136.48 75.16 136C75.32 135.36 75.32 134.72 75.16 134.08C74.84 133.76 74.36 133.52 73.72 133.36C73.24 133.04 72.76 132.88 72.28 132.88L74.2 129.76C73.4 129.44 72.6 129.2 71.8 129.04C71 128.88 70.2 128.72 69.4 128.56L67.72 124.24C67.88 122.48 67.8 120.4 67.48 118C67.16 115.6 66.68 113.2 66.04 110.8C65.4 108.4 64.52 106.16 63.4 104.08C62.44 101.84 61.4 100.08 60.28 98.8C60.12 99.12 59.8 99.76 59.32 100.72C59 101.52 58.6 102.48 58.12 103.6C57.64 104.72 57.16 105.76 56.68 106.72C56.2 107.68 55.96 108.24 55.96 108.4C55.96 108.72 55.88 109.36 55.72 110.32C55.72 111.12 55.72 112.08 55.72 113.2C55.72 114.32 55.72 115.36 55.72 116.32C55.72 117.28 55.72 117.92 55.72 118.24C55.4 119.04 54.68 120.32 53.56 122.08C52.44 123.68 51.72 124.88 51.4 125.68C51.08 127.76 50.92 129.2 50.92 130C51.08 130.64 51.16 131.28 51.16 131.92C51.32 132.4 51.32 133.12 51.16 134.08C51.16 134.88 50.92 136.48 50.44 138.88C50.12 139.36 49.72 140 49.24 140.8C48.76 141.6 47.96 143.04 46.84 145.12H47.32C46.68 147.2 46.36 149.52 46.36 152.08C45.72 154.48 44.92 156.8 43.96 159.04C43 161.28 42.2 163.6 41.56 166C40.76 169.52 41.08 172.72 42.52 175.6L39.64 189.76C39.16 190.24 38.68 190.72 38.2 191.2C37.88 191.68 37.56 192.32 37.24 193.12C35.64 195.36 34.6 197.52 34.12 199.6C33.48 202 33.32 204.4 33.64 206.8C33.96 209.04 34.52 211.04 35.32 212.8C35 214.88 34.76 216.16 34.6 216.64C34.6 217.28 34.6 217.52 34.6 217.36C34.6 217.36 34.6 217.2 34.6 216.88C34.6 216.72 34.6 216.8 34.6 217.12C32.52 216.8 30.52 216.4 28.6 215.92C26.68 215.44 24.68 214.96 22.6 214.48C21.8 213.2 20.76 212.4 19.48 212.08C18.36 211.92 17.32 211.84 16.36 211.84C16.36 210.4 15.08 209.36 12.52 208.72C11.24 208.4 10.04 208.48 8.92001 208.96C7.80001 209.44 6.84001 210 6.04001 210.64L0.76001 206.56C2.04001 200.96 3.64001 195.28 5.56001 189.52C7.48001 183.76 9.16001 178.16 10.6 172.72C11.72 171.92 12.52 170.72 13 169.12C13.64 167.52 14.12 166.24 14.44 165.28C14.6 164.96 14.6 164.08 14.44 162.64C14.44 161.2 14.36 160.08 14.2 159.28C15.8 154.16 17.24 149.04 18.52 143.92C19.96 138.8 21.32 133.6 22.6 128.32C25.48 124.64 27.4 120.32 28.36 115.36C28.68 114.08 29.08 112.64 29.56 111.04C30.04 109.28 30.44 107.52 30.76 105.76C31.08 103.84 31.24 102.08 31.24 100.48C31.4 98.72 31.32 97.2 31 95.92L32.2 91.36L33.4 91.12C34.36 90.96 35.24 90.64 36.04 90.16C38.6 89.36 40.2 87.44 40.84 84.4C41.48 82 41.24 79.68 40.12 77.44C39 75.2 37.96 73.12 37 71.2C38.28 65.44 39.48 58.88 40.6 51.52C41.88 44.16 43.08 37.6 44.2 31.84L45.88 31.36L46.12 28.72C46.76 28.08 47.24 27.36 47.56 26.56C48.04 25.76 48.44 25.04 48.76 24.4L50.68 22.72C50.04 20.96 49.8 20.08 49.96 20.08C50.28 19.92 50.28 19.2 49.96 17.92L48.76 16.96L48.52 16.48L47.8 8.79998L50.2 1.11998L54.76 0.879978L57.16 0.159973L61.48 13.12C61.32 13.92 61.56 15.04 62.2 16.48C62.84 17.92 63.56 19.44 64.36 21.04C65.32 22.48 66.12 24 66.76 25.6C67.56 27.04 67.96 28.16 67.96 28.96C67.96 30.24 67.8 31.28 67.48 32.08C67.16 32.72 66.84 33.28 66.52 33.76C66.36 34.24 66.36 34.72 66.52 35.2C66.68 35.68 67.32 36.32 68.44 37.12L74.92 58.48L79.24 66.64C79.56 67.28 80.12 68.88 80.92 71.44C81.72 74 82.6 76.72 83.56 79.6C84.52 82.48 85.4 85.12 86.2 87.52C87.16 89.92 87.88 91.36 88.36 91.84C89.96 96.48 91.56 101.04 93.16 105.52C94.76 109.84 96.44 114.16 98.2 118.48C99.64 114.64 101.24 110.88 103 107.2C104.92 103.52 106.52 99.68 107.8 95.68C108.28 94.08 108.6 92.32 108.76 90.4C109.08 88.48 109.48 86.64 109.96 84.88C110.44 82.96 111 81.2 111.64 79.6C112.44 77.84 113.56 76.4 115 75.28L116.68 66.64C117 66.64 117.48 65.2 118.12 62.32C118.76 59.28 119.4 56 120.04 52.48C120.84 48.96 121.56 45.76 122.2 42.88C123 40 123.8 38.64 124.6 38.8C125.4 37.52 125.8 36.08 125.8 34.48C125.8 33.2 125.96 32.16 126.28 31.36C126.76 30.4 127 29.36 127 28.24C127 28.08 127.24 27.76 127.72 27.28C128.2 26.8 128.68 26.24 129.16 25.6C129.64 24.96 130.04 24.4 130.36 23.92C130.84 23.44 131.08 23.12 131.08 22.96L134.44 14.8L136.84 0.159973L145 0.879978C145.64 3.59998 145.96 5.51998 145.96 6.63998C146.12 7.75998 146.2 8.71998 146.2 9.51998C146.2 10.32 146.28 11.36 146.44 12.64C146.6 13.76 146.92 15.68 147.4 18.4C146.76 19.68 146.52 21.2 146.68 22.96C146.84 24.56 147.08 25.84 147.4 26.8C147.56 27.6 147.88 28.56 148.36 29.68C149 30.64 149.64 31.44 150.28 32.08C150.76 34.8 151.56 38.96 152.68 44.56C153.96 50.16 155.24 56.08 156.52 62.32C157.8 68.56 159.08 74.56 160.36 80.32C161.64 85.92 162.6 90 163.24 92.56C162.76 95.12 162.6 97.68 162.76 100.24C163.08 102.64 163.56 105.04 164.2 107.44C164.52 108.4 164.84 109.76 165.16 111.52C165.48 113.28 165.96 115.04 166.6 116.8C167.72 120.8 169.08 123.6 170.68 125.2C170.84 126 170.92 126.72 170.92 127.36C171.08 128 171.24 128.64 171.4 129.28C170.12 130.56 168.92 132.16 167.8 134.08C166.84 136 166.6 137.92 167.08 139.84C167.4 140.64 167.72 141.6 168.04 142.72C168.52 143.68 169.24 144.56 170.2 145.36C171.48 146.96 172.92 147.76 174.52 147.76C175 148.08 175.72 148.72 176.68 149.68C178.12 155.44 179.64 161.2 181.24 166.96C183 172.56 184.76 178.16 186.52 183.76L185.08 184.96L187.24 185.68C187.08 186 187.08 186.32 187.24 186.64C187.56 186.96 187.72 187.28 187.72 187.6L186.04 188.8L187.24 189.76L186.52 190.72L184.36 189.52C184.36 190 184.52 190.4 184.84 190.72C185.32 191.04 185.56 191.36 185.56 191.68C185.56 192.16 185.64 192.48 185.8 192.64C184.68 193.76 184.2 194.88 184.36 196L186.76 197.44C187.4 198.72 188.2 199.68 189.16 200.32C190.28 200.96 191.32 201.36 192.28 201.52L192.52 201.76C192.84 202.88 193.16 204 193.48 205.12C193.96 206.08 194.44 207.12 194.92 208.24Z" fill="black"/>
<path d="M283.494 72.55C282.794 75.4666 281.802 79.025 280.519 83.225C279.352 87.3083 277.894 91.3916 276.144 95.475C274.394 99.4417 272.41 103 270.194 106.15C267.977 109.3 265.469 111.4 262.669 112.45V112.625C262.319 112.625 262.144 112.392 262.144 111.925C262.61 111.925 262.96 111.867 263.194 111.75L264.419 111.225C264.769 111.108 265.177 111.05 265.644 111.05C266.344 111.05 266.81 111.342 267.044 111.925C267.277 112.392 267.394 112.8 267.394 113.15L259.344 136.6L256.544 137.125L258.819 138L258.294 141.325C257.944 141.558 257.594 141.733 257.244 141.85C256.894 141.85 256.602 141.908 256.369 142.025L257.594 143.25L255.844 148.675C254.677 152.408 254.094 156.083 254.094 159.7C254.094 163.317 254.094 166.992 254.094 170.725L250.769 172.3L254.794 175.275C254.094 176.325 253.977 177.375 254.444 178.425C254.444 180.175 254.444 181.808 254.444 183.325C254.56 184.725 254.677 186.125 254.794 187.525C254.91 188.808 255.027 190.208 255.144 191.725C255.26 193.242 255.319 194.933 255.319 196.8H250.594L249.894 195.225V196.8L243.069 194.35L241.144 196.8H233.619C233.619 195.517 233.677 194.525 233.794 193.825C233.91 193.125 234.144 192.133 234.494 190.85C234.727 190.15 234.902 189.45 235.019 188.75C235.135 187.933 235.194 186.942 235.194 185.775C235.194 185.192 235.135 184.667 235.019 184.2C235.019 183.733 234.844 183.208 234.494 182.625L234.669 170.2C234.669 167.283 234.435 164.308 233.969 161.275C233.502 158.242 233.269 155.15 233.269 152L232.919 149.55C232.335 147.683 232.277 146.108 232.744 144.825C232.744 144.592 232.744 144.475 232.744 144.475C232.86 144.358 232.919 144.183 232.919 143.95C233.035 143.6 232.919 143.133 232.569 142.55C232.335 141.85 231.344 140.508 229.594 138.525C229.127 136.192 228.427 133.975 227.494 131.875C226.56 129.658 225.51 127.5 224.344 125.4C223.294 123.3 222.244 121.2 221.194 119.1C220.26 117 219.502 114.842 218.919 112.625L220.144 110.35L220.319 109.825V109.475C220.669 109.358 220.844 109.533 220.844 110H220.669L220.144 110.175L219.094 110.7C218.86 110.7 218.569 110.7 218.219 110.7C217.869 110.583 217.694 110.233 217.694 109.65C217.694 109.417 217.46 108.95 216.994 108.25C216.527 107.433 216.294 106.908 216.294 106.675C215.827 105.858 215.419 105.1 215.069 104.4C214.719 103.583 214.427 102.708 214.194 101.775L216.294 100.9L216.119 99.325L214.019 100.375L208.069 88.475L209.294 87.075L207.544 87.95L206.669 82.875L205.094 82L202.119 74.65L210.519 70.625L212.969 72.725L212.794 69.05L221.719 65.2C223.235 68.7 224.519 72.025 225.569 75.175C226.619 78.325 227.61 81.475 228.544 84.625C229.477 87.775 230.527 91.0416 231.694 94.425C232.977 97.8083 234.669 101.425 236.769 105.275L235.369 108.25L237.819 107.55C239.452 110.467 240.735 113.383 241.669 116.3C242.719 119.1 243.477 121.492 243.944 123.475C244.177 123.125 244.352 122.833 244.469 122.6C244.585 122.25 244.702 121.9 244.819 121.55L243.944 121.025L245.694 117.175H247.619L246.044 115.425L254.094 96.525L258.119 98.625L257.769 97.4L256.194 97.75C255.727 96.8167 255.435 96.2916 255.319 96.175C255.319 96.0583 255.26 95.9417 255.144 95.825C255.027 95.7083 254.677 95.65 254.094 95.65C254.327 94.25 254.56 93.2 254.794 92.5C255.144 91.6833 255.61 90.6916 256.194 89.525C256.544 89.0583 256.777 88.5333 256.894 87.95C257.127 87.3666 257.244 86.4333 257.244 85.15C257.244 84.8 257.477 83.8083 257.944 82.175C258.527 80.5416 259.11 78.7333 259.694 76.75C260.394 74.65 261.035 72.725 261.619 70.975C262.202 69.1083 262.61 67.825 262.844 67.125L270.019 68.7L270.719 71.325L272.644 70.8C273.227 70.6833 273.752 70.5667 274.219 70.45C274.802 70.3333 275.269 70.275 275.619 70.275C275.969 70.275 276.494 70.3916 277.194 70.625C277.894 70.7416 278.652 70.975 279.469 71.325C280.285 71.5583 281.044 71.7916 281.744 72.025C282.56 72.2583 283.144 72.4333 283.494 72.55Z" fill="black"/>
<path d="M365.952 75C365.952 78.0333 365.777 81.1833 365.427 84.45C365.193 87.6 365.193 90.925 365.427 94.425C362.86 94.425 360.468 94.3083 358.252 94.075C356.152 93.725 353.993 93.55 351.777 93.55C350.26 92.2666 348.977 91.625 347.927 91.625C346.527 91.625 344.952 91.8 343.202 92.15C341.568 92.3833 339.76 92.5583 337.777 92.675C337.777 93.2583 337.718 93.9 337.602 94.6C337.602 95.1833 337.602 95.7666 337.602 96.35C337.368 97.6333 337.193 98.6833 337.077 99.5C337.077 100.2 337.077 100.958 337.077 101.775C337.077 102.475 337.018 103.35 336.902 104.4C336.902 105.333 336.902 106.733 336.902 108.6L333.577 110L336.727 110.525L334.977 113.675H336.377C336.96 118.458 337.31 123.008 337.427 127.325C337.543 131.642 337.543 135.9 337.427 140.1C337.427 144.3 337.31 148.5 337.077 152.7C336.96 156.9 336.902 161.275 336.902 165.825C336.902 167.225 336.785 168.275 336.552 168.975C336.318 169.675 336.202 171.017 336.202 173C336.202 173.7 335.735 174.225 334.802 174.575C333.868 174.925 333.402 175.625 333.402 176.675C333.402 177.142 333.577 177.375 333.927 177.375L334.452 177.55C335.035 177.55 335.502 177.725 335.852 178.075C336.202 178.308 336.552 178.658 336.902 179.125C337.018 182.392 337.193 185.775 337.427 189.275C337.777 192.658 338.593 195.692 339.877 198.375C335.793 198.608 331.477 198.55 326.927 198.2C322.377 197.733 318.06 197.383 313.977 197.15C314.093 193.533 314.385 190.15 314.852 187C315.435 183.733 315.668 180.408 315.552 177.025C316.252 175.625 316.602 174.05 316.602 172.3L317.652 170.9C316.368 170.667 315.727 169.967 315.727 168.8C315.727 161.567 315.785 154.392 315.902 147.275C316.018 140.158 316.135 132.925 316.252 125.575L320.102 123.475L320.627 122.6L317.302 121.725L321.502 117.7C320.452 117.467 319.402 117 318.352 116.3C317.418 115.6 316.66 114.725 316.077 113.675L315.027 94.25L291.227 95.125L288.252 90.925L288.777 83.925L291.052 81.825L288.602 81.475L289.477 71.325C291.927 71.325 293.968 71.675 295.602 72.375C297.235 73.075 299.102 73.8333 301.202 74.65C302.018 75 302.718 75.175 303.302 75.175C305.985 75.175 308.493 74.825 310.827 74.125C313.277 73.425 315.843 73.1333 318.527 73.25L319.752 75.35L327.452 75C327.568 74.3 328.035 73.6583 328.852 73.075L329.027 72.9C329.143 73.0166 329.143 73.075 329.027 73.075L329.727 72.375C333.11 72.1416 336.668 71.9666 340.402 71.85C344.135 71.6166 347.752 71.2083 351.252 70.625L351.777 71.675L354.052 71.325L353.177 75.875L353.527 75.7L355.277 72.025L357.027 73.25C357.493 72.6666 358.018 72.2 358.602 71.85C359.185 71.3833 359.768 70.8583 360.352 70.275L365.777 71.5L365.952 75Z" fill="black"/>
<path d="M458.629 73.075C458.396 76.925 458.162 80.6583 457.929 84.275C457.812 87.775 457.754 91.3333 457.754 94.95C457.287 95.7666 456.996 96.525 456.879 97.225C456.762 97.8083 456.704 98.5083 456.704 99.325C456.704 99.9083 456.762 100.608 456.879 101.425C457.112 102.125 457.287 102.65 457.404 103C457.287 106.383 457.171 109.708 457.054 112.975C457.054 116.125 456.937 119.392 456.704 122.775C456.121 124.058 455.712 125.4 455.479 126.8C455.362 128.2 455.304 129.542 455.304 130.825C455.304 132.342 455.304 133.917 455.304 135.55C455.304 137.183 455.362 139.167 455.479 141.5V145.7L456.004 155.85L456.529 156.725C456.996 157.542 457.229 158.3 457.229 159C457.346 159.583 457.112 159.992 456.529 160.225C456.529 163.958 456.587 167.458 456.704 170.725C456.821 173.992 456.996 177.317 457.229 180.7L456.354 181.05V182.625C456.121 183.092 455.887 183.617 455.654 184.2C455.421 184.667 455.304 185.192 455.304 185.775L454.604 187L455.129 187.875C455.479 189.275 456.412 190.325 457.929 191.025C458.046 191.958 458.104 192.833 458.104 193.65C458.104 194.467 458.221 195.458 458.454 196.625H435.529C435.646 193.708 435.879 191.2 436.229 189.1C436.696 187 436.754 184.083 436.404 180.35C436.637 180.117 436.812 179.883 436.929 179.65C437.046 179.417 437.162 179.183 437.279 178.95C437.979 178.133 438.329 177.142 438.329 175.975C438.329 175.742 438.212 175.275 437.979 174.575C437.746 173.875 437.454 173.233 437.104 172.65L436.929 172.125C436.812 172.008 436.754 171.833 436.754 171.6C436.754 170.9 436.754 169.383 436.754 167.05C436.754 164.6 436.754 162.033 436.754 159.35C436.754 156.55 436.754 153.925 436.754 151.475C436.754 149.025 436.754 147.45 436.754 146.75C436.871 146.633 436.929 146.458 436.929 146.225C437.396 145.175 437.629 143.95 437.629 142.55C437.629 141.85 437.396 141.617 436.929 141.85C436.579 142.083 436.521 141.675 436.754 140.625C435.821 140.975 435.121 141.208 434.654 141.325C434.187 141.325 433.662 141.792 433.079 142.725C432.379 143.192 431.912 143.6 431.679 143.95L430.629 144.475C428.529 144.475 426.837 144.475 425.554 144.475C424.271 144.475 423.104 144.475 422.054 144.475C421.004 144.358 419.837 144.3 418.554 144.3C417.387 144.183 415.754 144.183 413.654 144.3L407.704 144.475H405.604C405.021 144.242 404.437 144.008 403.854 143.775C403.387 143.542 402.804 143.425 402.104 143.425L400.879 142.55L399.654 143.425C399.537 144.475 399.421 146.225 399.304 148.675C399.304 151.125 399.246 153.692 399.129 156.375C399.129 158.942 399.071 161.333 398.954 163.55C398.954 165.767 398.954 167.167 398.954 167.75C398.954 169.15 399.596 170.608 400.879 172.125C400.879 173.408 400.879 174.575 400.879 175.625C400.996 176.558 401.112 177.667 401.229 178.95C400.646 179.65 400.296 180.408 400.179 181.225C399.596 182.742 399.304 184.083 399.304 185.25C399.304 186.65 399.537 187.992 400.004 189.275C400.587 190.442 401.287 191.608 402.104 192.775C402.104 193.358 402.104 193.883 402.104 194.35C402.221 194.817 402.279 195.517 402.279 196.45C400.879 196.567 399.421 196.683 397.904 196.8C396.504 196.8 395.104 196.742 393.704 196.625C393.004 196.042 392.187 195.75 391.254 195.75C391.137 195.75 390.962 195.75 390.729 195.75C390.496 195.75 390.087 195.867 389.504 196.1C389.037 195.517 388.629 195.167 388.279 195.05C387.929 194.817 387.521 194.7 387.054 194.7C386.237 194.7 385.596 194.933 385.129 195.4C384.779 195.75 384.371 196.217 383.904 196.8H379.179C379.296 192.95 379.354 189.275 379.354 185.775C379.471 182.275 379.587 178.717 379.704 175.1C380.287 174.283 380.637 173.467 380.754 172.65C380.871 171.833 380.929 171.075 380.929 170.375C380.812 170.142 380.696 169.792 380.579 169.325C380.462 168.975 380.346 168.625 380.229 168.275C380.112 167.925 379.996 167.575 379.879 167.225C380.112 163.025 380.229 159.408 380.229 156.375C380.229 153.225 380.229 150.133 380.229 147.1C380.812 145.7 381.221 144.3 381.454 142.9C381.687 141.5 381.804 140.1 381.804 138.7C381.804 137.183 381.746 135.2 381.629 132.75C381.629 130.3 381.221 128.433 380.404 127.15V123.65C381.454 123.067 382.387 122.425 383.204 121.725C384.137 121.025 384.604 119.975 384.604 118.575C384.604 117.058 384.079 115.775 383.029 114.725C381.979 113.675 381.046 112.625 380.229 111.575C379.996 107.842 379.762 104.167 379.529 100.55C379.412 96.9333 379.237 93.1416 379.004 89.175L380.054 88.65L379.879 87.425C380.112 86.8416 380.287 86.2583 380.404 85.675C380.637 85.0916 380.812 84.5666 380.929 84.1L381.629 82.875C381.046 82.175 380.462 81.475 379.879 80.775C379.412 80.075 378.829 79.375 378.129 78.675C378.012 77.7416 378.012 76.575 378.129 75.175C378.246 73.775 378.187 72.4333 377.954 71.15C381.921 71.15 385.654 71.5 389.154 72.2C392.771 72.7833 396.562 73.0166 400.529 72.9C400.412 75.9333 400.296 78.7916 400.179 81.475C400.179 84.0416 400.121 86.6666 400.004 89.35C399.771 89.5833 399.654 89.8166 399.654 90.05C399.654 90.1666 399.537 90.3416 399.304 90.575C398.604 91.5083 398.254 92.5 398.254 93.55C398.254 94.0166 398.429 94.6 398.779 95.3C398.896 95.8833 399.187 96.35 399.654 96.7C399.887 97.5167 400.004 98.275 400.004 98.975C400.004 99.675 400.004 100.375 400.004 101.075V105.975C399.771 106.208 399.479 106.85 399.129 107.9C399.246 108.25 399.246 108.6 399.129 108.95C399.129 109.3 399.129 109.65 399.129 110C399.129 110.583 399.187 111.05 399.304 111.4C399.421 111.75 399.421 112.217 399.304 112.8H399.654C399.537 114.2 399.479 115.6 399.479 117C399.479 118.283 399.479 120.15 399.479 122.6V124.175C399.479 124.408 399.421 124.525 399.304 124.525C399.304 124.408 399.304 124.408 399.304 124.525C399.304 124.758 399.304 124.875 399.304 124.875C399.537 124.992 399.712 124.875 399.829 124.525L400.004 124C400.121 123.767 400.412 123.592 400.879 123.475C401.462 123.358 401.812 123.65 401.929 124.35H404.029L408.579 122.425L409.104 122.775C409.804 123.358 410.446 123.825 411.029 124.175C411.729 124.525 412.546 124.7 413.479 124.7C413.712 124.7 414.179 124.583 414.879 124.35C415.696 124.117 416.337 123.767 416.804 123.3C417.037 123.183 417.796 123.242 419.079 123.475C420.479 123.708 421.354 123.825 421.704 123.825L422.579 124C423.162 124 423.571 123.942 423.804 123.825L424.154 123.65C424.621 123.3 425.846 123.125 427.829 123.125C428.529 123.475 428.996 123.825 429.229 124.175C429.812 124.292 430.629 124.642 431.679 125.225C432.729 125.808 433.312 126.042 433.429 125.925L433.604 127.325C434.537 127.442 435.762 127.383 437.279 127.15C438.912 126.917 440.546 126.333 442.179 125.4L439.029 122.775C439.612 121.258 439.904 120.5 439.904 120.5L439.554 120.325C439.087 120.092 438.796 119.917 438.679 119.8C438.562 119.567 438.446 119.158 438.329 118.575C438.329 118.342 438.387 117.992 438.504 117.525C438.621 116.942 438.737 116.358 438.854 115.775L437.804 115.425C437.921 112.392 438.037 109.883 438.154 107.9C438.387 105.8 438.504 103.758 438.504 101.775C438.504 100.958 438.329 100.2 437.979 99.5C437.629 98.6833 437.162 97.9833 436.579 97.4C436.462 96.2333 436.404 95.125 436.404 94.075C436.404 93.025 436.404 91.8583 436.404 90.575C436.987 89.7583 437.396 88.8833 437.629 87.95C438.096 86.9 438.329 85.675 438.329 84.275C438.329 82.875 438.037 81.5916 437.454 80.425C436.987 79.1416 436.404 77.9166 435.704 76.75C435.704 76.1666 435.646 75.6416 435.529 75.175C435.529 74.7083 435.529 74.0083 435.529 73.075L445.504 71.15C446.087 71.6166 446.379 72.025 446.379 72.375C446.496 72.6083 446.671 73.0166 446.904 73.6C446.904 73.7167 446.787 73.8333 446.554 73.95C446.437 73.95 446.437 73.95 446.554 73.95C446.904 73.8333 447.254 73.7167 447.604 73.6C447.954 73.4833 448.304 73.425 448.654 73.425C448.887 73.6583 449.004 73.8333 449.004 73.95L449.354 74.125C449.821 74.825 450.346 75.175 450.929 75.175C451.862 75.175 452.912 74.475 454.079 73.075H458.629Z" fill="black"/>
<path d="M582.263 132.75L576.138 144.125L575.263 142.9L574.913 143.25L572.812 140.625C571.879 145.292 570.188 149.9 567.737 154.45C565.287 158.883 562.488 163.2 559.338 167.4C556.188 171.6 552.862 175.742 549.362 179.825C545.979 183.792 542.829 187.642 539.912 191.375L538.862 191.025C537.229 195.342 534.838 199.133 531.688 202.4L526.963 202.225L525.562 198.375L523.463 201.875C518.913 195.458 514.421 189.1 509.987 182.8C505.671 176.5 501.296 170.025 496.862 163.375L498.263 162.325L500.538 162.85L500.712 162.15C500.712 161.683 500.654 161.333 500.538 161.1C500.538 160.75 500.421 160.342 500.188 159.875L493.538 158.825C492.721 157.892 492.021 156.9 491.438 155.85C490.854 154.8 490.271 153.75 489.688 152.7C488.987 152.467 488.054 152 486.888 151.3C485.838 150.6 484.787 149.783 483.737 148.85C482.688 147.917 481.696 146.983 480.763 146.05C479.946 145 479.304 144.125 478.837 143.425L479.013 140.45L478.837 136.95C477.788 138 476.388 138.7 474.638 139.05L470.962 134.325L473.938 131C474.288 131 474.404 130.883 474.288 130.65C474.171 130.417 473.996 130.242 473.763 130.125C476.679 126.392 479.712 122.542 482.862 118.575C486.129 114.608 489.921 111.808 494.237 110.175L493.538 109.65L492.312 107.025C495.229 103.292 498.029 99.5 500.712 95.65C503.396 91.6833 506.021 87.6583 508.588 83.575L512.263 82.875L513.838 78.15C515.588 76.6333 517.162 75 518.562 73.25C520.079 71.5 521.654 69.75 523.287 68H523.987C525.037 68 525.854 68.4083 526.438 69.225L526.787 68H530.638C533.088 70.6833 535.537 73.6 537.987 76.75C540.438 79.7833 542.829 82.9333 545.162 86.2C547.496 89.4666 549.654 92.7916 551.638 96.175C553.737 99.5583 555.546 102.825 557.062 105.975C556.362 106.208 555.663 106.325 554.963 106.325C554.263 106.208 553.621 106.15 553.037 106.15C552.921 106.15 552.862 106.383 552.862 106.85C552.862 107.433 552.921 108.017 553.037 108.6C553.154 109.067 553.271 109.592 553.388 110.175L560.562 108.95C561.496 109.767 561.963 110.758 561.963 111.925C561.963 112.975 562.254 114.025 562.838 115.075C563.888 115.192 565.054 115.833 566.338 117C567.738 118.05 569.021 119.275 570.188 120.675C571.354 122.075 572.287 123.533 572.987 125.05C573.804 126.567 574.154 127.733 574.038 128.55C575.321 129.367 576.604 130.183 577.888 131C579.288 131.817 580.746 132.4 582.263 132.75ZM557.237 136.775L554.787 136.95C553.854 136.25 553.679 135.55 554.263 134.85V133.45H553.912C552.979 131.583 551.871 129.833 550.588 128.2C549.304 126.567 547.963 124.992 546.562 123.475C545.162 121.842 543.763 120.267 542.362 118.75C541.079 117.117 539.912 115.425 538.862 113.675C538.279 112.742 537.754 111.633 537.287 110.35C536.821 109.067 536.296 107.783 535.713 106.5C535.129 105.217 534.429 104.05 533.612 103C532.912 101.95 531.979 101.25 530.812 100.9C529.763 99.6166 528.771 98.3333 527.838 97.05C526.904 95.65 525.971 94.3083 525.037 93.025C523.171 95.7083 521.712 98.3333 520.662 100.9C519.612 103.467 517.804 105.917 515.237 108.25H512.438L513.487 110L512.612 112.8L512.088 111.925C511.854 111.925 511.796 112.158 511.912 112.625C512.029 112.975 512.088 113.208 512.088 113.325C512.088 113.558 511.854 113.675 511.388 113.675C511.038 113.558 510.746 113.5 510.513 113.5C509.929 113.5 509.404 113.267 508.938 112.8C508.587 112.333 508.238 111.983 507.888 111.75C508.121 112.567 508.354 113.383 508.588 114.2C508.821 115.017 508.938 115.892 508.938 116.825C508.938 117.992 508.529 118.925 507.713 119.625C506.896 120.325 505.962 121.025 504.913 121.725C503.979 122.425 503.046 123.242 502.112 124.175C501.296 125.108 500.829 126.45 500.712 128.2L495.288 132.925C495.754 133.275 496.454 133.858 497.388 134.675C498.438 135.492 499.429 136.425 500.362 137.475C501.412 138.408 502.287 139.342 502.987 140.275C503.688 141.208 504.038 141.967 504.038 142.55L503.862 142.725L504.038 142.55C504.271 144.65 504.913 146.75 505.962 148.85C507.129 150.833 508.762 152.175 510.862 152.875C511.562 153.925 512.438 155.383 513.487 157.25C514.654 159 515.879 160.808 517.162 162.675C518.446 164.542 519.729 166.233 521.013 167.75C522.296 169.267 523.463 170.142 524.513 170.375L524.338 171.95C524.338 172.883 524.629 173.408 525.213 173.525C525.913 173.642 526.612 173.817 527.312 174.05C529.529 170.667 531.862 167.517 534.312 164.6C536.763 161.567 539.038 158.3 541.138 154.8L552.513 151.125C551.929 150.775 551.346 150.483 550.763 150.25C550.296 149.9 549.771 149.608 549.188 149.375L549.362 148.85C549.362 148.617 549.246 148.558 549.013 148.675C548.779 148.792 548.604 148.85 548.487 148.85L547.787 148.5C547.904 147.45 548.312 146.4 549.013 145.35C549.713 144.183 550.529 143.075 551.463 142.025C552.513 140.975 553.562 139.983 554.612 139.05C555.662 138.117 556.537 137.358 557.237 136.775Z" fill="black"/>
<path d="M662.224 190.85C662.457 191.433 662.574 192.075 662.574 192.775C662.69 193.475 662.69 194.117 662.574 194.7C662.457 195.4 662.224 196.042 661.874 196.625C657.557 196.158 653.707 195.925 650.324 195.925C646.94 195.808 644.432 195.75 642.799 195.75C642.099 195.75 641.282 195.925 640.349 196.275C639.532 196.508 638.832 196.975 638.249 197.675C637.082 197.908 635.974 198.025 634.924 198.025C633.99 198.025 633.057 198.025 632.124 198.025C631.541 197.675 631.016 197.442 630.549 197.325C630.199 197.092 629.791 196.683 629.324 196.1C628.857 195.633 628.449 195.225 628.099 194.875C627.865 194.525 627.516 194.35 627.049 194.35C625.649 194.35 624.832 194.467 624.599 194.7C624.365 194.817 623.782 195.342 622.849 196.275C622.266 196.392 621.391 196.508 620.224 196.625C619.174 196.742 618.357 196.858 617.774 196.975L615.324 194.875L610.424 196.275C609.957 195.925 609.841 195.692 610.074 195.575C610.307 195.342 610.19 195.167 609.724 195.05C609.49 195.167 609.49 195.05 609.724 194.7C609.957 194.35 610.074 194.058 610.074 193.825L609.899 192.775H609.024L608.674 192.075L608.324 191.025L607.274 190.85L607.449 195.75L605.874 196.1C605.407 195.633 604.999 195.225 604.649 194.875C604.299 194.408 603.891 194.175 603.424 194.175C602.841 194.175 602.315 194.408 601.849 194.875C601.499 195.225 601.091 195.692 600.624 196.275H597.999L595.899 196.45H593.624L595.899 194L595.199 193.475L595.549 193.3C595.432 193.3 595.374 193.3 595.374 193.3C595.374 193.183 595.315 193.125 595.199 193.125C595.082 193.125 595.024 193.067 595.024 192.95C595.257 192.25 595.432 191.492 595.549 190.675C595.782 189.858 596.19 189.158 596.774 188.575C596.54 188.108 596.132 187.642 595.549 187.175C595.082 186.592 594.907 185.95 595.024 185.25C595.257 183.383 595.432 182.1 595.549 181.4C595.665 180.7 595.841 180.117 596.074 179.65C596.19 179.3 596.249 178.833 596.249 178.25C596.249 177.667 596.307 176.5 596.424 174.75C596.774 174.167 597.065 173.408 597.299 172.475C597.532 171.425 597.649 170.608 597.649 170.025C597.649 169.208 597.474 168.625 597.124 168.275C596.891 168.158 596.715 168.1 596.599 168.1H597.824H599.049C599.865 168.1 600.274 167.925 600.274 167.575L597.474 166.525L597.824 165.825V165.125H597.124C596.774 165.125 596.54 164.833 596.424 164.25C596.424 161.8 596.424 159.992 596.424 158.825C596.54 157.658 596.599 156.725 596.599 156.025C596.715 155.325 596.774 154.625 596.774 153.925C596.89 153.225 596.949 152.058 596.949 150.425C597.532 148.908 597.591 147.042 597.124 144.825C596.657 142.608 596.424 140.683 596.424 139.05C596.424 138.117 596.599 137.183 596.949 136.25C597.299 135.317 597.474 134.267 597.474 133.1C597.24 130.533 596.832 128.725 596.249 127.675V124.175C596.832 123.825 597.474 123.358 598.174 122.775C598.874 122.192 599.399 121.783 599.749 121.55C600.799 120.5 601.324 119.333 601.324 118.05C601.324 117 600.857 115.775 599.924 114.375C599.107 112.858 598.232 111.633 597.299 110.7C597.299 110.7 597.182 110.7 596.949 110.7C596.832 110.7 596.715 110.642 596.599 110.525V110.35V109.825C596.599 106.325 596.482 102.825 596.249 99.325C596.132 95.825 595.957 92.325 595.724 88.825L596.774 88.125L596.599 86.9C596.832 86.55 596.89 86.1416 596.774 85.675C596.774 85.2083 596.715 84.6833 596.599 84.1L596.424 82.175V81.125L594.849 72.375L601.849 72.025C602.082 71.7916 602.374 71.7333 602.724 71.85C603.074 71.9666 603.365 72.1416 603.599 72.375C603.715 72.6083 604.007 73.075 604.474 73.775L604.649 74.125H604.824L605.349 73.6C605.582 73.4833 605.815 73.3666 606.049 73.25C606.282 73.0166 606.34 72.55 606.224 71.85L618.824 72.025C618.591 75.0583 618.474 77.975 618.474 80.775C618.474 83.4583 618.415 86.1416 618.299 88.825L618.124 89.35C617.657 89.9333 617.249 90.4583 616.899 90.925C616.549 91.3916 616.374 92.0917 616.374 93.025C616.374 93.9583 616.899 95.0666 617.949 96.35L617.599 101.075L616.899 101.6L617.249 102.475C617.365 102.942 617.365 103.7 617.249 104.75C617.249 105.8 617.19 106.908 617.074 108.075C617.074 109.125 617.015 110.117 616.899 111.05C616.899 111.983 616.957 112.567 617.074 112.8C618.124 115.367 618.649 117.992 618.649 120.675C618.649 123.242 618.532 125.925 618.299 128.725C618.299 128.958 618.415 129.25 618.649 129.6C618.999 129.833 619.174 130.008 619.174 130.125C618.94 130.358 618.707 130.533 618.474 130.65C618.007 130.883 617.774 131 617.774 131C617.54 131.467 617.016 131.875 616.199 132.225C615.499 132.458 615.032 132.458 614.799 132.225C614.799 132.342 614.974 132.575 615.324 132.925C615.557 133.158 615.79 133.333 616.024 133.45C616.257 133.683 616.607 133.683 617.074 133.45C617.541 133.1 617.891 132.983 618.124 133.1C618.007 133.333 617.949 134.033 617.949 135.2C617.949 136.25 617.949 137.592 617.949 139.225C617.949 140.858 617.949 142.375 617.949 143.775C618.065 145.058 618.065 145.875 617.949 146.225L617.074 150.425L615.499 151.125L614.449 150.95V151.3C614.449 151.417 614.799 151.708 615.499 152.175L616.024 152.7C616.957 153.167 617.424 153.75 617.424 154.45C617.54 154.917 617.599 155.383 617.599 155.85C617.715 156.2 617.774 156.667 617.774 157.25C617.774 158.067 617.715 159.233 617.599 160.75C617.599 162.267 617.599 163.842 617.599 165.475C617.599 167.108 617.54 168.683 617.424 170.2C617.424 171.6 617.424 172.708 617.424 173.525C617.424 174.692 617.132 175.567 616.549 176.15C619.932 175.8 622.965 175.742 625.649 175.975C628.449 176.208 631.19 176.208 633.874 175.975C634.457 176.325 635.041 176.617 635.624 176.85C636.324 176.967 636.79 177.025 637.024 177.025C637.957 177.025 638.832 176.792 639.649 176.325C639.765 176.325 640.174 176.208 640.874 175.975C641.107 175.975 641.282 175.917 641.399 175.8C642.449 175.8 643.849 175.8 645.599 175.8C647.465 175.8 649.391 175.8 651.374 175.8C653.357 175.8 655.282 175.8 657.149 175.8C659.132 175.8 660.707 175.742 661.874 175.625C662.107 179.358 662.107 182.158 661.874 184.025C661.641 185.892 660.94 187.467 659.774 188.75L662.224 190.85Z" fill="black"/>
<path d="M764.611 132.75L758.486 144.125L757.611 142.9L757.261 143.25L755.161 140.625C754.228 145.292 752.536 149.9 750.086 154.45C747.636 158.883 744.836 163.2 741.686 167.4C738.536 171.6 735.211 175.742 731.711 179.825C728.328 183.792 725.178 187.642 722.261 191.375L721.211 191.025C719.578 195.342 717.186 199.133 714.036 202.4L709.311 202.225L707.911 198.375L705.811 201.875C701.261 195.458 696.769 189.1 692.336 182.8C688.019 176.5 683.644 170.025 679.211 163.375L680.611 162.325L682.886 162.85L683.061 162.15C683.061 161.683 683.003 161.333 682.886 161.1C682.886 160.75 682.769 160.342 682.536 159.875L675.886 158.825C675.069 157.892 674.369 156.9 673.786 155.85C673.203 154.8 672.619 153.75 672.036 152.7C671.336 152.467 670.403 152 669.236 151.3C668.186 150.6 667.136 149.783 666.086 148.85C665.036 147.917 664.044 146.983 663.111 146.05C662.294 145 661.653 144.125 661.186 143.425L661.361 140.45L661.186 136.95C660.136 138 658.736 138.7 656.986 139.05L653.311 134.325L656.286 131C656.636 131 656.753 130.883 656.636 130.65C656.519 130.417 656.344 130.242 656.111 130.125C659.028 126.392 662.061 122.542 665.211 118.575C668.478 114.608 672.269 111.808 676.586 110.175L675.886 109.65L674.661 107.025C677.578 103.292 680.378 99.5 683.061 95.65C685.745 91.6833 688.37 87.6583 690.936 83.575L694.611 82.875L696.186 78.15C697.936 76.6333 699.511 75 700.911 73.25C702.428 71.5 704.003 69.75 705.636 68H706.336C707.386 68 708.203 68.4083 708.786 69.225L709.136 68H712.986C715.436 70.6833 717.886 73.6 720.336 76.75C722.786 79.7833 725.178 82.9333 727.511 86.2C729.844 89.4666 732.003 92.7916 733.986 96.175C736.086 99.5583 737.894 102.825 739.411 105.975C738.711 106.208 738.011 106.325 737.311 106.325C736.611 106.208 735.969 106.15 735.386 106.15C735.269 106.15 735.211 106.383 735.211 106.85C735.211 107.433 735.269 108.017 735.386 108.6C735.503 109.067 735.62 109.592 735.736 110.175L742.911 108.95C743.844 109.767 744.311 110.758 744.311 111.925C744.311 112.975 744.603 114.025 745.186 115.075C746.236 115.192 747.403 115.833 748.686 117C750.086 118.05 751.369 119.275 752.536 120.675C753.703 122.075 754.636 123.533 755.336 125.05C756.153 126.567 756.503 127.733 756.386 128.55C757.669 129.367 758.953 130.183 760.236 131C761.636 131.817 763.094 132.4 764.611 132.75ZM739.586 136.775L737.136 136.95C736.203 136.25 736.028 135.55 736.611 134.85V133.45H736.261C735.328 131.583 734.219 129.833 732.936 128.2C731.653 126.567 730.311 124.992 728.911 123.475C727.511 121.842 726.111 120.267 724.711 118.75C723.428 117.117 722.261 115.425 721.211 113.675C720.628 112.742 720.103 111.633 719.636 110.35C719.169 109.067 718.644 107.783 718.061 106.5C717.478 105.217 716.778 104.05 715.961 103C715.261 101.95 714.328 101.25 713.161 100.9C712.111 99.6166 711.12 98.3333 710.186 97.05C709.253 95.65 708.319 94.3083 707.386 93.025C705.519 95.7083 704.061 98.3333 703.011 100.9C701.961 103.467 700.153 105.917 697.586 108.25H694.786L695.836 110L694.961 112.8L694.436 111.925C694.203 111.925 694.144 112.158 694.261 112.625C694.378 112.975 694.436 113.208 694.436 113.325C694.436 113.558 694.203 113.675 693.736 113.675C693.386 113.558 693.094 113.5 692.861 113.5C692.278 113.5 691.753 113.267 691.286 112.8C690.936 112.333 690.586 111.983 690.236 111.75C690.469 112.567 690.703 113.383 690.936 114.2C691.169 115.017 691.286 115.892 691.286 116.825C691.286 117.992 690.878 118.925 690.061 119.625C689.245 120.325 688.311 121.025 687.261 121.725C686.328 122.425 685.394 123.242 684.461 124.175C683.644 125.108 683.178 126.45 683.061 128.2L677.636 132.925C678.103 133.275 678.803 133.858 679.736 134.675C680.786 135.492 681.778 136.425 682.711 137.475C683.761 138.408 684.636 139.342 685.336 140.275C686.036 141.208 686.386 141.967 686.386 142.55L686.211 142.725L686.386 142.55C686.619 144.65 687.261 146.75 688.311 148.85C689.478 150.833 691.111 152.175 693.211 152.875C693.911 153.925 694.786 155.383 695.836 157.25C697.003 159 698.228 160.808 699.511 162.675C700.794 164.542 702.078 166.233 703.361 167.75C704.644 169.267 705.811 170.142 706.861 170.375L706.686 171.95C706.686 172.883 706.978 173.408 707.561 173.525C708.261 173.642 708.961 173.817 709.661 174.05C711.878 170.667 714.211 167.517 716.661 164.6C719.111 161.567 721.386 158.3 723.486 154.8L734.861 151.125C734.278 150.775 733.694 150.483 733.111 150.25C732.644 149.9 732.119 149.608 731.536 149.375L731.711 148.85C731.711 148.617 731.594 148.558 731.361 148.675C731.128 148.792 730.953 148.85 730.836 148.85L730.136 148.5C730.253 147.45 730.661 146.4 731.361 145.35C732.061 144.183 732.878 143.075 733.811 142.025C734.861 140.975 735.911 139.983 736.961 139.05C738.011 138.117 738.886 137.358 739.586 136.775Z" fill="black"/>
<path d="M790.491 106.15C789.557 106.267 788.857 106.383 788.391 106.5C787.924 106.617 787.224 106.617 786.291 106.5L783.141 103.35C782.907 103.35 782.849 103.525 782.966 103.875C783.199 104.225 783.374 104.633 783.491 105.1C783.724 105.567 783.899 105.975 784.016 106.325C784.132 106.675 784.132 106.85 784.016 106.85C783.432 106.267 783.024 105.858 782.791 105.625C782.557 105.392 782.032 105.392 781.216 105.625C780.166 104.808 779.174 104.4 778.241 104.4C777.424 104.4 777.191 104.633 777.541 105.1C777.891 105.45 777.774 105.917 777.191 106.5H773.691C773.691 103.817 773.749 101.717 773.866 100.2C773.982 98.5666 774.216 96.4666 774.566 93.9C774.799 93.0833 775.091 92.3833 775.441 91.8C775.791 91.1 775.966 90.225 775.966 89.175C775.966 88.5916 775.732 88.0083 775.266 87.425C774.916 86.725 774.741 86.2583 774.741 86.025V85.85C774.857 83.1666 774.741 80.95 774.391 79.2C774.157 77.3333 774.274 75.1166 774.741 72.55C774.857 71.7333 775.091 71.0333 775.441 70.45C775.791 69.75 775.966 68.875 775.966 67.825C775.966 67.2416 775.791 66.6583 775.441 66.075C775.091 65.375 774.916 64.9083 774.916 64.675V62.575H778.416L779.291 68L780.341 62.225L789.266 62.575C789.149 63.0416 789.149 63.625 789.266 64.325C789.499 65.025 789.616 65.6083 789.616 66.075C789.616 66.5416 789.441 66.95 789.091 67.3C788.741 67.5333 788.332 67.825 787.866 68.175C787.516 68.4083 787.224 68.6416 786.991 68.875C786.757 69.1083 786.757 69.4 786.991 69.75L789.616 70.975C789.382 71.325 789.266 71.7916 789.266 72.375C789.266 72.8416 789.324 73.425 789.441 74.125C789.557 74.7083 789.616 75.2916 789.616 75.875C789.616 76.3416 789.499 76.75 789.266 77.1C788.332 78.3833 787.924 79.2583 788.041 79.725C788.157 80.1916 788.624 80.95 789.441 82V85.5H789.266C789.382 85.9666 789.441 86.6083 789.441 87.425C789.441 87.775 789.266 88.125 788.916 88.475C788.566 88.825 788.216 89.175 787.866 89.525C787.516 89.7583 787.224 89.9916 786.991 90.225C786.757 90.4583 786.757 90.75 786.991 91.1L789.441 92.325C789.207 92.675 789.091 93.1416 789.091 93.725C789.207 94.1916 789.324 94.775 789.441 95.475C789.557 96.0583 789.616 96.6416 789.616 97.225C789.616 97.6917 789.499 98.1 789.266 98.45C788.332 99.7333 788.041 100.667 788.391 101.25C788.857 101.717 789.499 102.475 790.316 103.525L790.491 106.15Z" fill="black"/>
<path d="M878.915 59.6C878.682 63.6833 878.506 67.7666 878.39 71.85C878.273 75.8167 878.098 79.8416 877.865 83.925C877.282 84.8583 876.873 85.9083 876.64 87.075C876.406 88.2416 876.29 89.2333 876.29 90.05C876.29 90.2833 876.406 90.8666 876.64 91.8C876.873 92.7333 877.107 93.4916 877.34 94.075C877.107 97.925 876.873 101.775 876.64 105.625C876.523 109.475 876.465 113.383 876.465 117.35C875.648 118.983 875.065 120.675 874.715 122.425C874.482 124.175 874.365 125.867 874.365 127.5C874.365 128.433 874.306 129.542 874.19 130.825C874.19 132.108 874.248 133.45 874.365 134.85C874.482 136.133 874.598 137.417 874.715 138.7C874.948 139.867 875.357 140.858 875.94 141.675V143.425L875.765 144.825C874.482 145.525 873.257 146.458 872.09 147.625C871.04 148.675 870.515 149.958 870.515 151.475C870.515 152.058 870.573 152.758 870.69 153.575C870.923 154.392 871.332 155.15 871.915 155.85C872.382 156.9 873.198 157.717 874.365 158.3L874.89 159C875.357 159.233 875.706 159.583 875.94 160.05C875.94 164.367 875.998 168.683 876.115 173C876.348 177.2 876.581 181.458 876.815 185.775L875.59 186.475L875.765 188.225C875.765 188.575 875.648 188.867 875.415 189.1C875.415 189.333 875.357 189.567 875.24 189.8C875.24 190.033 875.123 190.5 874.89 191.2C875.706 191.783 876.348 192.25 876.815 192.6C877.398 192.95 877.982 193.242 878.565 193.475C877.865 194.642 876.873 196.625 875.59 199.425H878.04C878.04 199.775 877.982 200.592 877.865 201.875C877.865 203.158 877.865 204.5 877.865 205.9C877.865 207.3 877.865 208.583 877.865 209.75C877.865 211.033 877.865 211.85 877.865 212.2L873.14 211.85L861.765 201.525L862.64 195.05H861.94C861.706 195.05 861.415 195.05 861.065 195.05C860.831 195.05 860.598 195.108 860.365 195.225V195.925H858.79C858.207 196.508 857.798 197.033 857.565 197.5L855.465 194.7C854.882 194.233 854.065 193.708 853.015 193.125C852.081 192.425 851.148 191.783 850.215 191.2C849.398 190.617 848.698 190.092 848.115 189.625C847.532 189.158 847.24 188.75 847.24 188.4C847.357 187.817 847.123 187.408 846.54 187.175C846.073 186.942 845.49 186.767 844.79 186.65C844.09 186.417 843.39 186.125 842.69 185.775C842.107 185.425 841.815 184.842 841.815 184.025C841.232 183.325 840.24 182.567 838.84 181.75C837.44 180.817 836.565 180 836.215 179.3C834.932 178.483 833.94 177.725 833.24 177.025C832.54 176.325 831.898 175.625 831.315 174.925C830.732 174.108 830.09 173.35 829.39 172.65C828.807 171.833 827.932 171.017 826.765 170.2C826.531 170.083 826.123 169.908 825.54 169.675C824.957 169.442 824.373 169.208 823.79 168.975C823.09 168.625 822.331 168.333 821.515 168.1L824.49 166.35C824.023 166.117 823.498 165.592 822.915 164.775C822.448 163.958 822.098 163.492 821.865 163.375L815.215 160.925V157.075L809.79 155.5L805.765 151.65C805.415 151.067 805.532 150.425 806.115 149.725C806.698 149.025 807.398 148.383 808.215 147.8C809.031 147.1 809.732 146.458 810.315 145.875C811.015 145.292 811.132 144.708 810.665 144.125L816.79 144.65C814.223 141.733 814.865 138.933 818.715 136.25L820.99 134.675C822.973 136.425 824.607 137.942 825.89 139.225C827.173 140.392 827.932 141.092 828.165 141.325C828.632 142.375 829.507 143.25 830.79 143.95C832.073 144.533 833.823 145.817 836.04 147.8C836.273 147.917 836.273 148.208 836.04 148.675C835.923 149.142 835.748 149.667 835.515 150.25C835.281 150.833 835.048 151.417 834.815 152C834.698 152.467 834.757 152.817 834.99 153.05L841.115 153.225C840.882 153.575 841.115 154.042 841.815 154.625C842.515 155.092 843.273 155.617 844.09 156.2C844.906 156.667 845.665 157.192 846.365 157.775C847.182 158.242 847.59 158.708 847.59 159.175C847.59 159.292 847.94 159.642 848.64 160.225C849.34 160.808 850.098 161.45 850.915 162.15C851.848 162.85 852.665 163.55 853.365 164.25C854.065 164.833 854.415 165.183 854.415 165.3C854.531 165.3 854.59 165.242 854.59 165.125C854.59 164.425 854.531 163.783 854.415 163.2C854.298 162.5 854.24 161.858 854.24 161.275V160.05C854.123 160.05 854.065 159.933 854.065 159.7V159.35C854.065 159.467 854.065 159.583 854.065 159.7C854.181 159.817 854.24 159.933 854.24 160.05C854.357 160.167 854.473 159.875 854.59 159.175C854.823 158.358 855.057 156.433 855.29 153.4L854.24 148.675L857.39 139.575C856.223 140.742 855.29 141.558 854.59 142.025C854.007 142.492 853.54 142.667 853.19 142.55C852.956 142.433 853.248 141.617 854.065 140.1C853.948 139.867 853.89 139.167 853.89 138C854.006 136.717 854.065 135.958 854.065 135.725C854.065 135.608 854.123 135.433 854.24 135.2C854.473 134.85 854.706 134.5 854.94 134.15C855.173 133.8 855.348 133.508 855.465 133.275C855.698 132.925 855.756 132.75 855.64 132.75L853.19 133.1L852.665 112.8L853.015 112.275C853.365 111.108 853.54 110.35 853.54 110C853.656 109.767 853.715 109.417 853.715 108.95L852.49 108.25L853.89 108.425C854.006 107.842 854.006 107.375 853.89 107.025C853.89 106.675 853.89 106.325 853.89 105.975C853.773 105.392 853.831 105.158 854.065 105.275C854.415 105.392 854.59 105.158 854.59 104.575C854.59 102.592 854.765 100.667 855.115 98.8C855.465 96.8166 855.64 94.8333 855.64 92.85C855.64 91.6833 855.348 90.6333 854.765 89.7C854.298 88.7666 853.773 87.95 853.19 87.25C853.19 85.9666 853.131 84.6833 853.015 83.4C853.015 82 852.956 80.6583 852.84 79.375C853.423 78.0916 854.007 76.925 854.59 75.875C855.173 74.7083 855.465 73.3666 855.465 71.85C855.465 70.1 855.115 68.4666 854.415 66.95C853.715 65.4333 852.898 64.0333 851.965 62.75C851.965 62.1666 851.906 61.6416 851.79 61.175C851.79 60.7083 851.79 60.1833 851.79 59.6H861.415C861.998 60.1833 862.582 60.5333 863.165 60.65C863.748 60.7666 864.273 60.825 864.74 60.825C864.973 60.825 865.148 60.825 865.265 60.825C865.381 60.7083 865.557 60.5916 865.79 60.475V59.95V59.775C866.257 59.6583 866.607 59.6583 866.84 59.775C866.956 60.2416 866.956 60.5333 866.84 60.65C867.423 61.35 867.948 61.7583 868.415 61.875C868.882 61.875 869.407 61.875 869.99 61.875C871.623 61.875 873.082 61.1166 874.365 59.6H878.915ZM854.065 108.425H853.89L853.715 108.95H853.89L854.065 108.425Z" fill="black"/>
<path d="M979.124 195.925L971.599 196.1C970.433 196.1 969.266 195.75 968.099 195.05L966.524 195.4L963.899 194.175C962.499 194.642 961.449 195.342 960.749 196.275C959.116 196.275 957.483 196.45 955.849 196.8C954.216 197.033 952.641 197.15 951.124 197.15C950.191 197.15 949.608 196.567 949.374 195.4H948.324C947.858 195.4 947.158 195.692 946.224 196.275C945.291 196.858 944.358 197.15 943.424 197.15C940.508 196.917 937.591 196.8 934.674 196.8C931.758 196.8 930.008 196.8 929.424 196.8C928.491 196.8 927.791 196.683 927.324 196.45C926.974 196.1 926.624 195.75 926.274 195.4C926.041 195.05 925.866 194.758 925.749 194.525C925.633 194.292 925.458 194.175 925.224 194.175C923.591 194.292 922.249 194.992 921.199 196.275C920.266 197.558 919.274 199.133 918.224 201L917.699 195.05L915.949 196.625L912.449 197.325L911.924 198.2L910.524 197.5C910.991 196.8 910.816 196.333 909.999 196.1C909.183 195.867 908.133 195.75 906.849 195.75C905.683 195.75 904.516 195.808 903.349 195.925C902.183 195.925 901.424 195.925 901.074 195.925L901.249 190.15L904.749 186.3C904.516 185.95 904.283 185.425 904.049 184.725C903.816 183.908 903.583 183.15 903.349 182.45C903.116 181.75 902.883 181.167 902.649 180.7C902.533 180.117 902.358 179.825 902.124 179.825C902.358 176.092 902.416 172.358 902.299 168.625C902.299 164.892 902.416 161.158 902.649 157.425C903.466 156.375 904.341 155.325 905.274 154.275C906.324 153.225 906.849 151.942 906.849 150.425C906.849 149.142 906.383 148.208 905.449 147.625C904.633 146.925 903.758 146.283 902.824 145.7C902.824 143.017 902.999 140.392 903.349 137.825C903.816 135.258 904.049 132.692 904.049 130.125C904.049 125.575 903.874 120.967 903.524 116.3C903.174 111.633 902.999 106.908 902.999 102.125C902.999 101.542 903.058 100.958 903.174 100.375C903.408 99.7916 903.408 99.15 903.174 98.45C903.758 97.9833 904.458 97.75 905.274 97.75C906.208 97.75 906.674 97.4 906.674 96.7L905.799 96.175L902.824 94.25C902.824 91.6833 902.708 89.175 902.474 86.725C902.358 84.275 902.241 81.825 902.124 79.375L902.824 79.025C902.941 77.1583 903.058 75.875 903.174 75.175C903.408 74.3583 903.699 73.8333 904.049 73.6C904.516 73.3666 905.099 73.25 905.799 73.25C906.616 73.1333 907.666 72.9 908.949 72.55C909.183 72.7833 909.533 73.25 909.999 73.95C910.583 74.65 910.874 75.0583 910.874 75.175C913.674 73.075 917.116 72.2 921.199 72.55L922.599 74.475L922.424 75C922.658 75 923.008 75.6416 923.474 76.925C924.058 78.0916 924.408 78.7916 924.524 79.025C923.941 79.9583 923.416 80.775 922.949 81.475C922.483 82.0583 922.249 82.875 922.249 83.925C922.249 84.8583 922.424 85.9666 922.774 87.25C923.124 88.5333 923.533 89.525 923.999 90.225C923.883 91.5083 923.824 92.5583 923.824 93.375C923.824 94.1917 923.766 95.0083 923.649 95.825C923.649 96.6417 923.474 97.5166 923.124 98.45C922.891 99.2666 922.424 100.258 921.724 101.425L922.074 103L922.249 103.175L922.424 103.35C922.774 104.75 923.008 106.442 923.124 108.425C923.241 110.292 923.299 112.275 923.299 114.375C923.416 116.475 923.474 118.517 923.474 120.5C923.474 122.483 923.474 124.233 923.474 125.75C923.474 127.85 923.358 130.183 923.124 132.75C922.891 135.2 922.658 137.708 922.424 140.275C922.191 142.725 922.074 145.175 922.074 147.625C922.074 149.958 922.249 152.117 922.599 154.1H920.499L923.474 157.25C923.008 160.283 922.774 162.908 922.774 165.125C922.774 167.225 922.599 169.792 922.249 172.825C922.016 175.042 922.308 176.442 923.124 177.025C924.058 177.492 924.874 177.725 925.574 177.725C926.508 177.375 927.266 177.258 927.849 177.375C928.433 177.375 929.191 177.2 930.124 176.85L933.099 178.425L933.449 178.775L936.774 177.725L939.574 180.175L940.624 178.075L942.374 179.825C944.008 178.775 945.641 178.25 947.274 178.25L947.799 177.725C948.733 177.492 949.724 177.375 950.774 177.375C951.824 177.258 952.758 177.433 953.574 177.9L956.199 175.275V148.325C956.199 147.625 956.199 146.225 956.199 144.125C956.316 142.025 956.433 139.808 956.549 137.475C956.783 135.025 957.074 132.867 957.424 131C957.774 129.017 958.183 127.85 958.649 127.5L955.499 123.65L956.724 121.55L955.849 117.175C956.433 116.825 957.074 116.65 957.774 116.65C958.474 116.533 958.999 116.183 959.349 115.6L959.174 114.55V114.725L959.524 112.975H957.074C957.074 112.625 956.899 112.275 956.549 111.925C956.199 111.575 955.908 111.283 955.674 111.05C955.558 107.317 955.558 103.583 955.674 99.85C955.791 96.1166 955.733 92.3833 955.499 88.65L956.549 88.125L956.199 86.725C956.549 86.375 956.783 85.6166 956.899 84.45C957.016 83.1666 957.133 82 957.249 80.95C956.666 80.3666 956.024 79.8417 955.324 79.375C954.741 78.7916 954.333 78.4416 954.099 78.325L956.724 71.675C958.708 71.675 960.808 71.7333 963.024 71.85C965.241 71.9666 967.341 72.0833 969.324 72.2L971.599 77.8L973.524 72.375L977.199 75L976.849 88.825C976.383 89.4083 975.974 90.1083 975.624 90.925C975.391 91.625 975.158 92.325 974.924 93.025C975.741 94.6583 976.208 96 976.324 97.05C976.558 98.1 976.674 99.4417 976.674 101.075C976.674 103.058 976.499 104.983 976.149 106.85C975.799 107.317 975.508 107.608 975.274 107.725C975.158 107.842 975.041 107.958 974.924 108.075C974.924 108.075 974.983 108.133 975.099 108.25C975.333 108.367 975.624 108.658 975.974 109.125C975.974 110.525 975.858 111.983 975.624 113.5C975.391 114.9 975.099 116.3 974.749 117.7L976.499 115.25C976.383 120.85 976.383 126.45 976.499 132.05C976.733 137.65 976.849 143.308 976.849 149.025C976.849 149.492 976.733 150.017 976.499 150.6C976.383 151.067 976.208 151.533 975.974 152H974.749C975.566 152.933 976.033 154.333 976.149 156.2C976.383 157.95 976.499 159.933 976.499 162.15C976.499 164.25 976.499 166.408 976.499 168.625C976.499 170.725 976.733 172.533 977.199 174.05L973.524 171.075C974.924 173.058 975.683 175.275 975.799 177.725C975.916 180.058 975.974 182.392 975.974 184.725C975.974 186.008 976.208 187.292 976.674 188.575C977.258 189.858 977.958 191.025 978.774 192.075L979.124 195.925ZM958.124 82.35C958.124 82.1166 958.008 81.8833 957.774 81.65L957.949 82.525L958.124 82.35Z" fill="black"/>
<path d="M1013.24 203.1C1011.26 202.75 1009.1 202.283 1006.77 201.7C1004.44 201 1002.34 200.358 1000.47 199.775L998.894 197.675L995.044 199.075L990.844 195.75C991.894 191.667 993.06 187.292 994.344 182.625C995.627 177.958 997.319 173.758 999.419 170.025L999.244 166.525C999.127 163.958 999.71 160.925 1000.99 157.425C1002.28 153.925 1003.68 150.367 1005.19 146.75C1006.71 143.133 1007.94 139.692 1008.87 136.425C1009.92 133.042 1010.09 130.183 1009.39 127.85L1010.27 124.35C1011.9 123.883 1013.19 123.358 1014.12 122.775C1015.05 122.192 1015.52 120.967 1015.52 119.1C1015.52 117.933 1015.23 116.825 1014.64 115.775C1014.06 114.725 1013.54 113.733 1013.07 112.8C1013.89 108.717 1014.64 104.575 1015.34 100.375C1016.04 96.175 1016.8 92.0333 1017.62 87.95C1017.85 88.0666 1018.09 87.8916 1018.32 87.425C1018.67 86.9583 1018.96 86.4333 1019.19 85.85C1019.43 85.2666 1019.72 84.6833 1020.07 84.1C1020.42 83.4 1020.83 82.9333 1021.29 82.7L1021.12 80.6C1020.3 80.1333 1019.84 79.2 1019.72 77.8C1019.72 76.2833 1019.72 75.1166 1019.72 74.3C1019.72 73.8333 1019.95 72.9583 1020.42 71.675C1020.89 70.3916 1021.18 69.4583 1021.29 68.875C1022.23 68.9917 1023.16 68.9917 1024.09 68.875C1025.03 68.7583 1025.9 68.4666 1026.72 68C1027.19 69.4 1027.83 71.0916 1028.64 73.075C1029.58 74.9416 1030.39 76.925 1031.09 79.025C1031.91 81.125 1032.49 83.1666 1032.84 85.15C1033.31 87.0166 1033.31 88.65 1032.84 90.05C1032.96 90.1666 1033.43 91.275 1034.24 93.375C1035.06 95.475 1036.05 98.1583 1037.22 101.425C1038.5 104.575 1039.84 108.133 1041.24 112.1C1042.64 115.95 1043.99 119.683 1045.27 123.3C1046.67 126.917 1047.89 130.183 1048.94 133.1C1050.11 136.017 1050.93 138.058 1051.39 139.225C1051.74 138.292 1052.39 136.542 1053.32 133.975C1054.25 131.408 1055.19 128.783 1056.12 126.1C1057.05 123.3 1057.99 120.792 1058.92 118.575C1059.85 116.358 1060.49 115.075 1060.84 114.725C1060.96 113.908 1061.25 112.392 1061.72 110.175C1062.19 107.842 1062.71 105.45 1063.29 103C1063.99 100.433 1064.64 98.1 1065.22 96C1065.92 93.9 1066.56 92.6166 1067.14 92.15L1066.79 92.325C1067.38 90.225 1068.08 88.2416 1068.89 86.375C1069.71 84.5083 1070.47 82.6416 1071.17 80.775C1071.87 78.7916 1072.45 76.8083 1072.92 74.825C1073.5 72.725 1073.91 70.5083 1074.14 68.175L1080.62 68.7C1081.2 71.3833 1081.61 74.1833 1081.84 77.1C1082.08 79.9 1082.19 82.6416 1082.19 85.325C1082.19 88.5916 1082.66 92.0333 1083.59 95.65C1084.64 99.2666 1085.75 102.942 1086.92 106.675C1088.09 110.408 1089.14 114.2 1090.07 118.05C1091.12 121.783 1091.64 125.458 1091.64 129.075C1091.64 130.008 1091.76 131.233 1091.99 132.75C1092.23 134.267 1092.58 135.842 1093.04 137.475C1093.51 139.108 1093.98 140.683 1094.44 142.2C1095.03 143.6 1095.67 144.65 1096.37 145.35L1097.07 148.5C1096.25 149.317 1095.61 150.25 1095.14 151.3C1094.79 152.35 1094.5 153.4 1094.27 154.45L1096.02 157.425C1096.72 157.775 1097.42 158.183 1098.12 158.65C1098.82 159.117 1099.46 159.642 1100.04 160.225C1100.98 163.958 1101.91 167.633 1102.84 171.25C1103.89 174.75 1105.06 178.25 1106.34 181.75L1106.69 182.1C1106.93 182.567 1106.93 183.092 1106.69 183.675C1106.58 184.142 1106.52 184.492 1106.52 184.725L1107.04 185.075C1106.93 186.008 1106.46 186.3 1105.64 185.95L1103.89 184.9C1103.08 185.6 1103.02 186.358 1103.72 187.175C1103.95 187.175 1104.36 187.233 1104.94 187.35C1105.64 187.467 1105.94 187.642 1105.82 187.875C1105.7 188.108 1105.53 188.342 1105.29 188.575C1105.06 188.692 1104.94 188.867 1104.94 189.1C1104.94 190.033 1105.47 190.617 1106.52 190.85C1107.69 191.083 1108.74 191.433 1109.67 191.9L1111.59 196.975L1087.79 202.925C1087.21 200.708 1086.74 198.608 1086.39 196.625C1086.04 194.642 1085.4 192.542 1084.47 190.325L1085.17 188.225L1084.29 186.3L1086.22 183.85H1088.32L1091.47 181.225L1089.02 179.475L1087.27 182.625L1085.34 182.275C1085.46 181.575 1085.52 180.875 1085.52 180.175C1085.64 179.475 1085.69 178.833 1085.69 178.25C1084.99 177.783 1084.24 177.375 1083.42 177.025C1082.72 176.558 1082.08 176.033 1081.49 175.45C1081.61 174.633 1081.73 173.817 1081.84 173C1081.96 172.183 1082.02 171.367 1082.02 170.55L1080.97 168.45L1080.27 167.05L1080.62 166.35L1082.72 168.45C1083.3 168.8 1083.71 169.15 1083.94 169.5C1084.29 169.85 1084.35 169.558 1084.12 168.625L1080.97 164.6C1081.32 163.9 1081.67 163.958 1082.02 164.775C1082.49 165.475 1082.95 165.825 1083.42 165.825L1082.89 163.725L1082.72 160.925L1080.97 159.175L1079.92 162.675L1077.12 154.8L1077.47 154.625C1075.95 151.475 1074.84 147.858 1074.14 143.775C1073.44 139.692 1072.8 135.958 1072.22 132.575C1071.87 133.392 1071.75 134.267 1071.87 135.2C1071.99 136.133 1072.04 137.067 1072.04 138L1069.77 139.575L1071.34 142.025C1071.11 142.842 1070.76 143.775 1070.29 144.825C1069.83 145.758 1069.19 146.4 1068.37 146.75H1068.19L1068.54 150.075C1068.54 150.075 1068.25 150.95 1067.67 152.7C1067.2 154.333 1066.68 156.258 1066.09 158.475C1065.51 160.575 1064.93 162.675 1064.34 164.775C1063.76 166.758 1063.41 168.1 1063.29 168.8C1062.36 169.733 1061.89 170.2 1061.89 170.2C1062.01 170.2 1062.54 170.608 1063.47 171.425L1059.44 174.225L1059.62 174.75L1055.07 200.125L1052.62 200.825H1052.44C1051.98 200.825 1051.57 201.175 1051.22 201.875C1050.99 202.575 1050.81 203.042 1050.69 203.275C1050.11 201.058 1049.41 198.958 1048.59 196.975C1047.89 194.875 1047.14 192.833 1046.32 190.85L1046.84 189.975L1045.97 187L1048.42 186.475C1047.84 185.775 1047.19 184.842 1046.49 183.675C1045.79 182.392 1045.15 181.458 1044.57 180.875H1043.52C1042.47 177.375 1041.48 173.875 1040.54 170.375C1039.73 166.758 1038.68 163.258 1037.39 159.875L1038.09 157.425C1037.74 156.842 1037.28 155.967 1036.69 154.8C1036.23 153.517 1036.17 152.467 1036.52 151.65L1033.89 151.475L1035.47 148.85L1033.19 148.675C1032.84 147.858 1032.55 147.1 1032.32 146.4C1032.09 145.7 1031.97 144.942 1031.97 144.125C1031.97 141.908 1031.68 139.692 1031.09 137.475C1030.51 135.142 1029.58 133.042 1028.29 131.175C1027.83 132.225 1027.42 133.1 1027.07 133.8C1026.84 134.5 1026.66 135.142 1026.54 135.725C1026.43 136.308 1026.37 136.95 1026.37 137.65C1026.37 138.35 1026.37 139.283 1026.37 140.45C1026.37 141.267 1026.19 141.967 1025.84 142.55C1025.61 143.133 1025.32 143.775 1024.97 144.475C1024.62 145.175 1024.27 145.933 1023.92 146.75C1023.69 147.567 1023.57 148.558 1023.57 149.725C1023.57 152.525 1022.81 155.033 1021.29 157.25H1021.47C1020.42 160.633 1019.6 163.842 1019.02 166.875C1018.55 169.908 1018.32 173.117 1018.32 176.5C1018.32 178.483 1018.03 180.233 1017.44 181.75C1016.86 183.15 1016.22 184.55 1015.52 185.95C1014.82 187.233 1014.18 188.517 1013.59 189.8C1013.01 191.083 1012.72 192.425 1012.72 193.825C1012.72 194.758 1012.89 195.692 1013.24 196.625C1013.59 197.442 1013.83 198.317 1013.94 199.25C1014.06 200.183 1014 201.117 1013.77 202.05C1013.65 202.517 1013.48 202.867 1013.24 203.1Z" fill="black"/>
<path d="M383.24 376.52C390.493 373.64 394.227 369.693 394.44 364.68C389.64 361.587 385.373 358.653 381.64 355.88C377.907 353.107 374.547 350.6 371.56 348.36C368.68 346.013 366.12 343.933 363.88 342.12C361.64 340.2 359.613 338.6 357.8 337.32C351.72 333.267 346.92 329.64 343.4 326.44C339.88 323.133 337.533 319.613 336.36 315.88C337.107 314.6 338.173 313.32 339.56 312.04C340.947 310.76 342.547 309.48 344.36 308.2L349.96 304.04C350.387 302.76 351.347 301.267 352.84 299.56C354.44 297.747 356.093 295.987 357.8 294.28L361.48 290.76C361.48 289.8 362.12 288.627 363.4 287.24C364.787 285.747 366.493 284.147 368.52 282.44C370.547 280.627 372.84 278.707 375.4 276.68C377.96 274.547 380.413 272.413 382.76 270.28C385.107 268.04 387.24 265.8 389.16 263.56C391.187 261.213 392.68 258.92 393.64 256.68C393.533 256.253 393.373 255.72 393.16 255.08H393.48L393.16 254.76C392.84 254.333 392.52 253.96 392.2 253.64C391.88 253.32 391.453 252.947 390.92 252.52L390.12 251.72C389.48 251.08 388.787 250.44 388.04 249.8C387.4 249.053 386.547 248.68 385.48 248.68C384.627 248.68 383.4 249.053 381.8 249.8V249.64C373.8 253.8 366.013 259.827 358.44 267.72L338.92 287.56C334.547 289.907 330.28 293.16 326.12 297.32C325.16 300.627 323.08 303.88 319.88 307.08L309.32 317.96C318.707 328.307 328.627 337.8 339.08 346.44C349.533 355.08 360.573 363.027 372.2 370.28C373.8 373.693 377.213 375.773 382.44 376.52H383.24Z" fill="#FF0000"/>
<path d="M414.216 312.68C414.216 307.56 414.11 302.547 413.896 297.64C413.79 292.733 413.47 287.88 412.936 283.08L413.576 255.88C410.91 251.293 407.976 249 404.776 249C403.39 249 402.27 249.32 401.416 249.96C400.67 250.6 400.083 251.4 399.656 252.36C399.23 253.32 398.91 254.387 398.696 255.56C398.59 256.627 398.536 257.64 398.536 258.6V267.08C398.536 270.6 398.59 274.867 398.696 279.88C398.803 284.787 398.856 289.693 398.856 294.6C398.963 299.507 399.07 303.987 399.176 308.04C399.283 312.093 399.336 314.973 399.336 316.68C399.336 327.347 398.963 337.107 398.216 345.96C397.47 354.707 396.35 362.6 394.856 369.64C394.536 370.173 394.376 370.813 394.376 371.56C394.376 374.973 396.563 376.787 400.936 377C401.683 376.573 402.59 376.36 403.656 376.36C404.19 376.36 404.99 376.413 406.056 376.52C407.123 376.627 407.923 376.68 408.456 376.68C411.016 376.68 412.776 376.04 413.736 374.76C414.803 373.48 415.336 371.347 415.336 368.36C415.336 363.347 414.27 359.187 412.136 355.88C412.776 347.88 413.256 340.307 413.576 333.16C414.003 325.907 414.216 319.08 414.216 312.68Z" fill="#FF0000"/>
<path d="M442.104 302.12C442.104 299.133 441.57 297 440.504 295.72C439.544 294.44 437.784 293.8 435.224 293.8C434.69 293.8 433.89 293.853 432.824 293.96C431.757 294.067 430.957 294.12 430.424 294.12C429.357 294.12 428.45 293.907 427.704 293.48C423.33 293.693 421.144 295.507 421.144 298.92C421.144 299.667 421.304 300.36 421.624 301C423.117 308.04 424.184 315.987 424.824 324.84C425.57 333.587 425.997 343.293 426.104 353.96L426.264 369.8C426.264 370.76 426.317 371.827 426.424 373C426.637 374.067 426.957 375.08 427.384 376.04C427.81 377 428.397 377.8 429.144 378.44C429.997 379.187 431.064 379.56 432.344 379.56C435.437 379.56 438.37 377.213 441.144 372.52L440.984 348.2C440.984 342.76 440.61 337.373 439.864 332.04C439.224 326.6 438.904 320.893 438.904 314.92C441.037 311.613 442.104 307.347 442.104 302.12ZM437.624 266.44L432.344 265.64C429.677 264.04 428.024 263.24 427.384 263.24C424.717 263.24 423.384 264.893 423.384 268.2V271.08C423.277 271.613 423.224 272.2 423.224 272.84C423.224 273.48 423.224 274.12 423.224 274.76L423.384 275.72C423.277 276.04 423.224 276.467 423.224 277C423.224 277.533 423.224 278.12 423.224 278.76C423.224 281.107 423.597 282.653 424.344 283.4C425.197 284.147 426.53 284.52 428.344 284.52H430.744C431.917 284.52 432.93 284.787 433.784 285.32C433.997 285.213 434.37 285.16 434.904 285.16C434.69 285.373 434.584 285.533 434.584 285.64H436.504C439.064 285.64 440.344 283.4 440.344 278.92V277.48C440.344 273.64 440.024 270.973 439.384 269.48C438.85 267.987 438.264 267.08 437.624 266.76V266.44Z" fill="#FF0000"/>
<path d="M521.749 358.44C521.749 357.587 521.535 356.627 521.109 355.56C520.789 354.387 520.469 353.213 520.149 352.04V352.2C519.402 350.493 519.029 349.053 519.029 347.88H519.509C520.042 347.667 520.469 347.4 520.789 347.08C521.109 346.76 521.269 346.013 521.269 344.84V344.52C521.269 342.387 521.482 339.613 521.909 336.2C522.442 332.787 522.709 329.693 522.709 326.92V325.64C522.602 324.467 522.442 323.613 522.229 323.08C522.015 322.44 521.749 321.853 521.429 321.32C522.175 319.827 522.869 318.493 523.509 317.32C524.255 316.147 525.215 315.133 526.389 314.28H526.869C526.869 314.28 527.295 314.227 528.149 314.12C529.002 314.013 529.909 313.907 530.869 313.8C531.935 313.587 532.949 313.427 533.909 313.32C534.975 313.213 535.722 313.16 536.149 313.16C546.602 313.16 551.829 322.387 551.829 340.84C551.829 343.933 551.509 347.08 550.869 350.28C550.335 353.373 550.069 356.733 550.069 360.36C550.069 363.027 550.335 365.533 550.869 367.88C551.402 370.227 552.149 372.307 553.109 374.12C554.175 375.933 555.402 377.373 556.789 378.44C558.175 379.507 559.722 380.04 561.429 380.04C564.949 380.04 568.309 377.693 571.509 373C570.229 370.44 569.589 367.507 569.589 364.2C569.589 362.813 569.962 359.827 570.709 355.24C571.455 350.653 571.829 345.213 571.829 338.92C571.829 335.613 571.295 331.827 570.229 327.56C569.269 323.293 567.882 319.187 566.069 315.24C564.362 311.293 562.282 307.773 559.829 304.68C557.375 301.587 554.709 299.453 551.829 298.28H551.989C549.749 297.107 547.189 296.307 544.309 295.88C541.535 295.453 538.655 295.24 535.669 295.24C533.962 295.24 532.042 295.507 529.909 296.04C527.775 296.573 525.589 297.32 523.349 298.28C521.215 299.24 519.082 300.413 516.949 301.8C514.815 303.08 512.895 304.52 511.189 306.12C509.055 305.053 507.295 303.88 505.909 302.6C504.629 301.32 503.189 300.147 501.589 299.08C500.095 297.907 498.229 296.947 495.989 296.2C493.855 295.453 490.869 295.08 487.029 295.08C483.615 295.08 480.362 295.347 477.269 295.88C474.282 296.413 471.349 298.067 468.469 300.84V299.88C464.629 296.36 461.429 294.6 458.869 294.6C456.629 294.6 454.869 295.613 453.589 297.64C452.309 299.56 451.402 301.96 450.869 304.84C450.335 307.613 450.015 310.653 449.909 313.96C449.802 317.16 449.749 320.04 449.749 322.6C449.749 324.84 449.802 327.4 449.909 330.28C450.015 333.16 450.175 336.147 450.389 339.24C450.709 342.333 451.029 345.48 451.349 348.68C451.669 351.88 452.042 354.973 452.469 357.96C452.682 359.88 452.842 361.427 452.949 362.6C453.055 363.667 453.109 364.573 453.109 365.32C453.109 368.52 452.469 371.453 451.189 374.12C454.389 378.813 457.749 381.16 461.269 381.16C462.869 381.16 464.255 380.573 465.429 379.4C466.602 378.333 467.562 376.893 468.309 375.08C469.055 373.267 469.589 371.133 469.909 368.68C470.335 366.227 470.549 363.667 470.549 361C470.549 357.16 470.282 353.533 469.749 350.12C469.322 346.6 469.002 343.293 468.789 340.2C468.149 333.267 468.095 327.987 468.629 324.36C469.269 320.627 470.389 317.907 471.989 316.2C473.589 314.493 475.615 313.533 478.069 313.32C480.522 313.107 483.349 313 486.549 313C486.975 313 487.669 313.053 488.629 313.16C489.695 313.267 490.709 313.427 491.669 313.64C492.735 313.747 493.695 313.853 494.549 313.96C495.402 314.067 495.882 314.12 495.989 314.12H496.309C497.482 314.973 498.442 315.88 499.189 316.84C500.042 317.8 500.735 319.347 501.269 321.48C501.802 323.507 502.175 326.28 502.389 329.8C502.602 333.213 502.709 337.8 502.709 343.56V375.56C503.669 375.88 504.469 376.36 505.109 377C505.749 377.533 506.389 378.067 507.029 378.6C507.669 379.24 508.309 379.773 508.949 380.2C509.695 380.627 510.495 380.84 511.349 380.84C514.015 380.84 517.162 378.813 520.789 374.76C520.895 374.12 520.949 373.427 520.949 372.68C520.949 371.827 521.002 371.08 521.109 370.44L521.589 365.8C521.589 365.16 521.589 364.627 521.589 364.2C521.695 363.667 521.749 363.187 521.749 362.76C521.749 362.227 521.749 361.64 521.749 361C521.749 360.36 521.749 359.507 521.749 358.44Z" fill="#FF0000"/>
<path d="M646.956 333.8C642.156 328.147 636.076 323.08 628.716 318.6C621.356 314.013 612.556 309.853 602.316 306.12C602.636 304.84 602.796 303.293 602.796 301.48C602.796 299.987 602.583 298.067 602.156 295.72C601.73 293.267 601.25 290.813 600.716 288.36C600.29 285.8 599.863 283.4 599.436 281.16C599.01 278.813 598.796 277.053 598.796 275.88C598.796 274.067 599.01 272.733 599.436 271.88C599.97 270.92 600.503 270.173 601.036 269.64C601.57 269 602.05 268.413 602.476 267.88C603.01 267.347 603.276 266.547 603.276 265.48C603.276 264.2 602.956 262.76 602.316 261.16H602.476C602.263 260.307 602.05 259.56 601.836 258.92C601.623 258.28 601.516 257.693 601.516 257.16V253.32C601.41 253 601.25 252.573 601.036 252.04C600.93 251.507 600.503 250.6 599.756 249.32C598.476 249.533 597.463 249.8 596.716 250.12C596.076 250.44 595.596 250.76 595.276 251.08C594.956 251.293 594.636 251.507 594.316 251.72C594.103 251.827 593.783 251.88 593.356 251.88C593.356 251.88 593.143 251.827 592.716 251.72C592.396 251.613 592.023 251.453 591.596 251.24H591.756C589.943 250.6 587.863 250.227 585.516 250.12C583.17 249.907 581.516 249.8 580.556 249.8C579.703 250.973 579.116 252.093 578.796 253.16C578.583 254.12 578.476 255.08 578.476 256.04L579.276 260.68C579.49 261.64 579.65 262.547 579.756 263.4C579.863 264.253 579.916 264.947 579.916 265.48V266.6C580.45 267.773 580.983 269.64 581.516 272.2C582.156 274.76 582.476 277.053 582.476 279.08L582.796 280.36C582.903 280.787 583.063 281.32 583.276 281.96C583.596 282.6 584.023 283.187 584.556 283.72C584.45 287.027 584.396 290.28 584.396 293.48C584.396 296.68 584.396 299.933 584.396 303.24V323.88C584.396 331.56 584.023 338.813 583.276 345.64C582.53 352.36 581.57 358.707 580.396 364.68L580.716 380.2C582.956 380.2 585.25 379.72 587.596 378.76C589.943 377.8 592.236 376.787 594.476 375.72C596.716 374.547 598.796 373.48 600.716 372.52C602.743 371.56 604.556 371.027 606.156 370.92C607.65 370.493 608.823 369.587 609.676 368.2C610.53 366.707 610.956 365.32 610.956 364.04V363.88C611.596 364.093 612.183 364.307 612.716 364.52C623.916 358.44 635.33 348.893 646.956 335.88V333.8ZM615.596 343.88C615.276 344.2 615.01 344.413 614.796 344.52L614.316 345C611.65 347.453 609.143 349.533 606.796 351.24C604.556 352.947 602.53 354.227 600.716 355.08L599.276 355.4V354.28C599.276 353.213 599.436 351.507 599.756 349.16C600.076 346.813 600.396 344.36 600.716 341.8C601.036 339.24 601.356 336.787 601.676 334.44C601.996 331.987 602.156 330.173 602.156 329C602.156 328.147 602.103 327.24 601.996 326.28C601.89 325.32 601.73 324.36 601.516 323.4C605.89 324.467 610.05 325.96 613.996 327.88C617.943 329.693 621.836 331.987 625.676 334.76C623.223 337 621.143 338.867 619.436 340.36C617.836 341.747 616.61 342.867 615.756 343.72L615.596 343.88Z" fill="#FF0000"/>
<path d="M844.88 325.8C846.053 324.627 847.28 323.56 848.56 322.6L851.6 319.24H850.96C851.387 318.173 851.6 317.267 851.6 316.52C851.6 315.987 851.173 314.76 850.32 312.84C843.6 305.907 837.2 299.933 831.12 294.92C825.04 289.907 819.173 285.533 813.52 281.8C811.92 279.027 809.947 276.68 807.6 274.76C805.36 272.733 802.693 270.867 799.6 269.16C796.507 267.453 792.88 265.747 788.72 264.04C784.667 262.333 780.08 260.36 774.96 258.12C771.547 256.627 768.987 255.347 767.28 254.28C765.573 253.107 764.293 252.147 763.44 251.4C762.587 250.547 761.947 249.96 761.52 249.64C761.093 249.213 760.4 249 759.44 249C758.8 249 757.733 249.213 756.24 249.64C754.747 250.067 752.613 250.76 749.84 251.72C749.093 255.347 748.72 258.867 748.72 262.28C748.72 263.667 748.827 265.747 749.04 268.52C749.36 271.187 749.68 273.96 750 276.84C750.427 279.72 750.747 282.493 750.96 285.16C751.28 287.72 751.44 289.64 751.44 290.92C751.44 294.12 751.28 297.8 750.96 301.96C750.747 306.12 750.48 310.547 750.16 315.24C749.84 319.933 749.467 324.893 749.04 330.12C748.72 335.24 748.507 340.52 748.4 345.96C748.187 350.76 747.973 355.933 747.76 361.48C747.653 366.92 747.493 372.093 747.28 377H759.6C760.773 375.507 762.16 374.333 763.76 373.48C765.467 372.627 767.387 371.933 769.52 371.4L782.32 368.68C787.227 364.307 791.867 360.573 796.24 357.48C800.613 354.387 805.04 351.4 809.52 348.52C814.107 345.64 818.96 342.653 824.08 339.56C829.2 336.36 834.96 332.573 841.36 328.2C841.893 327.667 842.427 327.187 842.96 326.76C843.6 326.333 844.027 326.013 844.24 325.8H844.88ZM820.72 322.44C819.76 322.973 818.907 323.507 818.16 324.04C817.413 324.573 816.56 325.16 815.6 325.8L775.6 353.32L768.08 355.08C767.333 352.2 766.96 348.947 766.96 345.32C766.96 342.547 767.227 339.773 767.76 337C768.4 334.227 769.36 331.56 770.64 329C769.893 327.4 769.52 325.907 769.52 324.52C769.52 323.347 769.893 321.693 770.64 319.56C771.493 317.32 772.133 314.493 772.56 311.08C770.107 302.867 768.88 294.387 768.88 285.64C768.88 283.72 768.933 281.8 769.04 279.88C769.147 277.853 769.36 275.933 769.68 274.12C777.68 279.347 785.787 283.08 794 285.32C795.6 286.6 797.893 288.733 800.88 291.72C803.973 294.6 807.173 297.693 810.48 301C813.787 304.2 816.933 307.293 819.92 310.28C823.013 313.267 825.413 315.507 827.12 317C825.627 318.813 823.547 320.627 820.88 322.44H820.72Z" fill="#FF0000"/>
<path d="M874.791 302.12C874.791 299.133 874.258 297 873.191 295.72C872.231 294.44 870.471 293.8 867.911 293.8C867.378 293.8 866.578 293.853 865.511 293.96C864.445 294.067 863.645 294.12 863.111 294.12C862.045 294.12 861.138 293.907 860.391 293.48C856.018 293.693 853.831 295.507 853.831 298.92C853.831 299.667 853.991 300.36 854.311 301C855.805 308.04 856.871 315.987 857.511 324.84C858.258 333.587 858.685 343.293 858.791 353.96L858.951 369.8C858.951 370.76 859.005 371.827 859.111 373C859.325 374.067 859.645 375.08 860.071 376.04C860.498 377 861.085 377.8 861.831 378.44C862.685 379.187 863.751 379.56 865.031 379.56C868.125 379.56 871.058 377.213 873.831 372.52L873.671 348.2C873.671 342.76 873.298 337.373 872.551 332.04C871.911 326.6 871.591 320.893 871.591 314.92C873.725 311.613 874.791 307.347 874.791 302.12ZM870.311 266.44L865.031 265.64C862.365 264.04 860.711 263.24 860.071 263.24C857.405 263.24 856.071 264.893 856.071 268.2V271.08C855.965 271.613 855.911 272.2 855.911 272.84C855.911 273.48 855.911 274.12 855.911 274.76L856.071 275.72C855.965 276.04 855.911 276.467 855.911 277C855.911 277.533 855.911 278.12 855.911 278.76C855.911 281.107 856.285 282.653 857.031 283.4C857.885 284.147 859.218 284.52 861.031 284.52H863.431C864.605 284.52 865.618 284.787 866.471 285.32C866.685 285.213 867.058 285.16 867.591 285.16C867.378 285.373 867.271 285.533 867.271 285.64H869.191C871.751 285.64 873.031 283.4 873.031 278.92V277.48C873.031 273.64 872.711 270.973 872.071 269.48C871.538 267.987 870.951 267.08 870.311 266.76V266.44Z" fill="#FF0000"/>
<path d="M912.516 299.08C912.303 299.507 912.09 299.933 911.876 300.36C911.663 300.68 911.343 301.107 910.916 301.64C907.503 303.773 903.983 306.013 900.356 308.36C896.73 310.707 893.423 313.16 890.436 315.72C887.556 318.28 885.156 321 883.236 323.88C881.423 326.653 880.516 329.587 880.516 332.68C880.516 335.027 880.676 337.213 880.996 339.24C881.316 341.16 881.903 343.293 882.756 345.64C883.61 347.987 884.783 350.6 886.276 353.48C887.77 356.36 889.743 359.88 892.196 364.04C892.836 366.707 893.85 369.32 895.236 371.88C896.73 374.333 898.276 376.52 899.876 378.44C901.476 380.36 902.97 381.907 904.356 383.08C905.743 384.253 906.703 384.84 907.236 384.84C908.303 384.84 909.37 385.16 910.436 385.8C911.503 386.547 912.303 386.92 912.836 386.92C913.263 386.92 914.33 387.4 916.036 388.36C917.743 389.32 919.716 389.907 921.956 390.12H923.236C925.583 390.12 927.77 389.533 929.796 388.36C931.93 387.293 933.903 385.533 935.716 383.08C934.97 380.947 934.063 379.4 932.996 378.44C931.93 377.587 930.703 377 929.316 376.68C928.036 376.253 926.596 375.933 924.996 375.72C923.503 375.4 921.903 374.813 920.196 373.96C918.49 373.107 916.73 371.827 914.916 370.12C913.21 368.307 911.503 365.64 909.796 362.12C909.583 361.907 909.37 361.48 909.156 360.84C910.65 361.373 912.196 361.747 913.796 361.96C915.503 362.173 916.623 362.28 917.156 362.28C918.223 361.96 919.076 361.427 919.716 360.68C920.356 359.827 920.89 358.973 921.316 358.12C921.743 357.16 922.17 356.307 922.596 355.56C923.023 354.707 923.556 354.067 924.196 353.64C928.036 350.44 931.503 347.88 934.596 345.96C937.69 344.04 940.303 342.28 942.436 340.68C944.676 339.08 946.383 337.373 947.556 335.56C948.73 333.747 949.316 331.347 949.316 328.36C949.316 327.933 949.156 327.453 948.836 326.92C948.623 326.28 948.356 325.693 948.036 325.16C947.823 324.52 947.663 324.04 947.556 323.72C947.45 323.293 947.503 323.027 947.716 322.92C946.97 321.427 945.796 319.4 944.196 316.84C942.596 314.173 940.463 310.76 937.796 306.6H937.956C936.996 304.893 935.663 303.293 933.956 301.8C932.25 300.307 930.436 299.027 928.516 297.96C926.703 296.893 924.89 296.04 923.076 295.4C921.37 294.76 919.983 294.44 918.916 294.44C918.063 294.44 917.316 294.6 916.676 294.92V294.76C915.503 294.973 914.596 295.507 913.956 296.36C913.316 297.213 912.836 298.12 912.516 299.08ZM898.756 337C898.863 335.507 898.756 334.387 898.436 333.64C898.116 332.893 897.85 332.253 897.636 331.72C898.063 331.293 898.916 330.44 900.196 329.16C901.583 327.773 903.076 326.333 904.676 324.84C906.276 323.347 907.77 321.96 909.156 320.68C910.543 319.4 911.556 318.547 912.196 318.12H912.036C913.743 317.267 915.823 316.84 918.276 316.84H919.556C921.37 318.12 922.863 319.187 924.036 320.04C925.21 320.787 926.17 321.533 926.916 322.28C927.663 323.027 928.25 323.88 928.676 324.84C929.103 325.8 929.476 327.08 929.796 328.68C927.983 332.413 925.423 335.88 922.116 339.08C918.916 342.173 914.596 344.147 909.156 345C908.836 345.32 908.303 345.64 907.556 345.96C906.916 346.173 906.223 346.387 905.476 346.6C904.836 346.813 904.196 347.08 903.556 347.4C903.023 347.72 902.756 348.093 902.756 348.52C901.796 346.6 900.996 344.733 900.356 342.92C899.716 341.107 899.183 339.133 898.756 337Z" fill="#FF0000"/>
<path d="M653.542 311.529C656.495 312.069 659.535 312.126 662.662 311.698C665.838 311.291 668.901 310.461 671.852 309.209C674.852 307.977 677.625 306.39 680.171 304.448C682.766 302.527 684.959 300.322 686.75 297.833C686.804 297.567 687.147 296.468 687.781 294.536C688.415 292.604 689.419 289.787 690.793 286.084C692.467 281.523 693.208 277.469 693.014 273.92C692.891 270.342 692.053 267.16 690.501 264.373C688.949 261.585 686.777 259.175 683.985 257.141C681.214 255.058 678.032 253.267 674.44 251.765C671.93 250.717 669.347 249.984 666.689 249.567C664.051 249.1 661.374 248.936 658.658 249.072C658.005 249.667 657.033 250.127 655.74 250.454C654.468 250.732 653.147 250.989 651.776 251.225C650.426 251.413 649.15 251.631 647.948 251.88C646.766 252.08 645.953 252.434 645.51 252.942C642.496 255.729 639.871 258.62 637.636 261.617C635.401 264.614 633.605 267.736 632.248 270.984C628.937 278.907 628.679 286.718 631.473 294.417C636.151 302.036 641.688 307.182 648.085 309.855C650.004 310.657 651.823 311.215 653.542 311.529ZM682.853 281.639C682.454 282.455 681.831 283.322 680.985 284.24C680.189 285.178 679.398 286.033 678.614 286.804C678.857 288.986 678.599 290.988 677.838 292.809C677.016 294.777 675.582 296.548 673.537 298.121C671.513 299.645 668.962 300.978 665.884 302.12C665.535 302.263 665.09 302.221 664.549 301.995C664.352 301.913 664.19 301.816 664.063 301.706L663.399 301.428C661.922 300.811 660.868 301.122 660.235 302.36C658.778 302.387 657.25 302.24 655.65 301.918C654.1 301.617 652.463 301.107 650.741 300.387C649.708 299.955 648.596 299.433 647.407 298.821C646.267 298.229 645.169 297.539 644.111 296.75C643.053 295.961 642.121 295.08 641.314 294.107C640.507 293.134 639.968 292.071 639.699 290.918L639.668 290.991C639.607 290.446 639.599 289.633 639.646 288.554C639.712 287.426 639.761 286.204 639.791 284.887C639.821 283.57 639.791 282.257 639.703 280.948C639.663 279.66 639.516 278.558 639.263 277.643C640.409 276.561 641.362 275.11 642.123 273.289C642.308 272.846 642.536 272.161 642.808 271.235C643.1 270.258 643.473 269.229 643.925 268.146L644.511 266.744C646.232 264.978 648.084 263.382 650.067 261.956C652.05 260.53 654.17 259.191 656.428 257.938C656.94 258.094 657.656 258.249 658.575 258.401C659.543 258.575 660.511 258.748 661.479 258.921C662.517 259.066 663.47 259.204 664.34 259.337C665.259 259.489 665.915 259.648 666.309 259.812C666.801 260.018 667.375 260.374 668.031 260.879C669.844 260.827 671.661 261.182 673.482 261.943C674.86 262.519 676.078 263.201 677.135 263.99C678.263 264.75 679.244 265.651 680.08 266.694C680.916 267.737 681.659 269.002 682.31 270.487C682.982 271.924 683.599 273.627 684.163 275.597C684.376 276.61 684.482 277.464 684.481 278.157C684.55 278.822 684.482 279.4 684.276 279.892C684.132 280.237 683.949 280.536 683.727 280.79C683.526 280.995 683.325 281.2 683.124 281.405L682.853 281.639Z" fill="black"/>
<path d="M717.478 337.986C718.352 337.831 719.03 337.593 719.51 337.274C719.99 336.954 720.417 336.555 720.791 336.075L720.717 336.044L721.623 335.122C719.805 331.588 718.262 328.226 716.993 325.037C715.795 321.82 714.766 318.818 713.907 316.031C713.118 313.216 712.464 310.631 711.946 308.275C711.476 305.94 711.048 303.854 710.66 302.015L710.703 302.12C710.666 301.931 710.629 301.743 710.593 301.554C710.605 301.386 710.593 301.207 710.556 301.018L710.865 300.28C711.529 300.211 712.45 300.22 713.628 300.308C714.875 300.366 716.161 300.47 717.486 300.619C718.831 300.719 720.128 300.798 721.375 300.857C722.692 300.887 723.752 300.839 724.557 300.713C728.016 299.904 731.045 298.742 733.643 297.227C733.859 294.774 733.74 292.499 733.287 290.402C732.855 288.256 731.971 286.152 730.635 284.091C729.3 282.03 727.435 279.922 725.042 277.766C722.648 275.609 719.619 273.245 715.954 270.673C714.777 269.892 713.586 269.077 712.381 268.226C711.175 267.376 710.093 266.577 709.134 265.829C707.304 265.643 705.946 266.058 705.059 267.074C704.192 268.042 703.461 269.239 702.864 270.666L701.723 273.397C701.672 274.763 701.184 276.553 700.259 278.768C700.012 279.358 699.675 280.027 699.248 280.773C698.87 281.54 698.446 282.346 697.978 283.19C697.579 284.006 697.17 284.847 696.75 285.712C696.331 286.577 695.957 287.403 695.628 288.191C695.073 289.52 694.632 290.781 694.307 291.974C694.031 293.188 693.905 294.32 693.928 295.371C692.245 296.633 690.992 298.248 690.169 300.216C689.943 300.757 689.688 301.576 689.404 302.671C689.169 303.786 688.903 304.976 688.606 306.239C688.33 307.453 688.04 308.632 687.735 309.777C687.5 310.892 687.259 311.745 687.012 312.336C685.055 312.732 683.655 313.939 682.812 315.956L682.257 317.285C682.203 317.551 682.135 317.783 682.053 317.98C681.991 318.128 681.94 318.251 681.899 318.349C681.57 319.136 681.048 319.901 680.333 320.643L681.284 323.555C681.714 323.908 682.165 324.212 682.637 324.467C683.108 324.722 683.639 324.972 684.23 325.219C685.214 325.63 686.201 325.898 687.189 326.022C688.198 326.097 689.283 326.059 690.445 325.909C690.761 325.289 691.094 324.562 691.444 323.725C691.814 322.839 692.164 322.003 692.493 321.215C692.801 320.477 693.26 319.31 693.868 317.715C694.477 316.12 695.117 314.451 695.787 312.708C696.478 310.916 697.128 309.222 697.737 307.627C698.346 306.032 698.805 304.865 699.113 304.127L700.224 301.469C700.871 301.856 701.404 302.31 701.822 302.831C702.31 303.324 702.746 303.94 703.131 304.679C703.516 305.417 703.853 306.339 704.144 307.443C704.504 308.518 704.869 309.856 705.241 311.456C705.894 314.735 706.679 317.144 707.597 318.683C708.097 319.008 708.361 319.552 708.389 320.315C708.417 321.078 708.408 321.999 708.361 323.078C708.315 324.157 708.322 325.316 708.382 326.555C708.513 327.765 708.919 329.004 709.603 330.273C710.066 331.102 710.42 331.915 710.665 332.711C710.981 333.478 711.267 334.176 711.525 334.804C711.783 335.432 712.047 335.976 712.317 336.436C712.637 336.916 713.018 337.249 713.461 337.434C713.657 337.516 713.924 337.57 714.26 337.595C714.597 337.62 714.993 337.64 715.448 337.657L715.374 337.626C715.711 337.651 716.022 337.666 716.31 337.671C716.597 337.675 716.814 337.708 716.962 337.77L717.478 337.986ZM704.423 293.08L703.666 293.024C703.859 292.7 704.048 292.316 704.233 291.873C704.418 291.431 704.624 290.939 704.85 290.397C705.22 289.511 705.593 288.482 705.967 287.309C706.412 286.108 706.901 284.867 707.436 283.588C708.443 281.176 709.579 279.426 710.844 278.336C712.337 279.191 713.702 279.934 714.94 280.568C716.228 281.221 717.419 282.037 718.513 283.014C719.657 284.012 720.771 285.287 721.857 286.839C722.992 288.412 724.153 290.544 725.34 293.237C719.662 293.407 715.184 293.472 711.906 293.432C708.648 293.343 706.154 293.225 704.423 293.08Z" fill="black"/>
<path d="M1253.56 106.28L1250.2 111.8L1239.4 120.44L1226.68 131.24C1225.24 131.4 1223.08 132.28 1220.2 133.88C1217.32 135.48 1213.96 137.56 1210.12 140.12C1206.44 142.52 1202.44 145.32 1198.12 148.52C1193.96 151.56 1189.88 154.68 1185.88 157.88C1181.88 161.08 1178.2 164.12 1174.84 167C1171.48 169.72 1168.84 172.04 1166.92 173.96C1165.32 173.64 1163.48 173.96 1161.4 174.92C1159.48 175.72 1157.72 176.12 1156.12 176.12L1156.84 195.56C1156.84 196.04 1156.28 197.4 1155.16 199.64C1154.2 201.72 1153.72 203.72 1153.72 205.64C1153.72 207.88 1154.36 209.48 1155.64 210.44C1156.92 211.24 1158.2 212.52 1159.48 214.28L1158.04 221.96L1147.72 222.44C1147.4 222.44 1146.84 222.28 1146.04 221.96C1145.24 221.64 1144.28 221.24 1143.16 220.76C1142.2 220.28 1141.24 219.88 1140.28 219.56C1139.48 219.08 1138.92 218.76 1138.6 218.6L1134.76 221.72H1128.04C1126.92 222.84 1126.12 223.4 1125.64 223.4C1125.32 223.56 1124.28 223.48 1122.52 223.16C1122.52 216.76 1122.84 210.44 1123.48 204.2C1124.12 197.8 1124.84 191.48 1125.64 185.24C1126.12 185.24 1126.36 184.84 1126.36 184.04C1126.36 183.24 1126.2 182.36 1125.88 181.4C1125.72 180.28 1125.48 179.24 1125.16 178.28C1125 177.16 1124.92 176.28 1124.92 175.64C1124.92 163.8 1125.08 152.2 1125.4 140.84C1125.88 129.48 1126.04 117.88 1125.88 106.04C1127.64 105.08 1128.6 104.04 1128.76 102.92C1129.08 101.64 1129.24 99.88 1129.24 97.64C1129.24 97 1129.16 96.12 1129 95C1128.84 93.72 1128.52 92.44 1128.04 91.16C1127.72 89.72 1127.32 88.52 1126.84 87.56C1126.36 86.44 1125.88 85.64 1125.4 85.16L1124.44 59C1124.92 59 1125.24 58.6 1125.4 57.8C1125.72 56.84 1126.04 55.8 1126.36 54.68C1126.68 53.4 1127 52.2 1127.32 51.08C1127.8 49.8 1128.44 48.84 1129.24 48.2L1123.96 45.08L1128.52 35L1127.32 10.52L1129.72 11C1132.6 13.4 1135.48 15.8 1138.36 18.2C1141.4 20.6 1144.12 22.68 1146.52 24.44C1149.08 26.2 1151.24 27.48 1153 28.28C1154.76 29.08 1155.8 29.08 1156.12 28.28L1165.72 39.8L1174.36 43.4L1204.6 71.24C1206.68 72.52 1208.84 74.04 1211.08 75.8C1213.48 77.56 1215.96 79.4 1218.52 81.32C1221.08 83.24 1223.72 85.08 1226.44 86.84C1229.16 88.6 1231.96 89.96 1234.84 90.92L1230.76 98.12C1230.76 99.24 1231.4 99.64 1232.68 99.32C1233.96 99 1235.4 98.6 1237 98.12C1238.76 97.64 1240.28 97.32 1241.56 97.16C1242.84 97 1243.48 97.48 1243.48 98.6C1245.08 99.72 1246.12 100.6 1246.6 101.24C1247.08 101.72 1248.28 102.12 1250.2 102.44L1253.56 106.28ZM1207.24 108.92L1202.44 106.76C1199.72 105.48 1197.56 103.72 1195.96 101.48C1194.52 99.08 1193.96 97.48 1194.28 96.68H1192.12C1190.2 94.92 1187.96 93.24 1185.4 91.64C1183 89.88 1180.44 88.2 1177.72 86.6C1175.16 84.84 1172.68 83.08 1170.28 81.32C1167.88 79.56 1165.96 77.72 1164.52 75.8C1162.44 73.08 1160.68 70.76 1159.24 68.84C1157.8 66.92 1155.88 64.68 1153.48 62.12C1152.68 62.28 1152.12 62.84 1151.8 63.8C1151.64 64.76 1151.88 65.48 1152.52 65.96C1153.32 67.08 1154.04 68.28 1154.68 69.56C1155.48 70.84 1155.88 71.96 1155.88 72.92C1155.88 75 1155.56 76.52 1154.92 77.48C1154.28 78.28 1153.56 79.08 1152.76 79.88C1152.12 80.52 1151.48 81.32 1150.84 82.28C1150.36 83.08 1150.12 84.52 1150.12 86.6C1150.12 87.4 1150.36 87.72 1150.84 87.56C1151.32 87.4 1151.88 87.16 1152.52 86.84C1153.32 86.52 1154.04 86.36 1154.68 86.36C1155.48 86.2 1156.12 86.44 1156.6 87.08C1156.92 87.88 1157 88.84 1156.84 89.96C1156.84 91.08 1156.84 92.04 1156.84 92.84C1156.84 92.2 1156.28 92.68 1155.16 94.28C1154.2 95.72 1153.08 97.48 1151.8 99.56C1150.52 101.48 1149.4 103.32 1148.44 105.08C1147.48 106.84 1147.16 107.48 1147.48 107C1147.32 107.48 1147.56 107.48 1148.2 107C1149 106.36 1149.88 105.72 1150.84 105.08C1151.8 104.28 1152.68 103.64 1153.48 103.16C1154.28 102.52 1154.68 102.52 1154.68 103.16C1154.68 107.96 1154.68 112.28 1154.68 116.12C1154.68 119.96 1154.68 123.8 1154.68 127.64C1154.68 131.32 1154.68 135.16 1154.68 139.16C1154.68 143 1154.76 147.32 1154.92 152.12C1155.24 151.64 1155.72 150.76 1156.36 149.48C1157.16 148.04 1157.96 146.6 1158.76 145.16C1159.72 143.72 1160.52 142.44 1161.16 141.32C1161.96 140.04 1162.52 139.32 1162.84 139.16C1164.6 138.04 1167.48 136.36 1171.48 134.12C1175.64 131.88 1179.8 129.48 1183.96 126.92C1188.12 124.2 1191.8 121.48 1195 118.76C1198.2 116.04 1199.8 113.56 1199.8 111.32L1207.24 108.92Z" fill="black"/>
</svg>
