<svg width="652" height="203" viewBox="0 0 652 203" fill="none" xmlns="http://www.w3.org/2000/svg">
<g clip-path="url(#clip0)">
<g filter="url(#filter0_d)">
<path d="M101.345 108.114L82.6276 112.725C82.4613 111.894 82.3365 111.271 82.2533 110.856C82.1701 110.44 82.0869 110.066 82.0037 109.734C82.0037 109.402 81.9621 109.028 81.8789 108.613C81.7957 108.197 81.7125 107.574 81.6294 106.744C81.463 106.245 81.0886 105.664 80.5063 104.999C80.0072 104.252 79.8408 103.587 80.0072 103.006L80.5063 101.012L79.7576 99.0182C79.5912 98.9352 79.6328 98.8106 79.8824 98.6444C80.2151 98.3952 80.5479 98.2291 80.8806 98.146C81.2966 97.9799 81.671 97.9383 82.0037 98.0214C82.3365 98.0214 82.4613 98.146 82.3781 98.3952C82.2949 98.5614 82.4613 98.4783 82.8772 98.146C83.3763 97.7307 83.8755 97.3153 84.3746 96.9C84.9569 96.4016 85.6225 95.7785 86.3712 95.0309L82.8772 92.5389C82.5444 93.3696 82.2117 94.0756 81.8789 94.6571C81.6294 95.1555 81.3798 95.5709 81.1302 95.9032C80.8806 96.2354 80.7143 96.1939 80.6311 95.7785C80.5479 95.5293 80.5479 95.2386 80.6311 94.9063C80.7143 94.5741 80.7975 94.2418 80.8806 93.9095C80.9638 93.4942 81.0054 93.1203 81.0054 92.7881C81.0886 92.4558 81.0054 92.2066 80.7559 92.0404C80.7559 92.0404 80.5895 91.9574 80.2567 91.7912C79.924 91.542 79.5496 91.2928 79.1337 91.0436C78.7177 90.7944 78.3018 90.5867 77.8858 90.4206C77.5531 90.1714 77.3867 90.0468 77.3867 90.0468L77.8858 86.1841C77.969 85.5195 77.969 85.0626 77.8858 84.8134C77.8026 84.5642 77.6778 84.3566 77.5115 84.1904C77.4283 83.9412 77.3035 83.7335 77.1371 83.5674C76.9707 83.3182 76.8459 82.9029 76.7628 82.3214C76.6796 82.1552 76.5964 81.9476 76.5132 81.6983C76.5132 81.4491 76.43 81.2415 76.2636 81.0753C76.2636 80.9923 76.43 81.1169 76.7628 81.4492C77.0955 81.7814 77.4283 81.9891 77.761 82.0722C78.0938 82.0722 78.3434 81.7814 78.5097 81.1999C78.7593 80.6185 78.7177 79.3724 78.385 77.4618L76.7628 75.842L76.2636 73.8483L75.2653 77.3372C75.1821 77.1711 75.0574 76.7557 74.891 76.0912C74.7246 75.3436 74.5582 74.7206 74.3918 74.2221V72.8515C74.3918 72.5192 74.3503 72.2285 74.2671 71.9793C74.2671 71.7301 74.2671 71.5639 74.2671 71.4809L72.7696 68.7396L69.0261 51.2951C69.1093 51.5443 68.9013 52.0842 68.4022 52.9149C67.9862 53.6626 67.7783 54.2025 67.7783 54.5348C67.7783 54.8671 67.8614 55.4485 68.0278 56.2792C68.1942 57.0268 68.1942 57.6083 68.0278 58.0237L65.4073 59.6435C65.9065 59.9758 66.2393 60.3496 66.4056 60.765C66.6552 61.0972 66.9464 61.471 67.2791 61.8864L66.4056 64.1292C65.7401 64.7107 65.2826 65.0845 65.033 65.2507C64.8666 65.4168 64.7418 65.583 64.6586 65.7491C64.6586 65.9152 64.7002 66.1644 64.7834 66.4967C64.8666 66.829 64.9498 67.4105 65.033 68.2412V68.615C64.1179 71.1901 63.2444 73.7237 62.4125 76.2158C61.6638 78.7079 61.0399 81.283 60.5407 83.9412C59.7089 84.2735 59.2929 84.8134 59.2929 85.5611C59.2929 86.1425 59.3345 86.4333 59.4177 86.4333C59.5841 86.3502 59.8336 86.4748 60.1664 86.8071L57.2963 88.8008C57.3795 89.2992 57.3379 90.0883 57.1716 91.1682C57.0052 92.1651 56.7556 93.2865 56.4229 94.5325C56.1733 95.6955 55.8821 96.8169 55.5494 97.8968C55.2998 98.9767 55.1334 99.7659 55.0502 100.264C54.8006 101.344 54.6343 102.341 54.5511 103.255C54.4679 104.169 54.3847 105.041 54.3015 105.871C54.3015 106.702 54.2599 107.533 54.1767 108.364C54.0935 109.194 53.8856 110.025 53.5528 110.856C53.4696 111.022 53.3032 111.105 53.0537 111.105C52.8041 111.105 52.5129 111.105 52.1802 111.105C51.8474 111.105 51.5147 111.105 51.1819 111.105C50.9323 111.105 50.7659 111.229 50.6828 111.479C50.4332 110.482 49.934 109.153 49.1853 107.491C48.4366 105.747 47.9375 104.376 47.6879 103.379L47.9375 102.632C47.9375 102.216 47.8127 101.843 47.5631 101.51C47.3968 101.095 47.272 100.68 47.1888 100.264C47.272 100.181 47.4384 100.181 47.6879 100.264C48.0207 100.264 48.3118 100.306 48.5614 100.389C48.8942 100.472 49.1437 100.555 49.3101 100.638C49.5597 100.638 49.6845 100.555 49.6845 100.389C49.6845 100.223 49.4349 99.7243 48.9358 98.8936C48.4366 98.063 48.1039 97.6061 47.9375 97.523C47.6879 97.1077 47.3968 96.7754 47.064 96.5262C46.8144 96.277 46.5649 96.0278 46.3153 95.7785L45.8162 94.0341H44.9427C44.0276 91.1267 43.1957 88.2608 42.447 85.4365C41.7814 82.6121 40.9495 79.7878 39.9513 76.9634C39.9513 76.7142 40.0345 76.3404 40.2008 75.842C40.4504 75.3436 40.5752 75.0528 40.5752 74.9698C40.5752 74.3052 40.3672 73.7237 39.9513 73.2253C39.6185 72.6438 39.3274 72.0623 39.0778 71.4809C39.0778 71.1486 39.0778 70.8578 39.0778 70.6086C39.161 70.2764 39.161 69.9441 39.0778 69.6118C38.9114 69.4457 38.6618 69.3211 38.3291 69.238C38.0795 69.0719 37.8299 68.9888 37.5804 68.9888L38.5786 67.3689C38.1627 67.2028 37.7467 67.0782 37.3308 66.9951C36.9148 66.9121 36.4989 66.829 36.0829 66.7459L35.2095 64.5031C35.2926 63.5893 35.2511 62.5094 35.0847 61.2634C34.9183 60.0173 34.6687 58.7713 34.336 57.5253C34.0032 56.2792 33.5457 55.1163 32.9633 54.0364C32.4642 52.8734 31.9235 51.9596 31.3411 51.2951C31.2579 51.4612 31.0916 51.7935 30.842 52.2919C30.6756 52.7073 30.4676 53.2057 30.2181 53.7872C29.9685 54.3686 29.7189 54.9086 29.4694 55.407C29.2198 55.9054 29.095 56.1962 29.095 56.2792C29.095 56.4454 29.0534 56.7776 28.9702 57.2761C28.9702 57.6914 28.9702 58.1898 28.9702 58.7713C28.9702 59.3528 28.9702 59.8927 28.9702 60.3911C28.9702 60.8896 28.9702 61.2218 28.9702 61.388C28.8038 61.8033 28.4295 62.4679 27.8472 63.3816C27.2648 64.2123 26.8905 64.8353 26.7241 65.2507C26.5577 66.3306 26.4745 67.0782 26.4745 67.4935C26.5577 67.8258 26.5993 68.1581 26.5993 68.4904C26.6825 68.7396 26.6825 69.1134 26.5993 69.6118C26.5993 70.0272 26.4745 70.8578 26.225 72.1039C26.0586 72.3531 25.8506 72.6854 25.601 73.1007C25.3515 73.5161 24.9355 74.2637 24.3532 75.3436H24.6028C24.27 76.4235 24.1036 77.628 24.1036 78.9571C23.7709 80.2031 23.3549 81.4076 22.8558 82.5706C22.3566 83.7335 21.9407 84.938 21.6079 86.1841C21.192 88.0116 21.3584 89.673 22.1071 91.1682L20.6096 98.5198C20.3601 98.769 20.1105 99.0182 19.8609 99.2674C19.6946 99.5167 19.5282 99.8489 19.3618 100.264C18.5299 101.427 17.9892 102.549 17.7396 103.629C17.4068 104.875 17.3236 106.121 17.49 107.367C17.6564 108.53 17.9476 109.568 18.3635 110.482C18.1971 111.562 18.0724 112.226 17.9892 112.475C17.9892 112.808 17.9892 112.932 17.9892 112.849C17.9892 112.849 17.9892 112.766 17.9892 112.6C17.9892 112.517 17.9892 112.558 17.9892 112.725C16.9077 112.558 15.8678 112.351 14.8696 112.102C13.8713 111.852 12.8314 111.603 11.7499 111.354C11.334 110.689 10.7933 110.274 10.1277 110.108C9.5454 110.025 9.00467 109.983 8.50553 109.983C8.50553 109.236 7.84001 108.696 6.50898 108.364C5.84346 108.197 5.21953 108.239 4.63721 108.488C4.05488 108.737 3.55574 109.028 3.13979 109.36L0.394531 107.242C1.06005 104.335 1.89195 101.386 2.89023 98.3952C3.8885 95.4047 4.762 92.4973 5.5107 89.673C6.09303 89.2576 6.50898 88.6346 6.75855 87.8039C7.0913 86.9732 7.34087 86.3087 7.50725 85.8103C7.59044 85.6441 7.59044 85.1872 7.50725 84.4396C7.50725 83.692 7.46566 83.1105 7.38247 82.6952C8.21437 80.037 8.96307 77.3788 9.62859 74.7206C10.3773 72.0623 11.0844 69.3626 11.7499 66.6213C13.2473 64.7107 14.2456 62.4679 14.7448 59.8927C14.9111 59.2282 15.1191 58.4806 15.3687 57.6499C15.6183 56.7361 15.8262 55.8223 15.9926 54.9086C16.159 53.9118 16.2422 52.998 16.2422 52.1673C16.3254 51.2536 16.2838 50.4644 16.1174 49.7998L16.7413 47.4324L17.3652 47.3078C17.8644 47.2247 18.3219 47.0586 18.7379 46.8094C20.0689 46.394 20.9008 45.3972 21.2336 43.8189C21.5663 42.5728 21.4415 41.3683 20.8592 40.2054C20.2769 39.0424 19.7362 37.9625 19.237 36.9657C19.9025 33.9752 20.5265 30.5694 21.1088 26.7482C21.7743 22.927 22.3982 19.5212 22.9806 16.5307L23.854 16.2815L23.9788 14.9108C24.3116 14.5786 24.5612 14.2048 24.7275 13.7894C24.9771 13.3741 25.1851 13.0003 25.3515 12.668L26.3497 11.7958C26.017 10.882 25.8922 10.4251 25.9754 10.4251C26.1418 10.342 26.1418 9.96824 25.9754 9.30369L25.3515 8.80527L25.2267 8.55606L24.8523 4.56874L26.1002 0.581426L28.4711 0.456821L29.7189 0.0830078L31.9651 6.81161C31.8819 7.22696 32.0066 7.80844 32.3394 8.55606C32.6722 9.30369 33.0465 10.0928 33.4625 10.9235C33.9616 11.6712 34.3776 12.4603 34.7103 13.291C35.1263 14.0386 35.3342 14.6201 35.3342 15.0354C35.3342 15.7 35.2511 16.24 35.0847 16.6553C34.9183 16.9876 34.7519 17.2783 34.5855 17.5275C34.5023 17.7767 34.5023 18.0259 34.5855 18.2751C34.6687 18.5243 35.0015 18.8566 35.5838 19.272L38.953 30.3617L41.1991 34.5982C41.3655 34.9305 41.6567 35.7612 42.0726 37.0903C42.4886 38.4194 42.9461 39.8316 43.4452 41.3268C43.9444 42.822 44.4019 44.1927 44.8179 45.4387C45.317 46.6847 45.6914 47.4324 45.9409 47.6816C46.7728 50.0906 47.6047 52.458 48.4366 54.784C49.2685 57.0268 50.142 59.2697 51.0571 61.5126C51.8058 59.5189 52.6377 57.5668 53.5528 55.6562C54.5511 53.7456 55.383 51.752 56.0485 49.6752C56.2981 48.8445 56.4644 47.9308 56.5476 46.934C56.714 45.9371 56.922 44.9818 57.1716 44.0681C57.4211 43.0712 57.7123 42.1575 58.0451 41.3268C58.461 40.413 59.0433 39.6654 59.792 39.0839L60.6655 34.5982C60.8319 34.5982 61.0815 33.8506 61.4142 32.3553C61.747 30.777 62.0798 29.0741 62.4125 27.2466C62.8285 25.4191 63.2028 23.7577 63.5356 22.2625C63.9515 20.7672 64.3675 20.0611 64.7834 20.1442C65.1994 19.4796 65.4073 18.732 65.4073 17.9013C65.4073 17.2368 65.4905 16.6968 65.6569 16.2815C65.9065 15.7831 66.0313 15.2431 66.0313 14.6616C66.0313 14.5786 66.1561 14.4124 66.4056 14.1632C66.6552 13.914 66.9048 13.6233 67.1543 13.291C67.4039 12.9587 67.6119 12.668 67.7783 12.4188C68.0278 12.1696 68.1526 12.0034 68.1526 11.9204L69.8996 7.68384L71.1474 0.0830078L75.3901 0.456821C75.7229 1.869 75.8893 2.86582 75.8893 3.44731C75.9725 4.02879 76.014 4.5272 76.014 4.94255C76.014 5.35791 76.0556 5.89785 76.1388 6.56241C76.222 7.14389 76.3884 8.14072 76.638 9.55289C76.3052 10.2174 76.1804 11.0066 76.2636 11.9204C76.3468 12.751 76.4716 13.4156 76.638 13.914C76.7212 14.3294 76.8875 14.8278 77.1371 15.4093C77.4699 15.9077 77.8026 16.323 78.1354 16.6553C78.385 18.0675 78.8009 20.2273 79.3832 23.1347C80.0488 26.0421 80.7143 29.1157 81.3798 32.3553C82.0453 35.595 82.7108 38.7101 83.3763 41.7006C84.0419 44.608 84.541 46.7263 84.8738 48.0554C84.6242 49.3845 84.541 50.7136 84.6242 52.0427C84.7906 53.2887 85.0401 54.5348 85.3729 55.7808C85.5393 56.2792 85.7057 56.9853 85.872 57.8991C86.0384 58.8128 86.288 59.7266 86.6208 60.6404C87.2031 62.7171 87.9102 64.1708 88.7421 65.0015C88.8253 65.4168 88.8669 65.7906 88.8669 66.1229C88.9501 66.4552 89.0332 66.7875 89.1164 67.1197C88.4509 67.7843 87.827 68.615 87.2447 69.6118C86.7455 70.6086 86.6208 71.6055 86.8703 72.6023C87.0367 73.0176 87.2031 73.5161 87.3695 74.0975C87.619 74.5959 87.9934 75.0528 88.4925 75.4682C89.158 76.2989 89.9067 76.7142 90.7386 76.7142C90.9882 76.8803 91.3626 77.2126 91.8617 77.711C92.6104 80.7015 93.4007 83.692 94.2326 86.6825C95.1477 89.5899 96.0628 92.4973 96.9779 95.4047L96.2292 96.0278L97.3522 96.4016C97.269 96.5677 97.269 96.7338 97.3522 96.9C97.5186 97.0661 97.6018 97.2323 97.6018 97.3984L96.7283 98.0214L97.3522 98.5198L96.9779 99.0182L95.8548 98.3952C95.8548 98.6444 95.938 98.8521 96.1044 99.0182C96.354 99.1844 96.4787 99.3505 96.4787 99.5167C96.4787 99.7659 96.5203 99.932 96.6035 100.015C96.0212 100.597 95.7716 101.178 95.8548 101.76L97.1027 102.507C97.4354 103.172 97.8514 103.67 98.3505 104.002C98.9328 104.335 99.4736 104.542 99.9727 104.625L100.097 104.75C100.264 105.331 100.43 105.913 100.597 106.494C100.846 106.993 101.096 107.533 101.345 108.114Z" fill="white"/>
<path d="M147.398 37.6666C147.034 39.1808 146.518 41.0283 145.851 43.2088C145.244 45.3288 144.486 47.4488 143.576 49.5688C142.666 51.6282 141.635 53.4757 140.483 55.1111C139.33 56.7465 138.026 57.8368 136.57 58.3819V58.4728C136.388 58.4728 136.297 58.3518 136.297 58.1093C136.539 58.1093 136.721 58.0792 136.843 58.0185L137.48 57.7459C137.662 57.6852 137.874 57.6551 138.117 57.6551C138.481 57.6551 138.723 57.8067 138.845 58.1093C138.966 58.3518 139.027 58.5636 139.027 58.7453L134.841 70.9202L133.385 71.1927L134.568 71.647L134.295 73.3733C134.113 73.4943 133.931 73.5851 133.749 73.6459C133.567 73.6459 133.416 73.676 133.294 73.7367L133.931 74.3727L133.021 77.1893C132.415 79.1274 132.112 81.0354 132.112 82.9132C132.112 84.7911 132.112 86.6991 132.112 88.6372L130.383 89.4549L132.476 90.9995C132.112 91.5446 132.051 92.0898 132.294 92.6349C132.294 93.5435 132.294 94.3913 132.294 95.1789C132.354 95.9058 132.415 96.6326 132.476 97.3595C132.536 98.0256 132.597 98.7524 132.658 99.54C132.718 100.328 132.749 101.206 132.749 102.175H130.292L129.928 101.357V102.175L126.379 100.903L125.378 102.175H121.466C121.466 101.509 121.496 100.994 121.557 100.63C121.617 100.267 121.739 99.7519 121.921 99.0858C122.042 98.7223 122.133 98.3589 122.194 97.9955C122.254 97.5713 122.285 97.0568 122.285 96.4509C122.285 96.1482 122.254 95.8756 122.194 95.6332C122.194 95.3907 122.103 95.1182 121.921 94.8155L122.012 88.3646C122.012 86.8502 121.89 85.3056 121.648 83.731C121.405 82.1563 121.284 80.551 121.284 78.9155L121.102 77.6436C120.798 76.6742 120.768 75.8565 121.011 75.1904C121.011 75.0694 121.011 75.0087 121.011 75.0087C121.071 74.948 121.102 74.8571 121.102 74.7361C121.162 74.5544 121.102 74.312 120.92 74.0093C120.798 73.6459 120.283 72.9491 119.373 71.9196C119.13 70.7083 118.766 69.5573 118.281 68.467C117.796 67.316 117.25 66.1956 116.643 65.1053C116.098 64.015 115.552 62.9248 115.006 61.8345C114.52 60.7442 114.126 59.6238 113.823 58.4728L114.46 57.2916L114.551 57.0191V56.8373C114.733 56.7766 114.824 56.8675 114.824 57.1099H114.733L114.46 57.2008L113.914 57.4733C113.792 57.4733 113.641 57.4733 113.459 57.4733C113.277 57.4126 113.186 57.2309 113.186 56.9282C113.186 56.8072 113.064 56.5648 112.822 56.2014C112.579 55.7772 112.458 55.5046 112.458 55.3836C112.215 54.9595 112.003 54.5659 111.821 54.2025C111.639 53.7783 111.487 53.324 111.366 52.8397L112.458 52.3854L112.367 51.5677L111.275 52.1128L108.182 45.9345L108.818 45.2077L107.909 45.662L107.454 43.0271L106.635 42.5728L105.088 38.7569L109.455 36.6671L110.729 37.7574L110.638 35.8494L115.279 33.8506C116.067 35.6677 116.734 37.394 117.28 39.0294C117.826 40.6648 118.342 42.3003 118.827 43.9357C119.312 45.5711 119.858 47.2671 120.465 49.0237C121.132 50.7802 122.012 52.6579 123.104 54.6568L122.376 56.2014L123.65 55.8379C124.499 57.3524 125.166 58.8663 125.651 60.3808C126.197 61.8345 126.591 63.0764 126.834 64.1059C126.955 63.9242 127.046 63.7726 127.107 63.6516C127.168 63.4699 127.228 63.2882 127.289 63.1065L126.834 62.8339L127.744 60.8351H128.745L127.926 59.9265L132.112 50.114L134.204 51.2042L134.022 50.5682L133.203 50.7499C132.961 50.2654 132.809 49.9928 132.749 49.9322C132.749 49.8716 132.718 49.8111 132.658 49.7505C132.597 49.6899 132.415 49.6597 132.112 49.6597C132.233 48.9328 132.354 48.3877 132.476 48.0242C132.658 47.6002 132.9 47.0854 133.203 46.4797C133.385 46.2374 133.507 45.9648 133.567 45.662C133.689 45.3591 133.749 44.8745 133.749 44.2083C133.749 44.0265 133.871 43.5117 134.113 42.6637C134.416 41.8157 134.72 40.8768 135.023 39.8471C135.387 38.7569 135.72 37.7574 136.024 36.8489C136.327 35.8797 136.539 35.2134 136.661 34.85L140.392 35.6677L140.756 37.0306L141.756 36.758C142.06 36.6974 142.332 36.6369 142.575 36.5763C142.878 36.5157 143.121 36.4854 143.303 36.4854C143.485 36.4854 143.758 36.546 144.122 36.6671C144.486 36.7277 144.88 36.8489 145.305 37.0306C145.729 37.1517 146.124 37.2728 146.488 37.394C146.912 37.5151 147.216 37.606 147.398 37.6666Z" fill="white"/>
<path d="M190.271 38.9385C190.271 40.5133 190.18 42.1487 189.998 43.8447C189.876 45.4802 189.876 47.2065 189.998 49.0236C188.663 49.0236 187.42 48.963 186.268 48.8419C185.176 48.6602 184.053 48.5693 182.901 48.5693C182.112 47.903 181.445 47.5699 180.899 47.5699C180.171 47.5699 179.352 47.6607 178.443 47.8424C177.593 47.9636 176.653 48.0544 175.622 48.115C175.622 48.4179 175.591 48.751 175.531 49.1144C175.531 49.4173 175.531 49.7201 175.531 50.023C175.409 50.6893 175.318 51.2344 175.258 51.6584C175.258 52.0219 175.258 52.4154 175.258 52.8396C175.258 53.203 175.227 53.6573 175.167 54.2024C175.167 54.6868 175.167 55.4137 175.167 56.383L173.438 57.1098L175.076 57.3824L174.166 59.0178H174.894C175.197 61.5011 175.379 63.8633 175.44 66.1047C175.5 68.346 175.5 70.5566 175.44 72.7372C175.44 74.9178 175.379 77.0983 175.258 79.2789C175.197 81.4594 175.167 83.7309 175.167 86.0931C175.167 86.82 175.106 87.3651 174.985 87.7286C174.863 88.092 174.803 88.7887 174.803 89.8183C174.803 90.1817 174.56 90.4543 174.075 90.636C173.589 90.8177 173.347 91.1811 173.347 91.7263C173.347 91.9687 173.438 92.0897 173.62 92.0897L173.893 92.1805C174.196 92.1805 174.439 92.2714 174.621 92.4531C174.803 92.5741 174.985 92.7558 175.167 92.9983C175.227 94.6944 175.318 96.4508 175.44 98.2679C175.622 100.024 176.046 101.6 176.714 102.993C174.59 103.113 172.346 103.083 169.981 102.902C167.615 102.659 165.37 102.477 163.247 102.357C163.308 100.479 163.46 98.7222 163.702 97.0868C164.005 95.3906 164.127 93.6644 164.066 91.908C164.43 91.1811 164.612 90.3634 164.612 89.4548L165.158 88.728C164.491 88.607 164.157 88.2436 164.157 87.6377C164.157 83.8825 164.187 80.1573 164.248 76.4623C164.309 72.7673 164.369 69.0121 164.43 65.1961L166.432 64.1058L166.705 63.6515L164.976 63.1972L167.16 61.1075C166.614 60.9866 166.068 60.7441 165.522 60.3807C165.037 60.0173 164.642 59.563 164.339 59.0178L163.793 48.9327L151.419 49.387L149.872 47.2065L150.145 43.5722L151.328 42.4819L150.054 42.3002L150.509 37.0305C151.783 37.0305 152.844 37.2122 153.694 37.5756C154.543 37.9391 155.513 38.3328 156.605 38.7568C157.03 38.9385 157.393 39.0293 157.697 39.0293C159.092 39.0293 160.396 38.8476 161.61 38.4842C162.883 38.1208 164.218 37.9693 165.613 38.0299L166.25 39.1202L170.254 38.9385C170.314 38.5751 170.557 38.2419 170.981 37.9391L171.072 37.8482C171.133 37.9087 171.133 37.9391 171.072 37.9391L171.436 37.5756C173.195 37.4545 175.045 37.3636 176.987 37.3031C178.928 37.1819 180.808 36.9699 182.628 36.6671L182.901 37.2122L184.084 37.0305L183.629 39.3928L183.811 39.3019L184.721 37.3939L185.631 38.0299C185.873 37.727 186.146 37.4848 186.45 37.3031C186.753 37.0608 187.056 36.7882 187.359 36.4854L190.18 37.1213L190.271 38.9385Z" fill="white"/>
<path d="M238.458 37.9391C238.336 39.938 238.215 41.8762 238.094 43.754C238.033 45.5711 238.003 47.4185 238.003 49.2962C237.76 49.7202 237.608 50.1139 237.548 50.4774C237.487 50.7802 237.457 51.1436 237.457 51.5676C237.457 51.8705 237.487 52.2337 237.548 52.6579C237.669 53.0213 237.76 53.2939 237.821 53.4756C237.76 55.232 237.699 56.9583 237.639 58.6545C237.639 60.2899 237.578 61.9861 237.457 63.7424C237.154 64.4086 236.941 65.1053 236.82 65.8322C236.759 66.559 236.729 67.2557 236.729 67.9219C236.729 68.7095 236.729 69.5272 236.729 70.375C236.729 71.2228 236.759 72.2529 236.82 73.4641V75.6447L237.093 80.9144L237.366 81.3687C237.608 81.7928 237.73 82.1864 237.73 82.5498C237.79 82.8525 237.669 83.0648 237.366 83.1858C237.366 85.1239 237.396 86.941 237.457 88.6372C237.518 90.3334 237.608 92.0596 237.73 93.816L237.275 93.9978V94.8155C237.154 95.0579 237.032 95.3305 236.911 95.6332C236.79 95.8756 236.729 96.1482 236.729 96.4509L236.365 97.0869L236.638 97.5412C236.82 98.268 237.305 98.8132 238.094 99.1766C238.154 99.661 238.185 100.115 238.185 100.539C238.185 100.964 238.245 101.478 238.367 102.084H226.447C226.508 100.57 226.629 99.2675 226.811 98.1772C227.054 97.0869 227.084 95.5724 226.902 93.6343C227.023 93.5134 227.114 93.3919 227.175 93.2709C227.236 93.1499 227.296 93.0284 227.357 92.9075C227.721 92.4833 227.903 91.9688 227.903 91.3629C227.903 91.2419 227.842 90.9995 227.721 90.6361C227.6 90.2726 227.448 89.9393 227.266 89.6366L227.175 89.3641C227.114 89.3033 227.084 89.2125 227.084 89.0915C227.084 88.7281 227.084 87.9405 227.084 86.7292C227.084 85.4572 227.084 84.1245 227.084 82.7315C227.084 81.2778 227.084 79.915 227.084 78.643C227.084 77.371 227.084 76.5532 227.084 76.1898C227.145 76.1291 227.175 76.0382 227.175 75.9173C227.418 75.3721 227.539 74.7361 227.539 74.0093C227.539 73.6458 227.418 73.5249 227.175 73.6458C226.993 73.7668 226.963 73.555 227.084 73.0098C226.599 73.1916 226.235 73.3125 225.992 73.3733C225.749 73.3733 225.476 73.6157 225.173 74.1001C224.809 74.3426 224.566 74.5544 224.445 74.7361L223.899 75.0087C222.807 75.0087 221.928 75.0087 221.261 75.0087C220.594 75.0087 219.987 75.0087 219.441 75.0087C218.895 74.9479 218.288 74.9178 217.621 74.9178C217.014 74.8571 216.165 74.8571 215.073 74.9178L211.98 75.0087H210.888C210.585 74.8877 210.281 74.7662 209.978 74.6453C209.735 74.5243 209.432 74.4635 209.068 74.4635L208.431 74.0093L207.794 74.4635C207.733 75.0087 207.673 75.9173 207.612 77.1893C207.612 78.4612 207.582 79.794 207.521 81.1869C207.521 82.5197 207.491 83.7611 207.43 84.9121C207.43 86.0631 207.43 86.79 207.43 87.0926C207.43 87.8195 207.764 88.5765 208.431 89.3641C208.431 90.0302 208.431 90.6361 208.431 91.1812C208.492 91.6656 208.552 92.2414 208.613 92.9075C208.31 93.2709 208.128 93.6644 208.067 94.0886C207.764 94.8762 207.612 95.5724 207.612 96.1783C207.612 96.9052 207.733 97.6019 207.976 98.268C208.279 98.8739 208.643 99.4793 209.068 100.085C209.068 100.388 209.068 100.66 209.068 100.903C209.129 101.145 209.159 101.509 209.159 101.993C208.431 102.054 207.673 102.114 206.884 102.175C206.157 102.175 205.429 102.145 204.701 102.084C204.337 101.781 203.912 101.63 203.427 101.63C203.366 101.63 203.275 101.63 203.154 101.63C203.033 101.63 202.82 101.69 202.517 101.811C202.274 101.509 202.062 101.327 201.88 101.266C201.698 101.145 201.486 101.085 201.243 101.085C200.818 101.085 200.485 101.206 200.242 101.448C200.06 101.63 199.848 101.872 199.605 102.175H197.149C197.209 100.176 197.24 98.268 197.24 96.4509C197.3 94.6337 197.361 92.7865 197.422 90.9086C197.725 90.4845 197.907 90.0608 197.968 89.6366C198.028 89.2125 198.059 88.8189 198.059 88.4555C197.998 88.3345 197.937 88.1528 197.877 87.9104C197.816 87.7286 197.755 87.5469 197.695 87.3652C197.634 87.1835 197.573 87.0018 197.513 86.8201C197.634 84.6395 197.695 82.7616 197.695 81.1869C197.695 79.5515 197.695 77.9462 197.695 76.3715C197.998 75.6447 198.21 74.9178 198.331 74.191C198.453 73.4641 198.513 72.7373 198.513 72.0104C198.513 71.2228 198.483 70.1933 198.422 68.9213C198.422 67.6493 198.21 66.68 197.786 66.0139V64.1967C198.331 63.894 198.817 63.5607 199.241 63.1973C199.726 62.8339 199.969 62.2887 199.969 61.5619C199.969 60.7743 199.696 60.1082 199.15 59.563C198.604 59.0179 198.119 58.4727 197.695 57.9276C197.573 55.9895 197.452 54.0815 197.331 52.2036C197.27 50.3259 197.179 48.3573 197.058 46.2979L197.604 46.0254L197.513 45.3894C197.634 45.0865 197.725 44.7836 197.786 44.4808C197.907 44.1779 197.998 43.9053 198.059 43.6631L198.422 43.0271C198.119 42.6637 197.816 42.3002 197.513 41.9368C197.27 41.5734 196.967 41.21 196.603 40.8465C196.542 40.3619 196.542 39.7563 196.603 39.0294C196.664 38.3025 196.633 37.606 196.512 36.9397C198.574 36.9397 200.515 37.1214 202.335 37.4848C204.216 37.7877 206.187 37.9088 208.249 37.8483C208.188 39.4231 208.128 40.9071 208.067 42.3002C208.067 43.6328 208.037 44.9956 207.976 46.3888C207.855 46.5099 207.794 46.6311 207.794 46.7522C207.794 46.8128 207.733 46.9036 207.612 47.0248C207.248 47.5093 207.066 48.0242 207.066 48.5694C207.066 48.8116 207.157 49.1145 207.339 49.4779C207.4 49.7808 207.552 50.0231 207.794 50.2048C207.915 50.6288 207.976 51.0225 207.976 51.3859C207.976 51.7494 207.976 52.1128 207.976 52.4762V55.0202C207.855 55.1412 207.703 55.4745 207.521 56.0196C207.582 56.2013 207.582 56.383 207.521 56.5648C207.521 56.7465 207.521 56.9282 207.521 57.1099C207.521 57.4126 207.552 57.655 207.612 57.8368C207.673 58.0185 207.673 58.2609 207.612 58.5636H207.794C207.733 59.2905 207.703 60.0173 207.703 60.7442C207.703 61.4103 207.703 62.3796 207.703 63.6516V64.4693C207.703 64.5903 207.673 64.651 207.612 64.651C207.612 64.5903 207.612 64.5903 207.612 64.651C207.612 64.772 207.612 64.8327 207.612 64.8327C207.733 64.8935 207.824 64.8327 207.885 64.651L207.976 64.3784C208.037 64.2575 208.188 64.1666 208.431 64.1059C208.734 64.0451 208.916 64.1967 208.977 64.5602H210.069L212.435 63.5607L212.708 63.7424C213.072 64.0451 213.405 64.2876 213.709 64.4693C214.073 64.651 214.497 64.7419 214.982 64.7419C215.104 64.7419 215.346 64.6811 215.71 64.5602C216.135 64.4392 216.468 64.2575 216.711 64.015C216.832 63.9543 217.227 63.9849 217.894 64.1059C218.622 64.2268 219.077 64.2876 219.259 64.2876L219.714 64.3784C220.017 64.3784 220.23 64.3483 220.351 64.2876L220.533 64.1967C220.776 64.015 221.412 63.9242 222.444 63.9242C222.807 64.1059 223.05 64.2876 223.171 64.4693C223.475 64.53 223.899 64.7118 224.445 65.0144C224.991 65.3171 225.294 65.4386 225.355 65.3779L225.446 66.1047C225.931 66.1655 226.568 66.1348 227.357 66.0139C228.206 65.8929 229.056 65.5897 229.905 65.1053L228.267 63.7424C228.57 62.9548 228.722 62.5613 228.722 62.5613L228.54 62.4704C228.297 62.3495 228.146 62.2586 228.085 62.1979C228.024 62.0769 227.964 61.8646 227.903 61.5619C227.903 61.4409 227.933 61.2592 227.994 61.0167C228.055 60.7141 228.115 60.4109 228.176 60.1082L227.63 59.9265C227.691 58.3518 227.751 57.0492 227.812 56.0196C227.933 54.9293 227.994 53.8692 227.994 52.8396C227.994 52.4155 227.903 52.0219 227.721 51.6585C227.539 51.2345 227.296 50.8711 226.993 50.5682C226.932 49.9625 226.902 49.3871 226.902 48.8419C226.902 48.2968 226.902 47.6911 226.902 47.0248C227.205 46.6008 227.418 46.1465 227.539 45.6619C227.782 45.1168 227.903 44.4808 227.903 43.754C227.903 43.0271 227.751 42.3608 227.448 41.7551C227.205 41.0888 226.902 40.4528 226.538 39.8471C226.538 39.5442 226.508 39.2717 226.447 39.0294C226.447 38.7871 226.447 38.4237 226.447 37.9391L231.633 36.9397C231.937 37.1819 232.088 37.394 232.088 37.5757C232.149 37.6968 232.24 37.9088 232.361 38.2117C232.361 38.2723 232.3 38.3328 232.179 38.3934C232.118 38.3934 232.118 38.3934 232.179 38.3934C232.361 38.3328 232.543 38.2723 232.725 38.2117C232.907 38.1511 233.089 38.1208 233.271 38.1208C233.392 38.242 233.453 38.3328 233.453 38.3934L233.635 38.4843C233.878 38.8477 234.151 39.0294 234.454 39.0294C234.939 39.0294 235.485 38.666 236.092 37.9391H238.458Z" fill="white"/>
<path d="M302.739 68.9213L299.554 74.827L299.099 74.191L298.917 74.3727L297.825 73.0099C297.34 75.4329 296.46 77.8253 295.186 80.1876C293.912 82.4891 292.457 84.7304 290.819 86.911C289.181 89.0915 287.452 91.242 285.632 93.3618C283.873 95.4214 282.235 97.4202 280.719 99.3583L280.173 99.1766C279.324 101.418 278.081 103.386 276.443 105.082L273.986 104.991L273.258 102.993L272.166 104.81C269.801 101.478 267.465 98.1772 265.16 94.9064C262.916 91.6355 260.641 88.2738 258.335 84.8213L259.064 84.2761L260.247 84.5487L260.337 84.1853C260.337 83.9428 260.307 83.7611 260.247 83.6401C260.247 83.4584 260.186 83.2466 260.065 83.0041L256.607 82.459C256.182 81.9746 255.818 81.4596 255.515 80.9144C255.212 80.3693 254.909 79.8241 254.605 79.279C254.241 79.158 253.756 78.9156 253.15 78.5521C252.604 78.1887 252.057 77.7646 251.511 77.2802C250.966 76.7958 250.45 76.3108 249.965 75.8264C249.54 75.2813 249.206 74.827 248.964 74.4636L249.055 72.919L248.964 71.1019C248.418 71.647 247.69 72.0105 246.78 72.1922L244.869 69.739L246.416 68.0128C246.598 68.0128 246.659 67.952 246.598 67.831C246.538 67.7101 246.447 67.6192 246.325 67.5585C247.842 65.6204 249.419 63.6215 251.056 61.5619C252.755 59.5023 254.727 58.0486 256.971 57.2008L256.607 56.9282L255.97 55.5654C257.486 53.6273 258.942 51.6585 260.337 49.6597C261.733 47.6003 263.098 45.5105 264.432 43.3906L266.343 43.0271L267.162 40.574C268.072 39.7866 268.89 38.9386 269.618 38.03C270.407 37.1215 271.226 36.2129 272.075 35.3043H272.439C272.985 35.3043 273.409 35.5163 273.713 35.9403L273.895 35.3043H275.897C277.171 36.6974 278.444 38.2117 279.718 39.8472C280.992 41.422 282.235 43.0574 283.448 44.7534C284.662 46.4494 285.784 48.1757 286.816 49.9323C287.907 51.6888 288.847 53.3848 289.636 55.0202C289.272 55.1412 288.908 55.202 288.544 55.202C288.18 55.1412 287.847 55.1111 287.543 55.1111C287.483 55.1111 287.452 55.2321 287.452 55.4745C287.452 55.7772 287.483 56.0804 287.543 56.3831C287.604 56.6255 287.665 56.8981 287.725 57.2008L291.455 56.5648C291.941 56.989 292.184 57.5035 292.184 58.1094C292.184 58.6545 292.335 59.1997 292.639 59.7448C293.185 59.8055 293.791 60.1383 294.459 60.7442C295.187 61.2894 295.854 61.9254 296.46 62.6522C297.067 63.3791 297.552 64.136 297.916 64.9236C298.34 65.7112 298.522 66.3166 298.462 66.7408C299.129 67.1649 299.796 67.5886 300.464 68.0128C301.192 68.4369 301.95 68.7396 302.739 68.9213ZM289.727 71.011L288.453 71.1019C287.968 70.7385 287.877 70.375 288.18 70.0116V69.2848H287.998C287.513 68.3154 286.937 67.4069 286.27 66.559C285.602 65.7112 284.905 64.8935 284.176 64.1059C283.448 63.2581 282.721 62.4404 281.993 61.6528C281.326 60.805 280.719 59.9265 280.173 59.0179C279.87 58.5335 279.597 57.9578 279.354 57.2917C279.112 56.6255 278.839 55.9589 278.536 55.2928C278.232 54.6267 277.868 54.0208 277.443 53.4757C277.079 52.9305 276.594 52.5671 275.987 52.3854C275.442 51.7191 274.926 51.0528 274.441 50.3865C273.955 49.6597 273.47 48.9631 272.985 48.2968C272.015 49.69 271.256 51.0528 270.71 52.3854C270.164 53.7181 269.224 54.9901 267.889 56.2014H266.434L266.979 57.1099L266.524 58.5637L266.252 58.1094C266.13 58.1094 266.1 58.2303 266.161 58.4728C266.221 58.6545 266.252 58.7755 266.252 58.8362C266.252 58.9572 266.13 59.0179 265.888 59.0179C265.706 58.9572 265.554 58.9271 265.433 58.9271C265.13 58.9271 264.857 58.8061 264.614 58.5637C264.432 58.3212 264.25 58.1395 264.068 58.0185C264.189 58.4427 264.311 58.8663 264.432 59.2905C264.553 59.7147 264.614 60.169 264.614 60.6534C264.614 61.2592 264.402 61.7436 263.977 62.1071C263.553 62.4705 263.067 62.8339 262.522 63.1973C262.036 63.5608 261.551 63.985 261.065 64.4693C260.641 64.9537 260.398 65.6505 260.337 66.559L257.517 69.0122C257.759 69.1939 258.123 69.4966 258.609 69.9208C259.155 70.3449 259.67 70.8293 260.155 71.3745C260.701 71.8589 261.156 72.3438 261.52 72.8282C261.885 73.3126 262.067 73.7066 262.067 74.0093C262.188 75.0996 262.522 76.1899 263.067 77.2802C263.674 78.3097 264.523 79.0064 265.615 79.3699C265.979 79.915 266.434 80.672 266.979 81.6413C267.586 82.5498 268.223 83.4885 268.89 84.4578C269.558 85.4272 270.225 86.3051 270.892 87.0927C271.56 87.8803 272.166 88.3346 272.712 88.4555L272.621 89.2732C272.621 89.7576 272.773 90.0302 273.076 90.091C273.44 90.1517 273.804 90.2426 274.168 90.3635C275.32 88.6071 276.533 86.9717 277.807 85.4573C279.081 83.8826 280.264 82.1864 281.356 80.3693L287.27 78.4613C286.967 78.2796 286.664 78.128 286.361 78.007C286.118 77.8253 285.845 77.6737 285.542 77.5527L285.632 77.2802C285.632 77.1592 285.572 77.1286 285.451 77.1893C285.329 77.25 285.238 77.2802 285.177 77.2802L284.813 77.0984C284.874 76.5533 285.086 76.0082 285.451 75.463C285.815 74.8571 286.239 74.2819 286.725 73.7367C287.27 73.1916 287.816 72.6766 288.362 72.1922C288.908 71.7078 289.363 71.3137 289.727 71.011Z" fill="white"/>
<path d="M344.314 99.0858C344.435 99.3884 344.496 99.7217 344.496 100.085C344.556 100.449 344.556 100.782 344.496 101.085C344.435 101.448 344.314 101.781 344.132 102.084C341.888 101.842 339.886 101.721 338.127 101.721C336.367 101.66 335.063 101.63 334.214 101.63C333.85 101.63 333.426 101.721 332.94 101.902C332.516 102.023 332.152 102.266 331.849 102.629C331.242 102.75 330.666 102.811 330.12 102.811C329.634 102.811 329.149 102.811 328.664 102.811C328.361 102.629 328.088 102.508 327.845 102.447C327.663 102.326 327.451 102.114 327.208 101.811C326.965 101.569 326.753 101.357 326.571 101.175C326.45 100.994 326.268 100.903 326.025 100.903C325.297 100.903 324.873 100.964 324.751 101.085C324.63 101.145 324.327 101.418 323.842 101.902C323.538 101.963 323.084 102.023 322.477 102.084C321.931 102.145 321.506 102.205 321.203 102.266L319.929 101.175L317.381 101.902C317.139 101.721 317.078 101.6 317.199 101.539C317.321 101.418 317.26 101.327 317.017 101.266C316.896 101.327 316.896 101.266 317.017 101.085C317.139 100.903 317.199 100.751 317.199 100.63L317.108 100.085H316.653L316.472 99.7217L316.29 99.1766L315.744 99.0858L315.835 101.63L315.016 101.811C314.773 101.569 314.561 101.357 314.379 101.175C314.197 100.933 313.985 100.812 313.742 100.812C313.439 100.812 313.165 100.933 312.923 101.175C312.741 101.357 312.529 101.6 312.286 101.902H310.921L309.829 101.993H308.646L309.829 100.721L309.465 100.449L309.647 100.358C309.587 100.358 309.556 100.358 309.556 100.358C309.556 100.297 309.526 100.267 309.465 100.267C309.405 100.267 309.374 100.237 309.374 100.176C309.496 99.8126 309.587 99.4191 309.647 98.9949C309.768 98.5707 309.981 98.2073 310.284 97.9046C310.163 97.6622 309.95 97.4202 309.647 97.1778C309.405 96.8751 309.314 96.5418 309.374 96.1783C309.496 95.209 309.587 94.5429 309.647 94.1795C309.708 93.8161 309.799 93.5134 309.92 93.2709C309.981 93.0892 310.011 92.8467 310.011 92.5441C310.011 92.2414 310.041 91.6355 310.102 90.7269C310.284 90.4242 310.436 90.0302 310.557 89.5458C310.678 89.0006 310.739 88.5765 310.739 88.2738C310.739 87.8496 310.648 87.5469 310.466 87.3652C310.345 87.3045 310.254 87.2744 310.193 87.2744H310.83H311.467C311.891 87.2744 312.104 87.1835 312.104 87.0018L310.648 86.4566L310.83 86.0932V85.7298H310.466C310.284 85.7298 310.163 85.5782 310.102 85.2755C310.102 84.0035 310.102 83.0648 310.102 82.459C310.163 81.8531 310.193 81.3687 310.193 81.0052C310.254 80.6418 310.284 80.2784 310.284 79.915C310.345 79.5515 310.375 78.9457 310.375 78.0978C310.678 77.3102 310.709 76.3414 310.466 75.1904C310.223 74.0394 310.102 73.04 310.102 72.1921C310.102 71.7077 310.193 71.2228 310.375 70.7384C310.557 70.254 310.648 69.7089 310.648 69.103C310.527 67.7703 310.314 66.8316 310.011 66.2864V64.4693C310.314 64.2876 310.648 64.0451 311.012 63.7425C311.376 63.4398 311.649 63.2274 311.831 63.1065C312.377 62.5613 312.65 61.9554 312.65 61.2893C312.65 60.7442 312.407 60.1082 311.922 59.3813C311.497 58.5937 311.042 57.9577 310.557 57.4733C310.557 57.4733 310.496 57.4733 310.375 57.4733C310.314 57.4733 310.254 57.4432 310.193 57.3825V57.2916V57.0191C310.193 55.2019 310.132 53.3848 310.011 51.5676C309.95 49.7505 309.859 47.9334 309.738 46.1162L310.284 45.7528L310.193 45.1168C310.314 44.9351 310.345 44.7231 310.284 44.4808C310.284 44.2385 310.254 43.9659 310.193 43.6631L310.102 42.6637V42.1185L309.283 37.5757L312.923 37.394C313.044 37.2728 313.196 37.2425 313.378 37.3031C313.56 37.3637 313.711 37.4545 313.833 37.5757C313.893 37.6968 314.045 37.9391 314.288 38.3026L314.379 38.4843H314.47L314.743 38.2117C314.864 38.1511 314.985 38.0905 315.107 38.03C315.228 37.9088 315.258 37.6666 315.198 37.3031L321.749 37.394C321.628 38.9688 321.567 40.4831 321.567 41.9368C321.567 43.3299 321.536 44.7231 321.476 46.1162L321.385 46.3888C321.142 46.6916 320.93 46.9642 320.748 47.2065C320.566 47.4488 320.475 47.8122 320.475 48.2968C320.475 48.7814 320.748 49.3568 321.294 50.0231L321.112 52.4762L320.748 52.7488L320.93 53.2031C320.99 53.4455 320.99 53.8391 320.93 54.3842C320.93 54.9293 320.899 55.5046 320.839 56.1105C320.839 56.6556 320.808 57.1707 320.748 57.6551C320.748 58.1394 320.778 58.4426 320.839 58.5636C321.385 59.8964 321.658 61.2592 321.658 62.6522C321.658 63.9849 321.597 65.3779 321.476 66.8316C321.476 66.9526 321.536 67.1042 321.658 67.2859C321.84 67.4068 321.931 67.4977 321.931 67.5584C321.809 67.6794 321.688 67.7703 321.567 67.831C321.324 67.952 321.203 68.0127 321.203 68.0127C321.081 68.2552 320.809 68.467 320.384 68.6487C320.02 68.7697 319.777 68.7697 319.656 68.6487C319.656 68.7095 319.747 68.8304 319.929 69.0121C320.05 69.1331 320.171 69.224 320.293 69.2847C320.414 69.4057 320.596 69.4057 320.839 69.2847C321.082 69.103 321.264 69.0423 321.385 69.103C321.324 69.224 321.294 69.5874 321.294 70.1933C321.294 70.7384 321.294 71.4352 321.294 72.283C321.294 73.1308 321.294 73.9184 321.294 74.6453C321.354 75.3114 321.354 75.7356 321.294 75.9173L320.839 78.0978L320.02 78.4613L319.474 78.3704V78.5521C319.474 78.6129 319.656 78.7639 320.02 79.0064L320.293 79.279C320.778 79.5214 321.021 79.8241 321.021 80.1875C321.081 80.43 321.112 80.6719 321.112 80.9144C321.172 81.0961 321.203 81.3386 321.203 81.6412C321.203 82.0654 321.172 82.6708 321.112 83.4584C321.112 84.246 321.112 85.0637 321.112 85.9115C321.112 86.7593 321.081 87.577 321.021 88.3646C321.021 89.0915 321.021 89.6668 321.021 90.0909C321.021 90.6968 320.869 91.1511 320.566 91.4538C322.325 91.2721 323.902 91.242 325.297 91.3629C326.753 91.4839 328.178 91.4839 329.574 91.3629C329.877 91.5446 330.181 91.6962 330.484 91.8172C330.848 91.878 331.09 91.9081 331.212 91.9081C331.697 91.9081 332.152 91.7871 332.577 91.5446C332.637 91.5446 332.849 91.4839 333.213 91.3629C333.335 91.3629 333.426 91.3328 333.486 91.2721C334.032 91.2721 334.76 91.2721 335.67 91.2721C336.64 91.2721 337.642 91.2721 338.673 91.2721C339.704 91.2721 340.705 91.2721 341.675 91.2721C342.706 91.2721 343.525 91.242 344.132 91.1812C344.253 93.1193 344.253 94.573 344.132 95.5423C344.011 96.5116 343.646 97.3294 343.04 97.9955L344.314 99.0858Z" fill="white"/>
<path d="M397.55 68.9213L394.365 74.827L393.91 74.191L393.728 74.3727L392.636 73.0099C392.151 75.4329 391.271 77.8253 389.998 80.1876C388.724 82.4891 387.268 84.7304 385.63 86.911C383.992 89.0915 382.263 91.242 380.444 93.3618C378.685 95.4214 377.047 97.4202 375.53 99.3583L374.984 99.1766C374.135 101.418 372.892 103.386 371.254 105.082L368.797 104.991L368.069 102.993L366.977 104.81C364.612 101.478 362.276 98.1772 359.971 94.9064C357.727 91.6355 355.452 88.2738 353.147 84.8213L353.875 84.2761L355.058 84.5487L355.149 84.1853C355.149 83.9428 355.119 83.7611 355.058 83.6401C355.058 83.4584 354.997 83.2466 354.876 83.0041L351.418 82.459C350.993 81.9746 350.63 81.4596 350.326 80.9144C350.023 80.3693 349.72 79.8241 349.416 79.279C349.053 79.158 348.567 78.9156 347.961 78.5521C347.415 78.1887 346.869 77.7645 346.323 77.2802C345.777 76.7958 345.261 76.3108 344.776 75.8264C344.351 75.2813 344.018 74.827 343.775 74.4636L343.866 72.919L343.775 71.1019C343.229 71.647 342.501 72.0105 341.591 72.1922L339.681 69.739L341.227 68.0128C341.409 68.0128 341.47 67.952 341.409 67.831C341.349 67.7101 341.258 67.6192 341.137 67.5585C342.653 65.6204 344.23 63.6215 345.868 61.5619C347.567 59.5023 349.538 58.0486 351.782 57.2008L351.418 56.9282L350.781 55.5654C352.298 53.6273 353.754 51.6585 355.149 49.6597C356.544 47.6003 357.909 45.5105 359.243 43.3906L361.154 43.0271L361.973 40.574C362.883 39.7866 363.702 38.9386 364.43 38.03C365.218 37.1215 366.037 36.2129 366.886 35.3043H367.25C367.796 35.3043 368.221 35.5163 368.524 35.9403L368.706 35.3043H370.708C371.982 36.6974 373.256 38.2117 374.529 39.8472C375.803 41.422 377.047 43.0574 378.26 44.7534C379.473 46.4494 380.596 48.1757 381.627 49.9323C382.718 51.6888 383.658 53.3848 384.447 55.0202C384.083 55.1412 383.719 55.202 383.355 55.202C382.991 55.1412 382.658 55.1111 382.354 55.1111C382.294 55.1111 382.263 55.2321 382.263 55.4745C382.263 55.7772 382.294 56.0804 382.354 56.3831C382.415 56.6255 382.476 56.8981 382.536 57.2008L386.267 56.5648C386.752 56.989 386.995 57.5035 386.995 58.1094C386.995 58.6545 387.147 59.1996 387.45 59.7448C387.996 59.8055 388.603 60.1383 389.27 60.7442C389.998 61.2894 390.665 61.9254 391.271 62.6522C391.878 63.3791 392.363 64.136 392.727 64.9236C393.152 65.7112 393.334 66.3166 393.273 66.7408C393.94 67.1649 394.608 67.5886 395.275 68.0128C396.003 68.4369 396.761 68.7396 397.55 68.9213ZM384.538 71.011L383.264 71.1019C382.779 70.7385 382.688 70.375 382.991 70.0116V69.2848H382.809C382.324 68.3154 381.748 67.4069 381.081 66.559C380.414 65.7112 379.716 64.8935 378.988 64.1059C378.26 63.2581 377.532 62.4404 376.804 61.6528C376.137 60.805 375.53 59.9265 374.984 59.0179C374.681 58.5335 374.408 57.9578 374.165 57.2917C373.923 56.6255 373.65 55.9589 373.347 55.2928C373.043 54.6267 372.679 54.0208 372.255 53.4757C371.891 52.9305 371.406 52.5671 370.799 52.3854C370.253 51.7191 369.738 51.0528 369.252 50.3865C368.767 49.6597 368.281 48.9631 367.796 48.2968C366.826 49.69 366.067 51.0528 365.522 52.3854C364.976 53.7181 364.036 54.9901 362.701 56.2014H361.245L361.791 57.1099L361.336 58.5637L361.063 58.1094C360.942 58.1094 360.911 58.2303 360.972 58.4728C361.033 58.6545 361.063 58.7755 361.063 58.8362C361.063 58.9572 360.942 59.0179 360.699 59.0179C360.517 58.9572 360.365 58.9271 360.244 58.9271C359.941 58.9271 359.668 58.8061 359.425 58.5637C359.243 58.3212 359.061 58.1395 358.879 58.0185C359 58.4427 359.122 58.8663 359.243 59.2905C359.364 59.7147 359.425 60.169 359.425 60.6534C359.425 61.2592 359.213 61.7436 358.788 62.1071C358.364 62.4705 357.878 62.8339 357.333 63.1973C356.847 63.5608 356.362 63.9849 355.877 64.4693C355.452 64.9537 355.21 65.6505 355.149 66.559L352.328 69.0122C352.571 69.1939 352.935 69.4966 353.42 69.9208C353.966 70.3449 354.482 70.8293 354.967 71.3745C355.513 71.8589 355.968 72.3438 356.332 72.8282C356.696 73.3126 356.878 73.7066 356.878 74.0093L356.787 74.1002L356.878 74.0093C356.999 75.0996 357.333 76.1899 357.878 77.2802C358.485 78.3097 359.334 79.0064 360.426 79.3699C360.79 79.915 361.245 80.672 361.791 81.6413C362.398 82.5498 363.035 83.4885 363.702 84.4578C364.369 85.4271 365.036 86.3051 365.704 87.0927C366.371 87.8803 366.977 88.3346 367.523 88.4555L367.432 89.2732C367.432 89.7576 367.584 90.0302 367.887 90.091C368.251 90.1517 368.615 90.2426 368.979 90.3635C370.132 88.6071 371.345 86.9717 372.619 85.4573C373.893 83.8826 375.075 82.1864 376.167 80.3693L382.082 78.4613C381.778 78.2796 381.475 78.128 381.172 78.007C380.929 77.8253 380.656 77.6737 380.353 77.5527L380.444 77.2802C380.444 77.1592 380.383 77.1286 380.262 77.1893C380.141 77.25 380.05 77.2802 379.989 77.2802L379.625 77.0984C379.686 76.5533 379.898 76.0082 380.262 75.463C380.626 74.8571 381.05 74.2819 381.536 73.7367C382.081 73.1916 382.627 72.6766 383.173 72.1922C383.719 71.7078 384.174 71.3137 384.538 71.011Z" fill="white"/>
<path d="M411.003 55.1111C410.518 55.1718 410.154 55.232 409.912 55.2928C409.669 55.3535 409.305 55.3535 408.82 55.2928L407.182 53.6574C407.06 53.6574 407.03 53.7482 407.091 53.9299C407.212 54.1117 407.303 54.3235 407.364 54.5659C407.485 54.8084 407.576 55.0202 407.637 55.2019C407.697 55.3836 407.697 55.4745 407.637 55.4745C407.333 55.1718 407.121 54.9595 407 54.8385C406.878 54.7175 406.605 54.7175 406.181 54.8385C405.635 54.4143 405.119 54.2025 404.634 54.2025C404.209 54.2025 404.088 54.3235 404.27 54.5659C404.452 54.7477 404.391 54.9901 404.088 55.2928H402.269C402.269 53.8998 402.299 52.8095 402.36 52.0219C402.42 51.1739 402.542 50.0836 402.723 48.7511C402.845 48.3271 402.996 47.9637 403.178 47.6608C403.36 47.2974 403.451 46.8431 403.451 46.298C403.451 45.9951 403.33 45.6922 403.087 45.3894C402.905 45.026 402.815 44.7837 402.815 44.6626V44.5717C402.875 43.1785 402.814 42.0277 402.633 41.1191C402.511 40.15 402.572 38.9991 402.815 37.6666C402.875 37.2426 402.996 36.8791 403.178 36.5763C403.36 36.2129 403.451 35.7586 403.451 35.2134C403.451 34.9106 403.36 34.6077 403.178 34.3049C402.996 33.9415 402.905 33.6992 402.905 33.578V32.4877H404.725L405.18 35.3043L405.726 32.306L410.367 32.4877C410.306 32.73 410.306 33.0329 410.367 33.3963C410.488 33.7597 410.549 34.0626 410.549 34.3049C410.549 34.5471 410.458 34.7592 410.276 34.9409C410.094 35.062 409.881 35.2134 409.639 35.3952C409.457 35.5163 409.305 35.6374 409.184 35.7586C409.062 35.8797 409.062 36.0312 409.184 36.2129L410.549 36.8489C410.427 37.0306 410.367 37.2728 410.367 37.5757C410.367 37.818 410.397 38.1209 410.457 38.4843C410.518 38.7871 410.549 39.09 410.549 39.3929C410.549 39.6351 410.488 39.8471 410.367 40.0289C409.881 40.6951 409.669 41.1494 409.73 41.3917C409.79 41.634 410.033 42.0277 410.457 42.5728V44.39H410.367C410.427 44.6322 410.457 44.9654 410.457 45.3894C410.457 45.5711 410.367 45.7528 410.185 45.9345C410.003 46.1163 409.821 46.298 409.639 46.4797C409.457 46.6008 409.305 46.7219 409.184 46.8431C409.062 46.9642 409.062 47.1157 409.184 47.2974L410.457 47.9334C410.336 48.1151 410.276 48.3574 410.276 48.6602C410.336 48.9025 410.397 49.2054 410.457 49.5688C410.518 49.8717 410.549 50.1745 410.549 50.4774C410.549 50.7197 410.488 50.9317 410.367 51.1134C409.881 51.7796 409.73 52.2644 409.912 52.5671C410.154 52.8095 410.488 53.2031 410.912 53.7482L411.003 55.1111Z" fill="white"/>
<path d="M456.978 30.9431C456.857 33.0631 456.766 35.1831 456.705 37.3031C456.645 39.3625 456.554 41.4522 456.432 43.5722C456.129 44.0568 455.917 44.6019 455.796 45.2076C455.674 45.8133 455.614 46.3282 455.614 46.7522C455.614 46.8733 455.674 47.1762 455.796 47.6608C455.917 48.1453 456.038 48.539 456.16 48.8419C456.038 50.8407 455.917 52.8396 455.796 54.8384C455.735 56.8373 455.705 58.8663 455.705 60.9258C455.28 61.7737 454.977 62.6521 454.795 63.5607C454.674 64.4693 454.613 65.3477 454.613 66.1955C454.613 66.6799 454.582 67.2557 454.522 67.9218C454.522 68.5879 454.552 69.2847 454.613 70.0115C454.674 70.6776 454.734 71.3443 454.795 72.0104C454.916 72.6163 455.128 73.1308 455.432 73.5549V74.4635L455.341 75.1904C454.674 75.5538 454.037 76.0382 453.43 76.6441C452.884 77.1892 452.611 77.8553 452.611 78.6429C452.611 78.9456 452.641 79.309 452.702 79.7332C452.823 80.1574 453.036 80.5509 453.339 80.9143C453.582 81.4595 454.006 81.8837 454.613 82.1863L454.886 82.5498C455.128 82.6707 455.31 82.8524 455.432 83.0949C455.432 85.3362 455.462 87.577 455.523 89.8183C455.644 91.9989 455.765 94.2095 455.887 96.4508L455.25 96.8143L455.341 97.7228C455.341 97.9046 455.28 98.0562 455.159 98.1771C455.159 98.2981 455.128 98.4196 455.068 98.5406C455.068 98.6615 455.007 98.904 454.886 99.2674C455.31 99.5701 455.644 99.8125 455.887 99.9943C456.19 100.176 456.493 100.328 456.796 100.449C456.432 101.054 455.917 102.084 455.25 103.538H456.523C456.523 103.719 456.493 104.144 456.432 104.81C456.432 105.476 456.432 106.173 456.432 106.899C456.432 107.626 456.432 108.292 456.432 108.898C456.432 109.564 456.432 109.989 456.432 110.17L453.976 109.989L448.062 104.628L448.516 101.266H448.152C448.031 101.266 447.88 101.266 447.698 101.266C447.576 101.266 447.455 101.296 447.334 101.357V101.721H446.515C446.212 102.023 445.999 102.296 445.878 102.538L444.786 101.085C444.483 100.842 444.058 100.57 443.512 100.267C443.026 99.9034 442.541 99.5701 442.056 99.2674C441.631 98.9647 441.267 98.6922 440.964 98.4497C440.661 98.2072 440.509 97.9954 440.509 97.8137C440.57 97.511 440.449 97.2987 440.145 97.1777C439.903 97.0567 439.6 96.9659 439.236 96.9051C438.872 96.7842 438.508 96.6326 438.144 96.4508C437.841 96.2691 437.689 95.9664 437.689 95.5423C437.386 95.1788 436.87 94.7853 436.142 94.3611C435.414 93.8767 434.959 93.4526 434.777 93.0891C434.11 92.665 433.594 92.2714 433.23 91.908C432.866 91.5446 432.533 91.1812 432.229 90.8177C431.926 90.3936 431.593 90 431.229 89.6366C430.925 89.2124 430.471 88.7888 429.864 88.3646C429.742 88.3038 429.53 88.213 429.227 88.092C428.924 87.9711 428.62 87.8496 428.317 87.7286C427.953 87.5469 427.558 87.3953 427.134 87.2743L428.681 86.3657C428.438 86.2448 428.165 85.9722 427.862 85.548C427.619 85.1239 427.437 84.8819 427.316 84.8212L423.858 83.5492V81.5503L421.038 80.7326L418.945 78.7338C418.763 78.4311 418.824 78.0978 419.127 77.7344C419.43 77.3709 419.794 77.0376 420.219 76.7349C420.643 76.3715 421.008 76.0382 421.311 75.7355C421.675 75.4328 421.736 75.1296 421.493 74.8269L424.677 75.0995C423.343 73.5851 423.677 72.1313 425.678 70.7384L426.861 69.9207C427.892 70.8292 428.742 71.6168 429.409 72.283C430.076 72.8888 430.47 73.2523 430.592 73.3732C430.834 73.9184 431.289 74.3727 431.956 74.7361C432.624 75.0388 433.533 75.7054 434.686 76.7349C434.807 76.7957 434.807 76.9468 434.686 77.1892C434.625 77.4317 434.534 77.7042 434.413 78.0069C434.292 78.3096 434.17 78.6128 434.049 78.9155C433.988 79.1579 434.019 79.3397 434.14 79.4606L437.325 79.5515C437.204 79.7332 437.325 79.9757 437.689 80.2783C438.053 80.5208 438.447 80.7934 438.872 81.0961C439.296 81.3385 439.691 81.6111 440.054 81.9138C440.479 82.1562 440.691 82.3982 440.691 82.6406C440.691 82.7014 440.873 82.8831 441.237 83.1858C441.601 83.4884 441.995 83.8218 442.42 84.1852C442.905 84.5486 443.33 84.912 443.694 85.2755C444.058 85.5781 444.24 85.7599 444.24 85.8206C444.3 85.8206 444.331 85.7905 444.331 85.7297C444.331 85.3663 444.3 85.033 444.24 84.7303C444.179 84.3669 444.149 84.0336 444.149 83.7309V83.0949C444.088 83.0949 444.058 83.0342 444.058 82.9132V82.7315C444.058 82.7922 444.058 82.8524 444.058 82.9132C444.118 82.9739 444.149 83.0342 444.149 83.0949C444.21 83.1556 444.27 83.004 444.331 82.6406C444.452 82.2164 444.574 81.217 444.695 79.6423L444.149 77.1892L445.787 72.4647C445.18 73.0705 444.695 73.4942 444.331 73.7367C444.028 73.9791 443.785 74.07 443.603 74.0092C443.481 73.9485 443.633 73.5248 444.058 72.7372C443.997 72.6163 443.967 72.2528 443.967 71.6469C444.027 70.9808 444.058 70.5868 444.058 70.4658C444.058 70.4051 444.088 70.3142 444.149 70.1932C444.27 70.0115 444.391 69.8298 444.513 69.6481C444.634 69.4664 444.725 69.3148 444.786 69.1938C444.907 69.0121 444.937 68.9212 444.877 68.9212L443.603 69.103L443.33 58.5636L443.512 58.291C443.694 57.6851 443.785 57.2916 443.785 57.1099C443.845 56.9889 443.876 56.8072 443.876 56.5647L443.239 56.2013L443.967 56.2922C444.027 55.9895 444.027 55.747 443.967 55.5653C443.967 55.3836 443.967 55.2019 443.967 55.0202C443.906 54.7175 443.936 54.596 444.058 54.6567C444.24 54.7175 444.331 54.596 444.331 54.2933C444.331 53.2638 444.422 52.2643 444.604 51.295C444.786 50.2653 444.877 49.2356 444.877 48.2059C444.877 47.6002 444.725 47.055 444.422 46.5705C444.179 46.0859 443.906 45.6619 443.603 45.2985C443.603 44.6322 443.572 43.9659 443.512 43.2996C443.512 42.5728 443.481 41.8762 443.421 41.2099C443.724 40.5436 444.028 39.9379 444.331 39.3928C444.634 38.7871 444.786 38.0905 444.786 37.3031C444.786 36.3945 444.604 35.5465 444.24 34.7591C443.876 33.9717 443.451 33.2448 442.966 32.5785C442.966 32.2756 442.935 32.0031 442.875 31.7608C442.875 31.5185 442.875 31.246 442.875 30.9431H447.88C448.183 31.246 448.486 31.4277 448.789 31.4883C449.093 31.5488 449.365 31.5791 449.608 31.5791C449.729 31.5791 449.82 31.5791 449.881 31.5791C449.942 31.5185 450.033 31.4579 450.154 31.3974V31.1248V31.034C450.397 30.9734 450.579 30.9734 450.7 31.034C450.761 31.2762 450.761 31.4277 450.7 31.4883C451.003 31.8517 451.276 32.0637 451.519 32.1243C451.762 32.1243 452.035 32.1243 452.338 32.1243C453.187 32.1243 453.946 31.7305 454.613 30.9431H456.978ZM444.058 56.2922H443.967L443.876 56.5647H443.967L444.058 56.2922Z" fill="white"/>
<path d="M509.082 101.721L505.169 101.811C504.563 101.811 503.956 101.63 503.35 101.266L502.531 101.448L501.166 100.812C500.438 101.054 499.892 101.418 499.528 101.902C498.679 101.902 497.83 101.993 496.98 102.175C496.131 102.296 495.313 102.357 494.524 102.357C494.039 102.357 493.736 102.054 493.614 101.448H493.068C492.826 101.448 492.462 101.6 491.976 101.902C491.491 102.205 491.006 102.357 490.52 102.357C489.004 102.236 487.487 102.175 485.971 102.175C484.455 102.175 483.545 102.175 483.241 102.175C482.756 102.175 482.392 102.114 482.149 101.993C481.967 101.811 481.785 101.63 481.603 101.448C481.482 101.266 481.391 101.115 481.33 100.994C481.27 100.873 481.179 100.812 481.057 100.812C480.208 100.873 479.511 101.236 478.965 101.902C478.48 102.568 477.964 103.386 477.418 104.355L477.145 101.266L476.235 102.084L474.415 102.447L474.142 102.902L473.414 102.538C473.657 102.175 473.566 101.932 473.141 101.811C472.717 101.69 472.171 101.63 471.504 101.63C470.897 101.63 470.291 101.66 469.684 101.721C469.078 101.721 468.683 101.721 468.501 101.721L468.592 98.7223L470.412 96.7235C470.291 96.5417 470.169 96.2692 470.048 95.9058C469.927 95.4816 469.806 95.088 469.684 94.7246C469.563 94.3612 469.442 94.0585 469.32 93.816C469.26 93.5134 469.169 93.3618 469.047 93.3618C469.169 91.4236 469.199 89.485 469.138 87.5469C469.138 85.6088 469.199 83.6702 469.32 81.7321C469.745 81.187 470.2 80.6418 470.685 80.0967C471.231 79.5515 471.504 78.8854 471.504 78.0978C471.504 77.4317 471.261 76.9468 470.776 76.6441C470.351 76.2807 469.896 75.9474 469.411 75.6447C469.411 74.2517 469.502 72.8889 469.684 71.5561C469.927 70.2234 470.048 68.8912 470.048 67.5584C470.048 65.1962 469.957 62.8038 469.775 60.3808C469.593 57.9577 469.502 55.5046 469.502 53.0214C469.502 52.7187 469.533 52.4155 469.593 52.1128C469.715 51.8099 469.715 51.4768 469.593 51.1134C469.897 50.8711 470.26 50.7499 470.685 50.7499C471.17 50.7499 471.413 50.5682 471.413 50.2048L470.958 49.9322L469.411 48.9328C469.411 47.6002 469.351 46.298 469.229 45.026C469.169 43.754 469.108 42.482 469.047 41.21L469.411 41.0283C469.472 40.0591 469.533 39.3928 469.593 39.0294C469.715 38.6054 469.866 38.3328 470.048 38.2117C470.291 38.0905 470.594 38.03 470.958 38.03C471.382 37.9694 471.928 37.8483 472.595 37.6666C472.717 37.7877 472.899 38.03 473.141 38.3934C473.445 38.7568 473.596 38.9688 473.596 39.0294C475.052 37.9391 476.842 37.4849 478.965 37.6666L479.693 38.666L479.602 38.9386C479.723 38.9386 479.905 39.2717 480.148 39.938C480.451 40.5437 480.633 40.9071 480.693 41.0283C480.39 41.5128 480.117 41.9368 479.875 42.3003C479.632 42.6031 479.511 43.0271 479.511 43.5723C479.511 44.0568 479.602 44.6322 479.784 45.2985C479.966 45.9648 480.178 46.4797 480.421 46.8431C480.36 47.5094 480.33 48.0545 480.33 48.4785C480.33 48.9025 480.299 49.3265 480.239 49.7505C480.239 50.1745 480.148 50.6288 479.966 51.1134C479.844 51.5373 479.602 52.052 479.238 52.6579L479.42 53.4756L479.511 53.5665L479.602 53.6574C479.784 54.3842 479.905 55.2627 479.966 56.2922C480.026 57.2615 480.057 58.291 480.057 59.3813C480.117 60.4716 480.148 61.5318 480.148 62.5613C480.148 63.5909 480.148 64.4994 480.148 65.287C480.148 66.3773 480.087 67.5885 479.966 68.9213C479.844 70.1933 479.723 71.4954 479.602 72.8281C479.48 74.1001 479.42 75.3721 479.42 76.6441C479.42 77.8554 479.511 78.9763 479.693 80.0058H478.601L480.148 81.6412C479.905 83.2159 479.784 84.5788 479.784 85.7298C479.784 86.8201 479.693 88.1528 479.511 89.7275C479.389 90.8785 479.541 91.6054 479.966 91.908C480.451 92.1505 480.875 92.2715 481.239 92.2715C481.725 92.0898 482.119 92.029 482.422 92.0898C482.726 92.0898 483.12 91.9989 483.605 91.8172L485.152 92.6349L485.334 92.8166L487.063 92.2715L488.518 93.5435L489.064 92.4532L489.974 93.3618C490.824 92.8166 491.673 92.544 492.522 92.544L492.795 92.2715C493.281 92.1505 493.796 92.0898 494.342 92.0898C494.888 92.029 495.373 92.1199 495.798 92.3623L497.162 90.9995V77.0075C497.162 76.6441 497.162 75.9173 497.162 74.827C497.223 73.7367 497.284 72.5857 497.344 71.3744C497.466 70.1024 497.617 68.982 497.799 68.0127C497.981 66.9832 498.194 66.3773 498.436 66.1956L496.798 64.1967L497.435 63.1065L496.98 60.835C497.284 60.6533 497.617 60.5625 497.981 60.5625C498.345 60.5017 498.618 60.32 498.8 60.0173L498.709 59.4722V59.563L498.891 58.6545H497.617C497.617 58.4728 497.526 58.291 497.344 58.1093C497.162 57.9276 497.011 57.776 496.889 57.6551C496.829 55.7169 496.829 53.7783 496.889 51.8402C496.95 49.9019 496.92 47.9636 496.798 46.0254L497.344 45.7528L497.162 45.026C497.344 44.8442 497.466 44.4505 497.526 43.8448C497.587 43.1785 497.648 42.5728 497.708 42.0277C497.405 41.7248 497.071 41.4523 496.707 41.21C496.404 40.9071 496.192 40.7254 496.071 40.6648L497.435 37.2123C498.467 37.2123 499.559 37.2425 500.711 37.3031C501.864 37.3637 502.956 37.4243 503.987 37.4848L505.169 40.3923L506.17 37.5757L508.081 38.9386L507.899 46.1162C507.657 46.4191 507.444 46.7825 507.262 47.2065C507.141 47.57 507.02 47.9334 506.898 48.2968C507.323 49.1448 507.566 49.8414 507.626 50.3865C507.748 50.9317 507.808 51.6282 507.808 52.4762C507.808 53.5058 507.717 54.5052 507.535 55.4745C507.353 55.7169 507.202 55.868 507.08 55.9288C507.02 55.9895 506.959 56.0497 506.898 56.1105C506.898 56.1105 506.929 56.1406 506.989 56.2013C507.111 56.2621 507.262 56.4132 507.444 56.6556C507.444 57.3825 507.384 58.1394 507.262 58.927C507.141 59.6539 506.989 60.3808 506.807 61.1076L507.717 59.8356C507.657 62.743 507.657 65.6504 507.717 68.5579C507.839 71.4653 507.899 74.4028 507.899 77.371C507.899 77.6134 507.839 77.886 507.717 78.1887C507.657 78.4311 507.566 78.6731 507.444 78.9155H506.807C507.232 79.3999 507.475 80.1268 507.535 81.0961C507.657 82.0047 507.717 83.0342 507.717 84.1852C507.717 85.2755 507.717 86.3959 507.717 87.5469C507.717 88.6372 507.839 89.5759 508.081 90.3635L506.17 88.8189C506.898 89.8485 507.293 90.9995 507.353 92.2715C507.414 93.4827 507.444 94.6945 507.444 95.9058C507.444 96.5719 507.566 97.2385 507.808 97.9046C508.112 98.5707 508.476 99.1766 508.9 99.7217L509.082 101.721ZM498.163 42.7545C498.163 42.6334 498.103 42.5122 497.981 42.3911L498.072 42.8454L498.163 42.7545Z" fill="white"/>
<path d="M651.772 55.1785L650.025 58.0444L644.41 62.5301L637.796 68.1373C637.048 68.2204 635.924 68.6772 634.427 69.5079C632.93 70.3386 631.183 71.4185 629.186 72.7476C627.273 73.9936 625.193 75.4474 622.947 77.1087C620.784 78.687 618.663 80.3069 616.583 81.9683C614.503 83.6297 612.59 85.208 610.843 86.7032C609.096 88.1154 607.723 89.3199 606.725 90.3167C605.893 90.1506 604.936 90.3167 603.855 90.8151C602.857 91.2305 601.941 91.4381 601.11 91.4381L601.484 101.531C601.484 101.78 601.193 102.486 600.61 103.649C600.111 104.729 599.862 105.768 599.862 106.764C599.862 107.927 600.194 108.758 600.86 109.256C601.525 109.672 602.191 110.336 602.857 111.25L602.108 115.237L596.742 115.487C596.576 115.487 596.285 115.404 595.869 115.237C595.453 115.071 594.953 114.864 594.371 114.614C593.872 114.365 593.373 114.158 592.874 113.991C592.458 113.742 592.167 113.576 592 113.493L590.004 115.113H586.51C585.927 115.694 585.511 115.985 585.262 115.985C585.095 116.068 584.555 116.027 583.64 115.86C583.64 112.538 583.806 109.256 584.139 106.017C584.472 102.694 584.846 99.4128 585.262 96.1731C585.511 96.1731 585.636 95.9654 585.636 95.5501C585.636 95.1347 585.553 94.6778 585.387 94.1794C585.303 93.5979 585.179 93.058 585.012 92.5596C584.929 91.9781 584.888 91.5212 584.888 91.1889C584.888 85.0418 584.971 79.0193 585.137 73.1214C585.387 67.2235 585.47 61.201 585.387 55.0539C586.302 54.5555 586.801 54.0155 586.884 53.4341C587.05 52.7695 587.134 51.8557 587.134 50.6928C587.134 50.3605 587.092 49.9036 587.009 49.3221C586.926 48.6576 586.759 47.993 586.51 47.3285C586.343 46.5809 586.135 45.9578 585.886 45.4594C585.636 44.8779 585.387 44.4626 585.137 44.2134L584.638 30.6316C584.887 30.6316 585.054 30.4239 585.137 30.0086C585.303 29.5102 585.47 28.9702 585.636 28.3887C585.803 27.7242 585.969 27.1012 586.135 26.5197C586.385 25.8551 586.718 25.3567 587.134 25.0244L584.388 23.4046L586.759 18.1712L586.135 5.46167L587.383 5.71088C588.881 6.95691 590.378 8.20295 591.875 9.44899C593.456 10.695 594.87 11.7749 596.118 12.6887C597.449 13.6024 598.572 14.267 599.487 14.6823C600.402 15.0977 600.943 15.0977 601.11 14.6823L606.101 20.6633L610.593 22.5324L626.316 36.9864C627.398 37.6509 628.521 38.4401 629.685 39.3538C630.933 40.2676 632.223 41.2229 633.554 42.2197C634.885 43.2166 636.257 44.1719 637.671 45.0856C639.086 45.9994 640.542 46.7055 642.039 47.2039L639.918 50.942C639.918 51.5235 640.25 51.7311 640.916 51.565C641.581 51.3989 642.33 51.1912 643.162 50.942C644.077 50.6928 644.867 50.5266 645.533 50.4436C646.198 50.3605 646.531 50.6097 646.531 51.1912C647.363 51.7727 647.904 52.2296 648.153 52.5618C648.403 52.811 649.027 53.0187 650.025 53.1848L651.772 55.1785ZM627.689 56.5491L625.193 55.4277C623.779 54.7632 622.656 53.8494 621.824 52.6864C621.075 51.4404 620.784 50.6097 620.95 50.1944H619.827C618.829 49.2806 617.664 48.4084 616.333 47.5777C615.085 46.6639 613.754 45.7917 612.34 44.961C611.009 44.0473 609.72 43.1335 608.472 42.2197C607.224 41.306 606.226 40.3507 605.477 39.3538C604.396 37.9417 603.48 36.7372 602.732 35.7403C601.983 34.7435 600.985 33.5805 599.737 32.2514C599.321 32.3345 599.03 32.6253 598.863 33.1237C598.78 33.6221 598.905 33.9959 599.238 34.2451C599.654 34.8266 600.028 35.4496 600.361 36.1142C600.777 36.7787 600.985 37.3602 600.985 37.8586C600.985 38.9385 600.818 39.7277 600.486 40.2261C600.153 40.6414 599.778 41.0568 599.363 41.4721C599.03 41.8044 598.697 42.2197 598.364 42.7181C598.115 43.1335 597.99 43.8811 597.99 44.961C597.99 45.3764 598.115 45.5425 598.364 45.4594C598.614 45.3764 598.905 45.2517 599.238 45.0856C599.654 44.9195 600.028 44.8364 600.361 44.8364C600.777 44.7533 601.11 44.8779 601.359 45.2102C601.525 45.6256 601.567 46.124 601.484 46.7055C601.484 47.2869 601.484 47.7854 601.484 48.2007C601.484 47.8684 601.193 48.1176 600.61 48.9483C600.111 49.6959 599.529 50.6097 598.863 51.6896C598.198 52.6864 597.616 53.6417 597.116 54.5555C596.617 55.4692 596.451 55.8015 596.617 55.5523C596.534 55.8015 596.659 55.8015 596.992 55.5523C597.408 55.22 597.865 54.8878 598.364 54.5555C598.863 54.1401 599.321 53.8079 599.737 53.5587C600.153 53.2264 600.361 53.2264 600.361 53.5587C600.361 56.0507 600.361 58.2936 600.361 60.2873C600.361 62.2809 600.361 64.2746 600.361 66.2682C600.361 68.1788 600.361 70.1725 600.361 72.2492C600.361 74.2429 600.402 76.4857 600.486 78.9778C600.652 78.7286 600.902 78.2717 601.234 77.6071C601.65 76.8595 602.066 76.1119 602.482 75.3643C602.981 74.6167 603.397 73.9521 603.73 73.3706C604.146 72.7061 604.437 72.3323 604.603 72.2492C605.519 71.6677 607.016 70.7955 609.096 69.6325C611.259 68.4696 613.422 67.2235 615.585 65.8944C617.747 64.4822 619.661 63.0701 621.325 61.6579C622.988 60.2457 623.82 58.9581 623.82 57.7952L627.689 56.5491Z" fill="white"/>
<path d="M526.819 105.446C525.79 105.264 524.667 105.022 523.455 104.719C522.244 104.355 521.152 104.022 520.18 103.719L519.36 102.629L517.359 103.356L515.175 101.63C515.721 99.5099 516.327 97.2385 516.995 94.8155C517.662 92.3925 518.541 90.2119 519.633 88.2738L519.542 86.4567C519.481 85.1239 519.785 83.5493 520.45 81.7321C521.121 79.915 521.849 78.0677 522.634 76.1899C523.424 74.312 524.064 72.5255 524.547 70.8293C525.093 69.0729 525.182 67.5886 524.818 66.3773L525.275 64.5602C526.123 64.3177 526.793 64.0452 527.277 63.7425C527.76 63.4398 528.005 62.8038 528.005 61.8345C528.005 61.2286 527.854 60.6534 527.547 60.1082C527.246 59.5631 526.975 59.0481 526.731 58.5637C527.157 56.4438 527.547 54.2934 527.911 52.1128C528.275 49.9323 528.67 47.782 529.097 45.662C529.216 45.7225 529.341 45.6317 529.461 45.3894C529.643 45.1471 529.793 44.8745 529.913 44.5717C530.038 44.2688 530.188 43.966 530.37 43.6631C530.552 43.2997 530.766 43.0574 531.005 42.9363L530.916 41.846C530.49 41.6037 530.251 41.1192 530.188 40.3923C530.188 39.6049 530.188 38.9991 530.188 38.5752C530.188 38.3329 530.308 37.8786 530.552 37.2123C530.797 36.546 530.948 36.0614 531.005 35.7586C531.494 35.8192 531.977 35.8192 532.461 35.7586C532.949 35.698 533.402 35.5466 533.828 35.3043C534.072 36.0312 534.405 36.9094 534.826 37.9392C535.315 38.9083 535.736 39.938 536.1 41.0283C536.526 42.1186 536.828 43.1785 537.01 44.2083C537.254 45.1774 537.254 46.0254 537.01 46.7523C537.072 46.8128 537.317 47.3883 537.738 48.4786C538.164 49.5688 538.679 50.962 539.287 52.658C539.953 54.2934 540.65 56.1406 541.378 58.2002C542.105 60.1991 542.807 62.1372 543.473 64.0151C544.201 65.8929 544.835 67.5886 545.381 69.103C545.989 70.6175 546.416 71.6771 546.655 72.283C546.837 71.7986 547.175 70.8901 547.658 69.5573C548.142 68.2246 548.631 66.8617 549.114 65.4688C549.598 64.0151 550.086 62.713 550.57 61.5619C551.054 60.4109 551.386 59.7448 551.568 59.5631C551.631 59.1389 551.781 58.3518 552.026 57.2008C552.27 55.9896 552.541 54.7477 552.842 53.4757C553.206 52.1429 553.544 50.9317 553.846 49.8414C554.21 48.7511 554.542 48.0848 554.844 47.8426L554.662 47.9334C554.969 46.8431 555.333 45.8134 555.754 44.8443C556.18 43.8751 556.575 42.906 556.939 41.9369C557.303 40.9071 557.605 39.8774 557.849 38.8477C558.151 37.7575 558.364 36.6066 558.483 35.3952L561.853 35.6677C562.154 37.0609 562.367 38.5146 562.487 40.0289C562.612 41.4826 562.669 42.906 562.669 44.2991C562.669 45.9951 562.913 47.782 563.397 49.6597C563.943 51.5374 564.52 53.4456 565.128 55.3837C565.737 57.3218 566.282 59.2905 566.766 61.2894C567.312 63.2275 567.582 65.1355 567.582 67.0133C567.582 67.4977 567.645 68.1337 567.764 68.9213C567.889 69.7089 568.071 70.5266 568.31 71.3745C568.555 72.2223 568.799 73.04 569.038 73.8276C569.345 74.5544 569.678 75.0996 570.042 75.463L570.406 77.0984C569.979 77.5226 569.646 78.007 569.402 78.5521C569.22 79.0973 569.069 79.6424 568.95 80.1876L569.86 81.7321C570.224 81.9138 570.588 82.1257 570.951 82.3681C571.315 82.6106 571.648 82.8832 571.95 83.1858C572.439 85.1239 572.922 87.0319 573.406 88.9098C573.952 90.727 574.56 92.5441 575.225 94.3612L575.407 94.5429C575.532 94.7854 575.532 95.058 575.407 95.3606C575.35 95.6031 575.319 95.7848 575.319 95.9058L575.589 96.0875C575.532 96.5719 575.288 96.7235 574.861 96.5418L573.952 95.9966C573.53 96.3601 573.499 96.7536 573.863 97.1778C573.983 97.1778 574.196 97.2079 574.497 97.2686C574.861 97.3294 575.017 97.4202 574.955 97.5412C574.893 97.6622 574.804 97.7837 574.679 97.9046C574.56 97.9654 574.497 98.0562 574.497 98.1772C574.497 98.6616 574.773 98.9648 575.319 99.0858C575.927 99.2067 576.473 99.3885 576.957 99.6309L577.955 102.266L565.581 105.355C565.279 104.204 565.035 103.114 564.853 102.084C564.671 101.055 564.338 99.9642 563.854 98.8132L564.218 97.7229L563.761 96.7235L564.764 95.4515H565.856L567.494 94.0887L566.22 93.1801L565.31 94.8155L564.307 94.6338C564.369 94.2704 564.4 93.9069 564.4 93.5435C564.463 93.1801 564.489 92.8468 564.489 92.5441C564.125 92.3016 563.735 92.0898 563.308 91.9081C562.944 91.6656 562.612 91.3931 562.305 91.0904C562.367 90.6662 562.43 90.2426 562.487 89.8184C562.549 89.3942 562.581 88.9706 562.581 88.5464L562.035 87.4561L561.671 86.7293L561.853 86.3658L562.944 87.4561C563.246 87.6378 563.459 87.8195 563.579 88.0012C563.761 88.183 563.792 88.0314 563.672 87.547L562.035 85.4573C562.217 85.0938 562.399 85.1239 562.581 85.5481C562.825 85.9115 563.064 86.0933 563.308 86.0933L563.033 85.003L562.944 83.5493L562.035 82.6407L561.489 84.4578L560.033 80.3693L560.215 80.2784C559.424 78.643 558.847 76.7651 558.483 74.6453C558.119 72.5255 557.787 70.5869 557.485 68.8305C557.303 69.2546 557.241 69.7089 557.303 70.1933C557.366 70.6777 557.392 71.1626 557.392 71.647L556.211 72.4647L557.028 73.7367C556.908 74.1609 556.726 74.6453 556.482 75.1904C556.243 75.6748 555.91 76.0082 555.483 76.1899H555.39L555.572 77.9161C555.572 77.9161 555.421 78.3704 555.119 79.279C554.875 80.1268 554.605 81.1263 554.298 82.2773C553.996 83.3676 553.695 84.4578 553.388 85.5481C553.086 86.5776 552.905 87.2744 552.842 87.6378C552.359 88.1222 552.114 88.3647 552.114 88.3647C552.177 88.3647 552.452 88.5765 552.936 89.0007L550.84 90.4544L550.934 90.727L548.568 103.901L547.294 104.265H547.201C546.962 104.265 546.748 104.446 546.566 104.81C546.447 105.173 546.353 105.416 546.291 105.537C545.989 104.386 545.625 103.295 545.199 102.266C544.835 101.175 544.445 100.115 544.019 99.0858L544.289 98.6315L543.837 97.0869L545.111 96.8144C544.809 96.4509 544.471 95.9665 544.107 95.3606C543.743 94.6945 543.41 94.2096 543.109 93.9069H542.563C542.017 92.0898 541.502 90.2727 541.014 88.4555C540.592 86.5777 540.046 84.7605 539.376 83.0041L539.74 81.7321C539.558 81.4295 539.319 80.9752 539.012 80.3693C538.773 79.7032 538.741 79.158 538.923 78.7339L537.556 78.643L538.377 77.2802L537.192 77.1893C537.01 76.7651 536.859 76.3716 536.74 76.0082C536.62 75.6447 536.558 75.2512 536.558 74.827C536.558 73.676 536.407 72.5255 536.1 71.3745C535.799 70.1632 535.315 69.0729 534.644 68.1036C534.405 68.6488 534.192 69.103 534.01 69.4665C533.89 69.8299 533.797 70.1632 533.734 70.4659C533.677 70.7686 533.646 71.1019 533.646 71.4653C533.646 71.8287 533.646 72.3131 533.646 72.919C533.646 73.3432 533.552 73.7066 533.37 74.0093C533.251 74.312 533.1 74.6453 532.918 75.0087C532.736 75.3722 532.554 75.7657 532.372 76.1899C532.253 76.614 532.19 77.1286 532.19 77.7344C532.19 79.1881 531.795 80.4902 531.005 81.6413H531.098C530.552 83.3977 530.126 85.0637 529.825 86.6384C529.58 88.2131 529.461 89.8791 529.461 91.6355C529.461 92.6651 529.31 93.5736 529.003 94.3612C528.701 95.0881 528.369 95.8149 528.005 96.5418C527.641 97.2079 527.308 97.8745 527.001 98.5406C526.7 99.2067 526.549 99.9035 526.549 100.63C526.549 101.115 526.637 101.6 526.819 102.084C527.001 102.508 527.126 102.963 527.183 103.447C527.246 103.931 527.214 104.416 527.095 104.901C527.032 105.143 526.944 105.325 526.819 105.446Z" fill="white"/>
</g>
<path d="M442.746 168.873C443.356 168.264 443.994 167.71 444.659 167.212L446.24 165.467H445.907C446.129 164.913 446.24 164.443 446.24 164.055C446.24 163.778 446.018 163.141 445.574 162.145C442.08 158.545 438.753 155.443 435.591 152.841C432.43 150.238 429.38 147.967 426.441 146.029C425.609 144.589 424.583 143.371 423.363 142.374C422.198 141.322 420.811 140.353 419.203 139.467C417.595 138.58 415.709 137.695 413.546 136.808C411.439 135.922 409.054 134.898 406.392 133.735C404.617 132.96 403.286 132.295 402.399 131.741C401.511 131.132 400.846 130.634 400.402 130.246C399.959 129.803 399.626 129.498 399.404 129.332C399.182 129.111 398.822 129 398.322 129C397.99 129 397.435 129.111 396.659 129.332C395.882 129.554 394.773 129.914 393.331 130.412C392.943 132.295 392.749 134.123 392.749 135.895C392.749 136.615 392.804 137.695 392.915 139.134C393.081 140.519 393.248 141.959 393.414 143.454C393.636 144.949 393.803 146.389 393.913 147.774C394.08 149.103 394.163 150.1 394.163 150.764C394.163 152.425 394.08 154.336 393.913 156.496C393.803 158.656 393.664 160.954 393.497 163.391C393.331 165.827 393.137 168.402 392.915 171.116C392.749 173.774 392.638 176.515 392.582 179.34C392.472 181.832 392.36 184.518 392.25 187.398C392.194 190.222 392.111 192.908 392 195.455H398.406C399.015 194.68 399.737 194.071 400.569 193.628C401.456 193.185 402.454 192.825 403.563 192.548L410.219 191.136C412.77 188.865 415.182 186.927 417.456 185.321C419.73 183.715 422.032 182.164 424.361 180.669C426.746 179.174 429.269 177.623 431.931 176.017C434.593 174.356 437.588 172.39 440.916 170.119C441.193 169.842 441.47 169.593 441.747 169.372C442.08 169.15 442.302 168.984 442.413 168.873H442.746ZM430.184 167.129C429.685 167.405 429.241 167.683 428.853 167.959C428.465 168.236 428.021 168.541 427.522 168.873L406.725 183.161L402.815 184.075C402.426 182.58 402.232 180.891 402.232 179.008C402.232 177.568 402.371 176.128 402.648 174.688C402.981 173.248 403.48 171.864 404.146 170.535C403.757 169.704 403.563 168.929 403.563 168.209C403.563 167.6 403.757 166.741 404.146 165.633C404.589 164.47 404.922 163.003 405.144 161.231C403.869 156.967 403.231 152.564 403.231 148.023C403.231 147.026 403.258 146.029 403.314 145.032C403.369 143.98 403.48 142.983 403.647 142.042C407.806 144.756 412.021 146.694 416.291 147.857C417.123 148.521 418.316 149.629 419.869 151.179C421.477 152.675 423.141 154.281 424.86 155.997C426.579 157.659 428.215 159.265 429.768 160.815C431.376 162.366 432.624 163.529 433.512 164.304C432.735 165.246 431.654 166.187 430.267 167.129H430.184Z" fill="#B20000"/>
<path d="M458.297 156.579C458.297 155.028 458.02 153.921 457.465 153.256C456.966 152.592 456.051 152.259 454.72 152.259C454.443 152.259 454.027 152.287 453.472 152.342C452.918 152.398 452.502 152.425 452.224 152.425C451.67 152.425 451.199 152.315 450.81 152.093C448.537 152.204 447.399 153.146 447.399 154.917C447.399 155.305 447.483 155.665 447.649 155.997C448.426 159.652 448.98 163.778 449.313 168.375C449.701 172.916 449.923 177.955 449.978 183.493L450.061 191.717C450.061 192.215 450.09 192.769 450.145 193.378C450.256 193.932 450.422 194.458 450.644 194.957C450.866 195.455 451.171 195.87 451.559 196.203C452.003 196.591 452.557 196.784 453.223 196.784C454.831 196.784 456.356 195.566 457.798 193.129L457.715 180.503C457.715 177.678 457.521 174.882 457.133 172.113C456.8 169.288 456.633 166.325 456.633 163.224C457.743 161.507 458.297 159.293 458.297 156.579ZM455.968 138.054L453.223 137.639C451.837 136.808 450.977 136.393 450.644 136.393C449.258 136.393 448.564 137.251 448.564 138.968V140.463C448.509 140.74 448.481 141.045 448.481 141.377C448.481 141.709 448.481 142.042 448.481 142.374L448.564 142.872C448.509 143.039 448.481 143.26 448.481 143.537C448.481 143.814 448.481 144.118 448.481 144.451C448.481 145.669 448.675 146.472 449.063 146.86C449.507 147.248 450.2 147.441 451.143 147.441H452.391C453.001 147.441 453.528 147.58 453.971 147.857C454.083 147.801 454.277 147.774 454.554 147.774C454.443 147.884 454.387 147.967 454.387 148.023H455.386C456.717 148.023 457.382 146.86 457.382 144.534V143.786C457.382 141.793 457.216 140.408 456.883 139.633C456.606 138.858 456.301 138.387 455.968 138.221V138.054Z" fill="#B20000"/>
<path d="M477.913 155.001C477.803 155.222 477.692 155.443 477.581 155.665C477.47 155.831 477.303 156.053 477.081 156.33C475.307 157.437 473.477 158.6 471.591 159.819C469.706 161.037 467.986 162.311 466.433 163.64C464.936 164.969 463.688 166.381 462.69 167.876C461.747 169.316 461.275 170.839 461.275 172.445C461.275 173.664 461.359 174.799 461.525 175.851C461.691 176.848 461.997 177.955 462.44 179.174C462.884 180.392 463.494 181.749 464.27 183.244C465.047 184.739 466.073 186.567 467.348 188.727C467.681 190.111 468.208 191.468 468.929 192.797C469.706 194.071 470.509 195.206 471.341 196.203C472.173 197.2 472.95 198.003 473.671 198.612C474.392 199.221 474.891 199.526 475.168 199.526C475.723 199.526 476.278 199.692 476.832 200.024C477.387 200.412 477.803 200.605 478.08 200.605C478.302 200.605 478.857 200.855 479.744 201.353C480.631 201.851 481.657 202.156 482.822 202.267H483.487C484.707 202.267 485.844 201.962 486.898 201.353C488.007 200.799 489.033 199.885 489.976 198.612C489.588 197.504 489.116 196.701 488.562 196.203C488.007 195.76 487.369 195.455 486.648 195.289C485.983 195.067 485.234 194.901 484.402 194.791C483.626 194.624 482.794 194.32 481.906 193.877C481.019 193.434 480.104 192.769 479.161 191.883C478.274 190.942 477.387 189.557 476.499 187.73C476.388 187.619 476.278 187.397 476.166 187.065C476.943 187.342 477.747 187.536 478.579 187.647C479.466 187.757 480.049 187.813 480.326 187.813C480.881 187.647 481.324 187.37 481.657 186.982C481.99 186.539 482.267 186.096 482.489 185.653C482.711 185.155 482.933 184.712 483.154 184.324C483.376 183.881 483.653 183.549 483.986 183.327C485.983 181.666 487.785 180.337 489.394 179.34C491.002 178.343 492.361 177.429 493.47 176.599C494.634 175.768 495.522 174.882 496.132 173.94C496.742 172.999 497.047 171.753 497.047 170.202C497.047 169.98 496.964 169.731 496.797 169.455C496.687 169.122 496.548 168.818 496.381 168.541C496.271 168.209 496.188 167.959 496.132 167.793C496.077 167.571 496.104 167.433 496.215 167.378C495.827 166.603 495.217 165.55 494.385 164.221C493.553 162.837 492.444 161.065 491.057 158.905H491.141C490.641 158.019 489.948 157.188 489.061 156.413C488.174 155.638 487.231 154.973 486.232 154.419C485.29 153.865 484.347 153.422 483.404 153.09C482.517 152.758 481.796 152.592 481.241 152.592C480.797 152.592 480.409 152.675 480.076 152.841V152.758C479.466 152.868 478.995 153.146 478.662 153.588C478.329 154.031 478.08 154.502 477.913 155.001ZM470.759 174.688C470.815 173.913 470.759 173.331 470.593 172.943C470.426 172.556 470.288 172.223 470.177 171.947C470.399 171.725 470.842 171.282 471.508 170.618C472.229 169.897 473.005 169.15 473.837 168.375C474.669 167.6 475.446 166.879 476.166 166.215C476.888 165.55 477.414 165.107 477.747 164.886H477.664C478.551 164.443 479.633 164.221 480.908 164.221H481.574C482.517 164.886 483.293 165.44 483.903 165.883C484.513 166.27 485.013 166.658 485.4 167.046C485.789 167.433 486.094 167.876 486.316 168.375C486.538 168.873 486.731 169.538 486.898 170.368C485.955 172.306 484.624 174.106 482.905 175.768C481.241 177.374 478.995 178.399 476.166 178.841C476 179.008 475.723 179.174 475.334 179.34C475.002 179.45 474.641 179.561 474.253 179.672C473.92 179.783 473.588 179.921 473.255 180.087C472.978 180.254 472.839 180.447 472.839 180.669C472.34 179.672 471.924 178.703 471.591 177.761C471.258 176.82 470.981 175.795 470.759 174.688Z" fill="#B20000"/>
<path d="M339.801 161.74C341.336 162.021 342.917 162.05 344.543 161.828C346.194 161.617 347.787 161.186 349.321 160.536C350.881 159.896 352.323 159.072 353.646 158.064C354.996 157.066 356.136 155.922 357.067 154.629C357.095 154.491 357.273 153.921 357.603 152.918C357.933 151.915 358.455 150.452 359.169 148.53C360.039 146.162 360.425 144.057 360.324 142.214C360.26 140.357 359.824 138.705 359.017 137.258C358.21 135.81 357.081 134.559 355.629 133.503C354.189 132.421 352.534 131.492 350.667 130.712C349.362 130.168 348.019 129.787 346.637 129.571C345.265 129.328 343.873 129.243 342.461 129.314C342.121 129.623 341.616 129.861 340.944 130.031C340.282 130.175 339.596 130.309 338.883 130.431C338.181 130.529 337.517 130.642 336.892 130.772C336.278 130.875 335.855 131.059 335.625 131.323C334.058 132.77 332.693 134.271 331.531 135.827C330.369 137.383 329.435 139.004 328.729 140.69C327.008 144.803 326.874 148.859 328.326 152.856C330.759 156.812 333.638 159.483 336.964 160.871C337.961 161.287 338.907 161.577 339.801 161.74ZM355.041 146.222C354.833 146.645 354.509 147.096 354.07 147.572C353.656 148.059 353.244 148.503 352.837 148.903C352.963 150.036 352.829 151.076 352.433 152.021C352.006 153.043 351.26 153.962 350.197 154.779C349.145 155.57 347.818 156.262 346.218 156.855C346.037 156.929 345.805 156.908 345.524 156.79C345.421 156.748 345.337 156.697 345.271 156.64L344.926 156.496C344.158 156.176 343.61 156.337 343.281 156.98C342.523 156.994 341.729 156.917 340.897 156.75C340.091 156.594 339.24 156.329 338.345 155.955C337.808 155.731 337.229 155.46 336.611 155.142C336.018 154.835 335.448 154.477 334.897 154.067C334.347 153.658 333.863 153.2 333.443 152.695C333.024 152.19 332.743 151.638 332.603 151.039L332.587 151.077C332.556 150.794 332.551 150.372 332.576 149.812C332.61 149.226 332.636 148.592 332.651 147.908C332.667 147.224 332.651 146.543 332.606 145.863C332.585 145.194 332.508 144.622 332.377 144.147C332.973 143.585 333.468 142.832 333.864 141.887C333.96 141.657 334.079 141.301 334.22 140.82C334.372 140.313 334.566 139.779 334.801 139.217L335.105 138.489C336 137.572 336.963 136.743 337.994 136.003C339.025 135.262 340.127 134.567 341.301 133.917C341.568 133.998 341.94 134.078 342.418 134.157C342.921 134.247 343.424 134.337 343.928 134.427C344.467 134.502 344.963 134.574 345.415 134.643C345.893 134.722 346.234 134.805 346.439 134.89C346.695 134.997 346.993 135.181 347.334 135.444C348.277 135.417 349.222 135.601 350.168 135.996C350.885 136.295 351.518 136.649 352.068 137.059C352.654 137.453 353.164 137.921 353.599 138.463C354.034 139.004 354.42 139.661 354.758 140.432C355.108 141.178 355.429 142.062 355.722 143.085C355.833 143.611 355.888 144.054 355.887 144.414C355.923 144.759 355.888 145.059 355.781 145.315C355.706 145.494 355.611 145.649 355.495 145.781C355.391 145.887 355.286 145.994 355.182 146.1L355.041 146.222Z" fill="white"/>
<path d="M373.044 175.476C373.498 175.396 373.85 175.272 374.1 175.106C374.35 174.94 374.572 174.733 374.766 174.484L374.728 174.468L375.199 173.989C374.253 172.154 373.451 170.409 372.791 168.753C372.168 167.083 371.633 165.524 371.187 164.077C370.777 162.616 370.437 161.274 370.167 160.051C369.923 158.838 369.7 157.755 369.499 156.801L369.521 156.855C369.502 156.757 369.482 156.659 369.464 156.561C369.47 156.474 369.464 156.381 369.445 156.283L369.605 155.9C369.95 155.864 370.429 155.869 371.042 155.914C371.69 155.944 372.359 155.998 373.048 156.076C373.747 156.128 374.421 156.169 375.07 156.199C375.754 156.215 376.306 156.19 376.724 156.125C378.523 155.705 380.098 155.101 381.448 154.315C381.561 153.041 381.499 151.86 381.263 150.771C381.039 149.657 380.579 148.565 379.884 147.495C379.19 146.425 378.221 145.33 376.976 144.211C375.732 143.091 374.157 141.864 372.251 140.528C371.639 140.123 371.02 139.7 370.393 139.258C369.766 138.817 369.204 138.402 368.705 138.014C367.754 137.917 367.048 138.132 366.586 138.66C366.136 139.162 365.756 139.784 365.445 140.525L364.852 141.943C364.825 142.652 364.572 143.581 364.091 144.731C363.962 145.038 363.787 145.385 363.565 145.772C363.369 146.17 363.148 146.589 362.905 147.027C362.697 147.451 362.485 147.887 362.266 148.336C362.048 148.785 361.854 149.214 361.683 149.623C361.394 150.313 361.165 150.968 360.996 151.587C360.853 152.218 360.787 152.805 360.799 153.351C359.924 154.006 359.272 154.845 358.845 155.867C358.727 156.147 358.594 156.573 358.447 157.141C358.325 157.72 358.186 158.338 358.032 158.994C357.888 159.624 357.738 160.236 357.579 160.83C357.457 161.409 357.332 161.852 357.203 162.159C356.186 162.365 355.458 162.991 355.019 164.039L354.731 164.729C354.703 164.867 354.667 164.987 354.625 165.089C354.593 165.166 354.566 165.23 354.545 165.281C354.374 165.69 354.102 166.087 353.73 166.472L354.225 167.984C354.448 168.167 354.683 168.325 354.928 168.457C355.173 168.59 355.449 168.719 355.757 168.848C356.268 169.061 356.781 169.2 357.295 169.265C357.82 169.304 358.384 169.284 358.988 169.206C359.152 168.884 359.325 168.507 359.507 168.072C359.7 167.612 359.882 167.178 360.053 166.769C360.213 166.386 360.452 165.78 360.768 164.952C361.084 164.124 361.417 163.257 361.766 162.352C362.125 161.422 362.463 160.542 362.779 159.714C363.096 158.886 363.335 158.28 363.495 157.897L364.073 156.517C364.409 156.718 364.686 156.954 364.903 157.224C365.157 157.48 365.384 157.8 365.584 158.184C365.784 158.567 365.959 159.046 366.111 159.619C366.298 160.177 366.488 160.872 366.681 161.702C367.021 163.405 367.429 164.655 367.906 165.454C368.166 165.623 368.303 165.905 368.318 166.302C368.332 166.698 368.328 167.176 368.303 167.736C368.279 168.296 368.283 168.898 368.314 169.541C368.382 170.17 368.593 170.813 368.949 171.472C369.19 171.902 369.374 172.324 369.501 172.737C369.665 173.136 369.814 173.498 369.948 173.824C370.083 174.15 370.22 174.433 370.36 174.671C370.527 174.921 370.725 175.093 370.955 175.189C371.057 175.232 371.196 175.26 371.37 175.273C371.546 175.286 371.751 175.296 371.988 175.305L371.95 175.289C372.125 175.302 372.287 175.31 372.436 175.313C372.585 175.315 372.698 175.332 372.775 175.364L373.044 175.476ZM366.256 152.162L365.862 152.133C365.963 151.964 366.061 151.765 366.157 151.535C366.253 151.306 366.36 151.05 366.478 150.769C366.67 150.309 366.864 149.775 367.059 149.166C367.29 148.542 367.544 147.898 367.822 147.234C368.346 145.981 368.937 145.073 369.594 144.507C370.371 144.951 371.08 145.337 371.724 145.666C372.394 146.005 373.013 146.428 373.582 146.936C374.176 147.454 374.756 148.116 375.32 148.921C375.91 149.738 376.514 150.845 377.131 152.243C374.179 152.331 371.851 152.365 370.146 152.344C368.452 152.298 367.156 152.237 366.256 152.162Z" fill="white"/>
<path d="M189.434 195.372C193.205 193.877 195.146 191.828 195.257 189.225C192.761 187.619 190.543 186.096 188.602 184.656C186.661 183.217 184.914 181.915 183.361 180.752C181.863 179.534 180.532 178.454 179.368 177.512C178.203 176.516 177.149 175.685 176.206 175.02C173.045 172.916 170.55 171.033 168.719 169.372C166.889 167.655 165.669 165.827 165.059 163.889C165.447 163.224 166.002 162.56 166.723 161.895C167.444 161.231 168.276 160.566 169.219 159.902L172.13 157.742C172.352 157.077 172.851 156.302 173.628 155.416C174.46 154.475 175.319 153.561 176.206 152.675L178.12 150.847C178.12 150.349 178.453 149.74 179.118 149.02C179.839 148.245 180.726 147.414 181.78 146.528C182.834 145.586 184.026 144.589 185.357 143.537C186.688 142.43 187.964 141.322 189.184 140.214C190.404 139.051 191.513 137.888 192.512 136.725C193.566 135.507 194.342 134.316 194.841 133.153C194.785 132.932 194.702 132.655 194.591 132.323H194.758L194.591 132.157C194.425 131.935 194.259 131.741 194.092 131.575C193.926 131.409 193.704 131.215 193.427 130.994L193.011 130.578C192.678 130.246 192.318 129.914 191.929 129.581C191.597 129.194 191.153 129 190.598 129C190.155 129 189.517 129.194 188.685 129.581V129.498C184.525 131.658 180.477 134.787 176.539 138.885L166.39 149.186C164.116 150.404 161.898 152.093 159.735 154.253C159.236 155.97 158.154 157.659 156.491 159.32L151 164.969C155.881 170.341 161.038 175.269 166.473 179.755C171.908 184.241 177.648 188.367 183.694 192.132C184.525 193.904 186.3 194.984 189.018 195.372H189.434Z" fill="#B20000"/>
<path d="M205.539 162.228C205.539 159.569 205.484 156.967 205.373 154.419C205.318 151.872 205.151 149.352 204.874 146.86L205.206 132.738C203.82 130.357 202.295 129.166 200.631 129.166C199.91 129.166 199.328 129.332 198.884 129.665C198.496 129.997 198.191 130.412 197.969 130.911C197.747 131.409 197.581 131.963 197.47 132.572C197.415 133.126 197.387 133.652 197.387 134.15V138.553C197.387 140.38 197.415 142.596 197.47 145.198C197.525 147.746 197.553 150.293 197.553 152.841C197.609 155.388 197.664 157.714 197.719 159.819C197.775 161.923 197.803 163.418 197.803 164.304C197.803 169.842 197.609 174.91 197.22 179.506C196.832 184.047 196.25 188.145 195.473 191.8C195.307 192.077 195.224 192.409 195.224 192.797C195.224 194.569 196.361 195.511 198.634 195.621C199.023 195.4 199.494 195.289 200.049 195.289C200.326 195.289 200.742 195.317 201.296 195.372C201.851 195.428 202.267 195.455 202.544 195.455C203.875 195.455 204.79 195.123 205.29 194.458C205.844 193.794 206.121 192.686 206.121 191.136C206.121 188.533 205.567 186.373 204.458 184.656C204.79 180.503 205.04 176.571 205.206 172.86C205.428 169.095 205.539 165.55 205.539 162.228Z" fill="#B20000"/>
<path d="M220.039 156.745C220.039 155.194 219.761 154.087 219.207 153.422C218.707 152.758 217.792 152.425 216.461 152.425C216.184 152.425 215.768 152.453 215.213 152.508C214.659 152.564 214.243 152.592 213.966 152.592C213.411 152.592 212.939 152.481 212.551 152.259C210.277 152.37 209.141 153.312 209.141 155.084C209.141 155.471 209.224 155.831 209.39 156.163C210.166 159.819 210.721 163.944 211.054 168.541C211.442 173.082 211.664 178.121 211.72 183.659L211.803 191.883C211.803 192.382 211.83 192.936 211.886 193.545C211.997 194.099 212.163 194.624 212.385 195.123C212.607 195.621 212.912 196.037 213.3 196.369C213.744 196.757 214.298 196.95 214.964 196.95C216.572 196.95 218.097 195.732 219.539 193.295L219.456 180.669C219.456 177.845 219.262 175.048 218.874 172.279C218.541 169.455 218.375 166.492 218.375 163.391C219.484 161.674 220.039 159.459 220.039 156.745ZM217.709 138.221L214.964 137.805C213.577 136.975 212.718 136.559 212.385 136.559C210.998 136.559 210.305 137.417 210.305 139.134V140.63C210.25 140.906 210.222 141.211 210.222 141.543C210.222 141.876 210.222 142.208 210.222 142.54L210.305 143.039C210.25 143.205 210.222 143.426 210.222 143.703C210.222 143.98 210.222 144.285 210.222 144.617C210.222 145.835 210.416 146.638 210.804 147.026C211.248 147.414 211.941 147.607 212.884 147.607H214.132C214.742 147.607 215.269 147.746 215.713 148.023C215.823 147.967 216.017 147.94 216.295 147.94C216.184 148.05 216.129 148.133 216.129 148.189H217.127C218.458 148.189 219.123 147.026 219.123 144.7V143.952C219.123 141.959 218.957 140.574 218.624 139.799C218.347 139.024 218.042 138.553 217.709 138.387V138.221Z" fill="#B20000"/>
<path d="M261.45 185.985C261.45 185.542 261.339 185.044 261.117 184.49C260.951 183.881 260.785 183.272 260.618 182.663V182.746C260.23 181.859 260.036 181.112 260.036 180.503H260.285C260.563 180.392 260.785 180.254 260.951 180.087C261.117 179.921 261.201 179.533 261.201 178.924V178.758C261.201 177.651 261.311 176.211 261.533 174.439C261.81 172.667 261.949 171.06 261.949 169.621V168.956C261.894 168.347 261.81 167.904 261.7 167.627C261.588 167.295 261.45 166.99 261.284 166.713C261.672 165.938 262.032 165.246 262.365 164.637C262.753 164.028 263.252 163.501 263.863 163.058H264.112C264.112 163.058 264.334 163.031 264.778 162.975C265.221 162.92 265.693 162.865 266.192 162.809C266.746 162.699 267.273 162.615 267.773 162.56C268.327 162.504 268.715 162.477 268.937 162.477C274.372 162.477 277.09 167.267 277.09 176.848C277.09 178.454 276.923 180.087 276.591 181.749C276.313 183.355 276.175 185.099 276.175 186.982C276.175 188.367 276.313 189.668 276.591 190.886C276.868 192.105 277.256 193.185 277.755 194.126C278.31 195.067 278.948 195.815 279.669 196.369C280.389 196.923 281.194 197.2 282.081 197.2C283.911 197.2 285.658 195.981 287.322 193.545C286.657 192.216 286.324 190.693 286.324 188.976C286.324 188.256 286.518 186.705 286.906 184.324C287.294 181.942 287.489 179.118 287.489 175.851C287.489 174.134 287.211 172.168 286.657 169.953C286.157 167.738 285.436 165.606 284.494 163.557C283.606 161.508 282.525 159.68 281.249 158.074C279.973 156.468 278.587 155.36 277.09 154.751H277.173C276.008 154.142 274.677 153.727 273.18 153.505C271.738 153.284 270.24 153.173 268.688 153.173C267.8 153.173 266.802 153.312 265.693 153.588C264.583 153.865 263.447 154.253 262.282 154.751C261.172 155.25 260.063 155.859 258.954 156.579C257.845 157.243 256.847 157.991 255.96 158.822C254.85 158.268 253.935 157.659 253.214 156.994C252.549 156.33 251.8 155.721 250.968 155.167C250.191 154.558 249.221 154.059 248.057 153.672C246.947 153.284 245.394 153.09 243.398 153.09C241.623 153.09 239.931 153.229 238.323 153.505C236.77 153.782 235.245 154.641 233.748 156.081V155.582C231.751 153.755 230.088 152.841 228.756 152.841C227.592 152.841 226.677 153.367 226.011 154.419C225.346 155.416 224.874 156.662 224.597 158.157C224.319 159.597 224.153 161.175 224.098 162.892C224.042 164.554 224.015 166.049 224.015 167.378C224.015 168.541 224.042 169.87 224.098 171.365C224.153 172.86 224.236 174.411 224.347 176.017C224.514 177.623 224.68 179.257 224.847 180.918C225.013 182.58 225.207 184.185 225.429 185.736C225.54 186.733 225.623 187.536 225.678 188.145C225.734 188.699 225.762 189.169 225.762 189.557C225.762 191.219 225.429 192.741 224.763 194.126C226.427 196.563 228.174 197.781 230.004 197.781C230.836 197.781 231.557 197.476 232.167 196.867C232.777 196.313 233.276 195.566 233.665 194.625C234.053 193.683 234.33 192.575 234.497 191.302C234.718 190.028 234.829 188.699 234.829 187.314C234.829 185.321 234.691 183.438 234.413 181.666C234.191 179.838 234.025 178.121 233.914 176.515C233.581 172.916 233.553 170.175 233.831 168.292C234.164 166.354 234.746 164.941 235.578 164.055C236.41 163.169 237.463 162.67 238.739 162.56C240.015 162.449 241.485 162.394 243.148 162.394C243.37 162.394 243.731 162.421 244.23 162.477C244.784 162.532 245.311 162.615 245.81 162.726C246.365 162.782 246.864 162.837 247.308 162.892C247.751 162.948 248.001 162.975 248.057 162.975H248.223C248.833 163.418 249.332 163.889 249.72 164.387C250.164 164.886 250.524 165.689 250.802 166.796C251.079 167.849 251.273 169.288 251.384 171.116C251.495 172.888 251.551 175.269 251.551 178.26V194.874C252.05 195.04 252.466 195.289 252.798 195.621C253.131 195.898 253.464 196.175 253.797 196.452C254.129 196.784 254.462 197.061 254.795 197.283C255.183 197.504 255.599 197.615 256.043 197.615C257.429 197.615 259.065 196.563 260.951 194.458C261.006 194.126 261.034 193.766 261.034 193.378C261.034 192.936 261.062 192.548 261.117 192.216L261.367 189.807C261.367 189.474 261.367 189.198 261.367 188.976C261.422 188.699 261.45 188.45 261.45 188.228C261.45 187.951 261.45 187.647 261.45 187.314C261.45 186.982 261.45 186.539 261.45 185.985Z" fill="#B20000"/>
<path d="M326.55 173.193C324.054 170.258 320.893 167.627 317.066 165.301C313.239 162.92 308.664 160.76 303.34 158.822C303.506 158.157 303.589 157.354 303.589 156.413C303.589 155.638 303.478 154.641 303.256 153.422C303.035 152.149 302.785 150.875 302.508 149.601C302.286 148.272 302.064 147.026 301.842 145.863C301.621 144.644 301.509 143.731 301.509 143.122C301.509 142.18 301.621 141.488 301.842 141.045C302.12 140.547 302.397 140.159 302.674 139.882C302.952 139.55 303.201 139.245 303.423 138.968C303.7 138.692 303.839 138.276 303.839 137.722C303.839 137.058 303.672 136.31 303.34 135.479H303.423C303.312 135.037 303.201 134.649 303.09 134.316C302.979 133.984 302.924 133.679 302.924 133.403V131.409C302.869 131.243 302.785 131.021 302.674 130.744C302.619 130.468 302.397 129.997 302.009 129.332C301.343 129.443 300.816 129.581 300.428 129.748C300.095 129.914 299.846 130.08 299.679 130.246C299.513 130.357 299.346 130.468 299.18 130.578C299.069 130.634 298.903 130.661 298.681 130.661C298.681 130.661 298.57 130.634 298.348 130.578C298.182 130.523 297.988 130.44 297.766 130.329H297.849C296.906 129.997 295.825 129.803 294.605 129.748C293.385 129.637 292.525 129.581 292.026 129.581C291.582 130.19 291.277 130.772 291.111 131.326C291 131.824 290.944 132.323 290.944 132.821L291.36 135.23C291.472 135.729 291.555 136.199 291.61 136.642C291.665 137.085 291.693 137.446 291.693 137.722V138.304C291.971 138.913 292.248 139.882 292.525 141.211C292.858 142.54 293.024 143.731 293.024 144.783L293.19 145.448C293.246 145.669 293.329 145.946 293.44 146.278C293.606 146.611 293.828 146.915 294.106 147.192C294.05 148.909 294.022 150.598 294.022 152.259C294.022 153.921 294.022 155.61 294.022 157.327V168.042C294.022 172.03 293.828 175.795 293.44 179.34C293.052 182.829 292.553 186.124 291.943 189.225L292.109 197.283C293.274 197.283 294.466 197.034 295.686 196.535C296.906 196.037 298.099 195.511 299.263 194.957C300.428 194.348 301.509 193.794 302.508 193.295C303.562 192.797 304.504 192.52 305.336 192.465C306.113 192.243 306.723 191.773 307.166 191.053C307.61 190.277 307.832 189.557 307.832 188.893V188.81C308.165 188.92 308.47 189.031 308.747 189.142C314.57 185.985 320.505 181.029 326.55 174.273V173.193ZM310.244 178.426C310.078 178.592 309.94 178.703 309.828 178.758L309.579 179.008C308.193 180.281 306.889 181.361 305.669 182.247C304.504 183.134 303.451 183.798 302.508 184.241L301.759 184.407V183.826C301.759 183.272 301.842 182.386 302.009 181.167C302.175 179.949 302.341 178.675 302.508 177.346C302.674 176.017 302.84 174.744 303.007 173.525C303.173 172.251 303.256 171.31 303.256 170.701C303.256 170.258 303.229 169.787 303.173 169.288C303.118 168.79 303.035 168.292 302.924 167.793C305.198 168.347 307.361 169.122 309.412 170.119C311.465 171.06 313.489 172.251 315.485 173.691C314.21 174.854 313.128 175.823 312.241 176.599C311.409 177.319 310.772 177.9 310.328 178.343L310.244 178.426Z" fill="#B20000"/>
</g>
<defs>
<filter id="filter0_d" x="-3.60547" y="0.0830078" width="659.378" height="123.944" filterUnits="userSpaceOnUse" color-interpolation-filters="sRGB">
<feFlood flood-opacity="0" result="BackgroundImageFix"/>
<feColorMatrix in="SourceAlpha" type="matrix" values="0 0 0 0 0 0 0 0 0 0 0 0 0 0 0 0 0 0 127 0"/>
<feOffset dy="4"/>
<feGaussianBlur stdDeviation="2"/>
<feColorMatrix type="matrix" values="0 0 0 0 0 0 0 0 0 0 0 0 0 0 0 0 0 0 0.25 0"/>
<feBlend mode="normal" in2="BackgroundImageFix" result="effect1_dropShadow"/>
<feBlend mode="normal" in="SourceGraphic" in2="effect1_dropShadow" result="shape"/>
</filter>
<clipPath id="clip0">
<rect width="652" height="203" fill="white"/>
</clipPath>
</defs>
</svg>
