<svg id="Calque_1" data-name="Calque 1" xmlns="http://www.w3.org/2000/svg" xmlns:xlink="http://www.w3.org/1999/xlink" viewBox="0 0 2596.62 2254"><defs><style>.cls-1,.cls-10,.cls-11,.cls-12,.cls-15,.cls-16,.cls-17,.cls-2,.cls-3,.cls-4,.cls-5,.cls-6,.cls-7,.cls-8,.cls-9{stroke:#231f20;stroke-miterlimit:10;}.cls-1{fill:url(#Dégradé_sans_nom_10);}.cls-15,.cls-2,.cls-4{fill:#4d4d4f;}.cls-13,.cls-2{opacity:0.99;}.cls-3{fill:url(#Dégradé_sans_nom_11);}.cls-4{stroke-width:3px;}.cls-5{fill:url(#Dégradé_sans_nom_12);}.cls-6{fill:#fff;}.cls-7{fill:url(#Dégradé_sans_nom_8);}.cls-8{fill:#f15a2e;}.cls-9{fill:url(#Dégradé_sans_nom_14);}.cls-10{fill:none;}.cls-11{fill:url(#Dégradé_sans_nom_16);}.cls-12{fill:url(#Dégradé_sans_nom_17);}.cls-14{fill:#27b67c;}.cls-16{fill:url(#Dégradé_sans_nom_4);}.cls-17{fill:url(#Dégradé_sans_nom_4-2);}</style><linearGradient id="Dégradé_sans_nom_10" x1="1297.2" y1="-587.27" x2="1303.33" y2="1669.15" gradientUnits="userSpaceOnUse"><stop offset="0.27"/><stop offset="1" stop-color="#fff"/></linearGradient><linearGradient id="Dégradé_sans_nom_11" x1="1296.38" y1="2163.43" x2="1305.26" y2="1147.07" gradientUnits="userSpaceOnUse"><stop offset="0.09"/><stop offset="0.66" stop-color="#fff"/></linearGradient><linearGradient id="Dégradé_sans_nom_12" x1="1299.12" y1="-227.23" x2="1299.12" y2="742.08" gradientUnits="userSpaceOnUse"><stop offset="0.45" stop-color="#414042"/><stop offset="0.97" stop-color="#fff"/></linearGradient><radialGradient id="Dégradé_sans_nom_8" cx="1871.5" cy="1152.5" r="1570.26" gradientTransform="translate(0 366.65) scale(1 0.68)" gradientUnits="userSpaceOnUse"><stop offset="0" stop-color="#fff"/><stop offset="0.37" stop-color="#fdfdfd"/><stop offset="0.51" stop-color="#f6f6f6"/><stop offset="0.6" stop-color="#ebebeb"/><stop offset="0.68" stop-color="#dadada"/><stop offset="0.75" stop-color="#c4c4c4"/><stop offset="0.8" stop-color="#a8a8a8"/><stop offset="0.86" stop-color="#888"/><stop offset="0.91" stop-color="#626262"/><stop offset="0.95" stop-color="#373737"/><stop offset="0.99" stop-color="#090909"/><stop offset="1"/></radialGradient><linearGradient id="Dégradé_sans_nom_14" x1="473.18" y1="1955.95" x2="544.08" y2="1655.84" gradientUnits="userSpaceOnUse"><stop offset="0.22" stop-color="#27b67c"/><stop offset="0.97" stop-color="#fff"/></linearGradient><linearGradient id="Dégradé_sans_nom_16" x1="702.04" y1="1956.28" x2="711.45" y2="1683.34" gradientUnits="userSpaceOnUse"><stop offset="0.29" stop-color="#27b67c"/><stop offset="1" stop-color="#fff"/></linearGradient><linearGradient id="Dégradé_sans_nom_17" x1="2027.81" y1="1968.32" x2="2008.85" y2="1725.41" gradientUnits="userSpaceOnUse"><stop offset="0.36" stop-color="#27b67c"/><stop offset="1" stop-color="#fff"/></linearGradient><radialGradient id="Dégradé_sans_nom_4" cx="2419.22" cy="1118.32" r="1208.96" gradientTransform="translate(-573.38 65.9) scale(1 0.93)" gradientUnits="userSpaceOnUse"><stop offset="0" stop-color="#fff"/><stop offset="0.85"/></radialGradient><radialGradient id="Dégradé_sans_nom_4-2" cx="-424.78" cy="1115.32" r="1208.96" gradientTransform="matrix(-1, 0, 0, 0.93, 324.66, 65.69)" xlink:href="#Dégradé_sans_nom_4"/></defs><title>arcade</title><rect class="cls-1" x="147.12" y="0.5" width="2304" height="237"/><rect class="cls-2" x="3.12" y="1964.5" width="2592" height="216"/><polygon class="cls-3" points="290.12 1820.5 2.12 1964.5 2594.12 1964.5 2306.12 1820.5 290.12 1820.5"/><rect class="cls-4" x="3.12" y="2180.5" width="2592" height="72"/><polygon class="cls-5" points="147.12 237.5 2451.12 237.5 2307.12 453.5 291.12 453.5 147.12 237.5"/><path class="cls-6" d="M729,270" transform="translate(-573.38 -15)"/><path class="cls-7" d="M863.5,468.5v1368h2016V468.5ZM2834.65,1765.28a42.52,42.52,0,0,1-42.52,42.52H949.61a42.51,42.51,0,0,1-42.52-42.52V540.72a42.51,42.51,0,0,1,42.52-42.52H2792.13a42.52,42.52,0,0,1,42.52,42.52Z" transform="translate(-573.38 -15)"/><path class="cls-8" d="M1152,1893.5c-16.33,8.38-46.36,14-80.72,14s-64.4-5.62-80.72-14h0c-8.28,4.25-13,9.21-13,14.5,0,15.74,42,28.5,93.75,28.5S1165,1923.74,1165,1908C1165,1902.7,1160.24,1897.75,1152,1893.5Z" transform="translate(-573.38 -15)"/><ellipse class="cls-9" cx="497.62" cy="1852.5" rx="81.5" ry="13"/><line class="cls-10" x1="416.12" y1="1852.5" x2="416.12" y2="1878.5"/><line class="cls-10" x1="579.12" y1="1852.5" x2="579.12" y2="1878.5"/><path class="cls-8" d="M1360,1893.5c-16.33,8.38-46.36,14-80.72,14s-64.4-5.62-80.72-14h0c-8.28,4.25-13,9.21-13,14.5,0,15.74,42,28.5,93.75,28.5S1373,1923.74,1373,1908C1373,1902.7,1368.24,1897.75,1360,1893.5Z" transform="translate(-573.38 -15)"/><ellipse class="cls-11" cx="705.62" cy="1852.5" rx="81.5" ry="13"/><line class="cls-6" x1="624.12" y1="1852.5" x2="624.12" y2="1878.5"/><line class="cls-6" x1="787.12" y1="1852.5" x2="787.12" y2="1878.5"/><path class="cls-8" d="M2673,1891.5c-16.33,8.38-46.36,14-80.72,14s-64.4-5.62-80.72-14h0c-8.28,4.25-13,9.21-13,14.5,0,15.74,42,28.5,93.75,28.5S2686,1921.74,2686,1906C2686,1900.7,2681.24,1895.75,2673,1891.5Z" transform="translate(-573.38 -15)"/><ellipse class="cls-12" cx="2018.62" cy="1850.5" rx="81.5" ry="13"/><line class="cls-6" x1="1937.12" y1="1850.5" x2="1937.12" y2="1876.5"/><line class="cls-6" x1="2100.12" y1="1850.5" x2="2100.12" y2="1876.5"/><g class="cls-13"><path class="cls-14" d="M1044.24,1893.17c9.78-.57,19.26.24,29,1.37,10.36,1.21,20.15-.21,30.32-2.22.35-.07-.28-5,0-5-10.17,2-20,3.43-30.32,2.22-9.69-1.13-19.17-1.94-29-1.37-.13,0,.06,5,0,5Z" transform="translate(-573.38 -15)"/></g><g class="cls-13"><path class="cls-14" d="M990,1874.84s0-5,0-5,0,5,0,5Z" transform="translate(-573.38 -15)"/></g><g class="cls-13"><path class="cls-14" d="M990,1874.8s0-5,0-5,0,5,0,5Z" transform="translate(-573.38 -15)"/></g><g class="cls-13"><path class="cls-14" d="M990,1874.81c2.9,2.75,7,3.17,10.46,4.85-.62-.3.68-4.68,0-5-3.49-1.68-7.56-2.09-10.46-4.85.23.22,0,2.15,0,2.5s-.29,2.21,0,2.5Z" transform="translate(-573.38 -15)"/></g><g class="cls-13"><path class="cls-14" d="M990,1879.54h.24s0-5,0-5H990s0,5,0,5Z" transform="translate(-573.38 -15)"/></g><g class="cls-13"><path class="cls-14" d="M990.25,1879.6a1.3,1.3,0,0,1,.44.06c-.07,0,0-2.29,0-2.5,0-.59,0-1.18,0-1.77a3.42,3.42,0,0,0,0-.73,1.3,1.3,0,0,0-.44-.06c-.08,0,0,5,0,5Z" transform="translate(-573.38 -15)"/></g><g class="cls-13"><path class="cls-14" d="M990.49,1879.68c1.7.07,3.28,1.13,5,1.49,2,.45,4,1,5.92,1.65-.45-.15.52-4.84,0-5-2-.63-3.91-1.2-5.92-1.65-1.68-.36-3.26-1.42-5-1.49,0,0-.11,5,0,5Z" transform="translate(-573.38 -15)"/></g><g class="cls-13"><path class="cls-14" d="M990,1883.43l.42,0c.18,0-.12-5,0-5l-.42,0c-.18,0,.11,5,0,5Z" transform="translate(-573.38 -15)"/></g><g class="cls-13"><path class="cls-14" d="M990,1887.06a3.87,3.87,0,0,0,.68,0c.1,0,0-5,0-5a3.87,3.87,0,0,1-.68,0s0,2.31,0,2.5a22.74,22.74,0,0,0,0,2.5Z" transform="translate(-573.38 -15)"/></g><g class="cls-13"><path class="cls-14" d="M990,1890.9a1.7,1.7,0,0,1,.71,0c-.06,0,0-2.3,0-2.5,0-.59,0-1.18,0-1.77a4.23,4.23,0,0,0,0-.73,1.7,1.7,0,0,0-.71,0c-.07,0,0,2.3,0,2.5s0,2.49,0,2.5Z" transform="translate(-573.38 -15)"/></g><g class="cls-13"><path class="cls-14" d="M990,1893.2c.41,0,.81-.06,1.22-.12.08,0,0-2.31,0-2.5s-.07-2.5,0-2.5c-.41.06-.81.1-1.22.12-.11,0,0,5,0,5Z" transform="translate(-573.38 -15)"/></g><g class="cls-13"><path class="cls-14" d="M990.37,1883.7a8.83,8.83,0,0,1,1.54,0s0-2.31,0-2.5.06-2.49,0-2.5a8.83,8.83,0,0,0-1.54,0c-.14,0,.06,5,0,5Z" transform="translate(-573.38 -15)"/></g><g class="cls-13"><path class="cls-14" d="M990.57,1888.22h3.14s0-5,0-5h-3.14s0,5,0,5Z" transform="translate(-573.38 -15)"/></g><g class="cls-13"><path class="cls-14" d="M991.55,1883.88a11.7,11.7,0,0,1,5.22,1.63,15.58,15.58,0,0,0,4.85,1.43c-.18,0,.26-5,0-5a15.58,15.58,0,0,1-4.85-1.43,11.7,11.7,0,0,0-5.22-1.63s0,5,0,5Z" transform="translate(-573.38 -15)"/></g><g class="cls-13"><path class="cls-14" d="M992.41,1888.61a22.3,22.3,0,0,1,3.37,0c.88.14,1.15.54,1.84,1.09,1.93,1.57,4.22,1.6,6.61,1.48.12,0-.06-5,0-5-2.4.12-4.67.09-6.61-1.48a4.2,4.2,0,0,0-1.6-1.08,16.13,16.13,0,0,0-3.61,0s0,5,0,5Z" transform="translate(-573.38 -15)"/></g><g class="cls-13"><path class="cls-14" d="M991,1891.74c3-.27,5.89-.44,8.65.92,3.25,1.59,4.78,1.41,8.22.34.5-.16-.44-4.86,0-5-3.45,1.07-4.94,1.27-8.22-.34-2.76-1.36-5.67-1.19-8.65-.92-.19,0,.11,5,0,5Z" transform="translate(-573.38 -15)"/></g><g class="cls-13"><path class="cls-14" d="M991,1893.15c2.19-.16,4,.84,6.11,1.38a24.92,24.92,0,0,0,6.83.71c.07,0,0-5,0-5a24.92,24.92,0,0,1-6.83-.71c-2.07-.54-3.92-1.54-6.11-1.38-.15,0,.08,5,0,5Z" transform="translate(-573.38 -15)"/></g><g class="cls-13"><path class="cls-14" d="M991,1893.14a10.37,10.37,0,0,0,2.14,1l2.36,1a19.15,19.15,0,0,1,0-2.5,10.36,10.36,0,0,0,0-2.5l-2.36-1a10.37,10.37,0,0,1-2.14-1s0,.83,0,.74c0,.59,0,1.17,0,1.76s0,1.18,0,1.77c0,.12-.06.68,0,.73Z" transform="translate(-573.38 -15)"/></g><g class="cls-13"><path class="cls-14" d="M993.58,1894.36a8.5,8.5,0,0,0,3.87,1c.11,0,0-5,0-5a8.5,8.5,0,0,1-3.87-1,15,15,0,0,1,0,2.5v1.76a3,3,0,0,0,0,.74Z" transform="translate(-573.38 -15)"/></g><g class="cls-13"><path class="cls-14" d="M995.41,1895.27l6.09,2.26a23.64,23.64,0,0,1,0-2.5,10.86,10.86,0,0,0,0-2.5l-6.09-2.26a23.64,23.64,0,0,1,0,2.5,10.86,10.86,0,0,0,0,2.5Z" transform="translate(-573.38 -15)"/></g><g class="cls-13"><path class="cls-14" d="M1001.45,1897.52c.64.28,1.34.42,2,.68a8.26,8.26,0,0,0,2.26.46c-.15,0,.22-5,0-5a8.26,8.26,0,0,1-2.26-.46c-.66-.26-1.36-.4-2-.68a19.27,19.27,0,0,1,0,2.5c0,.59,0,1.18,0,1.77a2.87,2.87,0,0,0,0,.73Z" transform="translate(-573.38 -15)"/></g><g class="cls-13"><path class="cls-14" d="M1004.86,1898.55a34.58,34.58,0,0,0,5.21,1.42c-.24,0,.3-5,0-5a34.58,34.58,0,0,1-5.21-1.42c.08,0,0,2.29,0,2.5a11.44,11.44,0,0,0,0,2.5Z" transform="translate(-573.38 -15)"/></g><g class="cls-13"><path class="cls-14" d="M1009.6,1900c1.66.41,3.32.78,5,1.1-.28,0,.35-4.93,0-5-1.68-.32-3.34-.69-5-1.1.06,0,0,2.3,0,2.5a14.64,14.64,0,0,0,0,2.5Z" transform="translate(-573.38 -15)"/></g><g class="cls-13"><path class="cls-14" d="M1004.56,1896.64c2.43,0,4.87-.05,7.3,0a9.42,9.42,0,0,1,2.89.34,4.68,4.68,0,0,0,2.46.52c.29,0-.22-5,0-5a4.68,4.68,0,0,1-2.46-.52,9.42,9.42,0,0,0-2.89-.34c-2.43,0-4.87,0-7.3,0,0,0,0,5,0,5Z" transform="translate(-573.38 -15)"/></g><g class="cls-13"><path class="cls-14" d="M1001,1889.61c4.31-.42,8,1,12.09,2a45.51,45.51,0,0,0,12.85,1.18c.11,0,0-5,0-5a45.15,45.15,0,0,1-12.85-1.18c-4.08-1-7.81-2.37-12.09-2-.2,0,.12,5,0,5Z" transform="translate(-573.38 -15)"/></g><g class="cls-13"><path class="cls-14" d="M1006.59,1893.73c11.34-.13,22.74.61,34.06.14.1,0,0-5,0-5-11.32.47-22.72-.27-34.06-.14-.05,0,0,5,0,5Z" transform="translate(-573.38 -15)"/></g><g class="cls-13"><path class="cls-14" d="M999,1885.19c4.32.2,8.38,1.49,12.63,2.12,4,.6,8.06.76,12,1.6,3.72.8,7.31,2.11,11,2.92,4,.86,8,1,12,1.68-.23,0,.3-5,0-5-4-.64-8.06-.81-12-1.68-3.72-.82-7.31-2.12-11-2.92-4-.84-8-1-12-1.6-4.24-.64-8.32-1.92-12.63-2.12,0,0-.11,5,0,5Z" transform="translate(-573.38 -15)"/></g><g class="cls-13"><path class="cls-14" d="M1016.66,1894.94c5.22,1.19,10.07,3.86,15.51,4,5.65.14,11.08-1.91,16.75-1.76,0,0,.09-5,0-5-5.68-.15-11.1,1.91-16.75,1.76-5.44-.14-10.29-2.81-15.51-4,.33.08-.39,4.92,0,5Z" transform="translate(-573.38 -15)"/></g><g class="cls-13"><path class="cls-14" d="M1033.71,1895.31c2.48.13,5-.12,7.43,0a34.56,34.56,0,0,1,6.38,1.14c-.32-.07.4-4.91,0-5a32.83,32.83,0,0,0-6.38-1.14c-2.48-.08-5,.16-7.43,0,0,0-.12,5,0,5Z" transform="translate(-573.38 -15)"/></g><g class="cls-13"><path class="cls-14" d="M999.94,1882.47c8.2.13,16,3.65,23.84,5.72a208.65,208.65,0,0,0,25.73,5c-.18,0,.25-5,0-5a208.65,208.65,0,0,1-25.73-5c-7.84-2.06-15.64-5.59-23.84-5.72,0,0-.07,5,0,5Z" transform="translate(-573.38 -15)"/></g><g class="cls-13"><path class="cls-14" d="M1013.48,1898.12c13.3-.79,26.28,3.23,39.59,3,13.69-.21,27.41-1.29,41.08-2,.12,0-.05-5,0-5-13.67.7-27.39,1.78-41.08,2-13.31.21-26.29-3.81-39.59-3-.14,0,.06,5,0,5Z" transform="translate(-573.38 -15)"/></g><g class="cls-13"><path class="cls-14" d="M1000,1879.33a17.38,17.38,0,0,0,3.84,1.08c-.06,0,0-2.31,0-2.5a15.83,15.83,0,0,0,0-2.5,17.38,17.38,0,0,1-3.84-1.08,15.09,15.09,0,0,1,0,2.5c0,.59,0,1.18,0,1.77a2.87,2.87,0,0,0,0,.73Z" transform="translate(-573.38 -15)"/></g><g class="cls-13"><path class="cls-14" d="M1000.54,1879.59c.8.19,1.58.4,2.37.61-.07,0,0-2.3,0-2.5,0-.59,0-1.18,0-1.77a4.23,4.23,0,0,0,0-.73c-.79-.21-1.57-.42-2.37-.61.06,0,0,2.3,0,2.5,0,.59,0,1.18,0,1.77a4.32,4.32,0,0,0,0,.73Z" transform="translate(-573.38 -15)"/></g><g class="cls-13"><path class="cls-14" d="M1003.38,1880.24a26.71,26.71,0,0,0,4,.91s0-2.31,0-2.5a15.73,15.73,0,0,0,0-2.5,26.71,26.71,0,0,1-4-.91,21.25,21.25,0,0,1,0,2.5,10.86,10.86,0,0,0,0,2.5Z" transform="translate(-573.38 -15)"/></g><g class="cls-13"><path class="cls-14" d="M1007.3,1881.12a46.49,46.49,0,0,0,5.1.89c-.18,0,.26-5,0-5a46.49,46.49,0,0,1-5.1-.89c.06,0,0,2.3,0,2.5a14.64,14.64,0,0,0,0,2.5Z" transform="translate(-573.38 -15)"/></g><g class="cls-13"><path class="cls-14" d="M1012.4,1882a12.27,12.27,0,0,0,2.07.6c.9.29,1.67.78,2.59,1a29.59,29.59,0,0,1,4.94,1.17c-.58-.25.64-4.72,0-5a29.59,29.59,0,0,0-4.94-1.17,20.41,20.41,0,0,1-2.29-.88,21.63,21.63,0,0,1-2.37-.73,15.08,15.08,0,0,1,0,2.5c0,.28-.2,2.38,0,2.5Z" transform="translate(-573.38 -15)"/></g><g class="cls-13"><path class="cls-14" d="M1012.54,1882c2.16.55,4.39.54,6.55,1.13-.39-.1.46-4.87,0-5-2.15-.59-4.39-.58-6.55-1.13.37.1-.43,4.89,0,5Z" transform="translate(-573.38 -15)"/></g><g class="cls-13"><path class="cls-14" d="M1018.18,1882.9c4.48.29,9,2.21,13,4.07-.6-.28.67-4.7,0-5-4-1.86-8.55-3.78-13-4.07.06,0-.15,5,0,5Z" transform="translate(-573.38 -15)"/></g><g class="cls-13"><path class="cls-14" d="M1021.39,1883.26c1.58.41,3.23.31,4.84.62,2.37.44,4.74.9,7.11,1.35-.27,0,.34-4.93,0-5-2.37-.45-4.74-.91-7.11-1.35-1.61-.31-3.26-.21-4.84-.62.38.1-.45,4.88,0,5Z" transform="translate(-573.38 -15)"/></g><g class="cls-13"><path class="cls-14" d="M1026.75,1883.89c2.12.56,4.42.37,6.6.6a25.35,25.35,0,0,1,6.63,1.64c-.54-.2.59-4.76,0-5a25.35,25.35,0,0,0-6.63-1.64c-2.18-.23-4.48,0-6.6-.6.38.1-.45,4.89,0,5Z" transform="translate(-573.38 -15)"/></g><g class="cls-13"><path class="cls-14" d="M1027.14,1884c1.21.11,2.44.19,3.64.4,0,0,0-2.31,0-2.5a18.66,18.66,0,0,0,0-2.5c-1.2-.21-2.43-.29-3.64-.4.12,0-.19,5,0,5Z" transform="translate(-573.38 -15)"/></g><g class="cls-13"><path class="cls-14" d="M1030.34,1888a40.14,40.14,0,0,1,8.62.62c-.28,0,.34-4.94,0-5a40.14,40.14,0,0,0-8.62-.62c-.08,0,0,5,0,5Z" transform="translate(-573.38 -15)"/></g><g class="cls-13"><path class="cls-14" d="M1034.52,1884.63l3,.27a8,8,0,0,0,2.62.2,17,17,0,0,0,0-2.5c0-.2-.11-2.48,0-2.5a8,8,0,0,1-2.62-.2l-3-.27c.11,0-.19,5,0,5Z" transform="translate(-573.38 -15)"/></g><g class="cls-13"><path class="cls-14" d="M1037.1,1884.81a26.06,26.06,0,0,1,6,1c-.07,0,0-2.3,0-2.5a13.76,13.76,0,0,0,0-2.5,26.06,26.06,0,0,0-6-1s-.11,5,0,5Z" transform="translate(-573.38 -15)"/></g><g class="cls-13"><path class="cls-14" d="M1039.45,1885c5.09-.06,8.8,1.42,12.89,4.4-.77-.56.82-4.4,0-5-4.09-3-7.8-4.46-12.89-4.4-.06,0,0,5,0,5Z" transform="translate(-573.38 -15)"/></g><g class="cls-13"><path class="cls-14" d="M1037.89,1889.08c2.76.11,5.55-.18,8.29.14s5,1.48,7.55,2.22c-.41-.12.49-4.86,0-5-2.53-.74-4.91-1.9-7.55-2.22s-5.53,0-8.29-.14c0,0-.11,5,0,5Z" transform="translate(-573.38 -15)"/></g><g class="cls-13"><path class="cls-14" d="M1043.12,1885.17c1.3.21,2.59.09,3.9.27a24.39,24.39,0,0,0,4.27.19c.1,0,0-5,0-5a24.39,24.39,0,0,1-4.27-.19c-1.31-.18-2.6-.06-3.9-.27.22,0-.29,5,0,5Z" transform="translate(-573.38 -15)"/></g><g class="cls-13"><path class="cls-14" d="M1047.55,1885.49a20.58,20.58,0,0,1,7.4,1,21.25,21.25,0,0,1,0-2.5,10.33,10.33,0,0,0,0-2.5,20.58,20.58,0,0,0-7.4-1s-.06,5,0,5Z" transform="translate(-573.38 -15)"/></g><g class="cls-13"><path class="cls-14" d="M1051.05,1885.54a27.54,27.54,0,0,1,3.94.59,13.16,13.16,0,0,1,3.52,1.75,12.35,12.35,0,0,1,0-2.5c0-.31.24-2.34,0-2.5a13.16,13.16,0,0,0-3.52-1.75,27.54,27.54,0,0,0-3.94-.59c.16,0-.23,5,0,5Z" transform="translate(-573.38 -15)"/></g><g class="cls-13"><path class="cls-14" d="M1052.46,1885.67c.68,0,1.35.07,2,.07,0,0,0-5,0-5-.68,0-1.35,0-2-.07,0,0-.11,5,0,5Z" transform="translate(-573.38 -15)"/></g><g class="cls-13"><path class="cls-14" d="M1054.44,1885.74c2.92.19,6.67-.46,9.38.89a16.28,16.28,0,0,1,0-2.5c0-.27.2-2.38,0-2.5-2.71-1.35-6.46-.7-9.38-.89.07,0-.15,5,0,5Z" transform="translate(-573.38 -15)"/></g><g class="cls-13"><path class="cls-14" d="M1061.48,1885.86c.34,0,3.3.24,3.36,0a3.57,3.57,0,0,0,0-.73c0-.59,0-1.18,0-1.77s0-1.17,0-1.76c0-.13.07-.66,0-.74l0,0a5.61,5.61,0,0,1,0,.73c0,.59,0,1.18,0,1.77s0,1.17,0,1.76a2.28,2.28,0,0,0,0,.74.37.37,0,0,0,.19.2s0-.82,0-.73c0-.59,0-1.18,0-1.77s0-1.18,0-1.77c0-.11.06-.67,0-.73a.37.37,0,0,1-.19-.2v5l0,0v-5c-.06.23-3,0-3.36,0,0,0-.08,5,0,5Z" transform="translate(-573.38 -15)"/></g><g class="cls-13"><path class="cls-14" d="M1064.8,1885.93l3,0s.06-5,0-5l-3,0s-.06,5,0,5Z" transform="translate(-573.38 -15)"/></g><g class="cls-13"><path class="cls-14" d="M1067.6,1885.92c2.78,0,5.56,0,8.33.13,0,0,.1-5,0-5-2.77-.1-5.55-.15-8.33-.13,0,0,0,5,0,5Z" transform="translate(-573.38 -15)"/></g><g class="cls-13"><path class="cls-14" d="M1075.2,1886c1.57,0,3.14,0,4.71-.07.09,0,0-5,0-5-1.57.06-3.14.08-4.71.07,0,0,0,5,0,5Z" transform="translate(-573.38 -15)"/></g><g class="cls-13"><path class="cls-14" d="M1079.82,1885.93c2-.13,4-.11,6-.11,0,0,0-5,0-5-2,0-4,0-6,.11-.15,0,.06,5,0,5Z" transform="translate(-573.38 -15)"/></g><g class="cls-13"><path class="cls-14" d="M1085.53,1885.8l5-.17c.09,0,0-5,0-5l-5,.17c-.09,0,0,5,0,5Z" transform="translate(-573.38 -15)"/></g><g class="cls-13"><path class="cls-14" d="M1090.47,1885.59c1.61.11,3.27-.28,4.9-.31l5.42-.06c.06,0,0-5,0-5l-5.42.06c-1.64,0-3.28.42-4.9.31.08,0-.16,5,0,5Z" transform="translate(-573.38 -15)"/></g><g class="cls-13"><path class="cls-14" d="M1099.33,1885.23c2.65-.32,5.59,0,8.18-.68.42-.1-.35-4.92,0-5-2.59.63-5.53.36-8.18.68-.23,0,.16,5,0,5Z" transform="translate(-573.38 -15)"/></g><g class="cls-13"><path class="cls-14" d="M1103.18,1884.93c1.31.06,2.58-.33,3.89-.23-.1,0,.17-5,0-5-1.31-.1-2.58.29-3.89.23,0,0-.11,5,0,5Z" transform="translate(-573.38 -15)"/></g><g class="cls-13"><path class="cls-14" d="M1107.1,1884.71c1.64-.17,3.27-.36,4.91-.57.25,0-.18-5,0-5-1.64.21-3.27.4-4.91.57-.21,0,.12,5,0,5Z" transform="translate(-573.38 -15)"/></g><g class="cls-13"><path class="cls-14" d="M1111.93,1884.1c1.79.32,3.8-.18,5.59-.39.23,0-.15-5,0-5-1.79.21-3.8.71-5.59.39.25,0-.33,4.94,0,5Z" transform="translate(-573.38 -15)"/></g><g class="cls-13"><path class="cls-14" d="M1111.66,1884.34a7.66,7.66,0,0,0,.83,0c.14,0-.07-5,0-5a7.66,7.66,0,0,1-.83,0s-.09,5,0,5Z" transform="translate(-573.38 -15)"/></g><g class="cls-13"><path class="cls-14" d="M1112.93,1884.16a14.52,14.52,0,0,0,1.47-.1,8.38,8.38,0,0,0,1.65-.21,20.36,20.36,0,0,0,0-2.5c0-.2-.09-2.49,0-2.5a8.38,8.38,0,0,1-1.65.21,14.52,14.52,0,0,1-1.47.1c.12,0-.2,5,0,5Z" transform="translate(-573.38 -15)"/></g><g class="cls-13"><path class="cls-14" d="M1116.81,1883.69c2,.15,4-.34,6.06-.27,0,0,.09-5,0-5-2-.07-4,.42-6.06.27.08,0-.15,5,0,5Z" transform="translate(-573.38 -15)"/></g><g class="cls-13"><path class="cls-14" d="M1117.81,1883.64c2.25-.27,4.5-.53,6.74-.84.27,0-.19-5,0-5-2.24.31-4.49.57-6.74.84-.23,0,.16,5,0,5Z" transform="translate(-573.38 -15)"/></g><g class="cls-13"><path class="cls-14" d="M1124.46,1882.78c2.23-.22,4.46-.65,6.69-1,.29,0-.22-5,0-5-2.23.35-4.46.78-6.69,1-.21,0,.12,5,0,5Z" transform="translate(-573.38 -15)"/></g><g class="cls-13"><path class="cls-14" d="M1131,1881.7a10,10,0,0,0,3.14-.42,18.43,18.43,0,0,1,3.2-.69c.12,0,0-5,0-5a18.43,18.43,0,0,0-3.2.69,10,10,0,0,1-3.14.42c.18,0-.25,5,0,5Z" transform="translate(-573.38 -15)"/></g><g class="cls-13"><path class="cls-14" d="M1137.25,1880.56a24.42,24.42,0,0,0,4.4-1,22.48,22.48,0,0,1,4-1.19c.28,0-.2-5,0-5a22.48,22.48,0,0,0-4,1.19,24.42,24.42,0,0,1-4.4,1c-.3,0,.23,5,0,5Z" transform="translate(-573.38 -15)"/></g><g class="cls-13"><path class="cls-14" d="M1152,1869.82a1.49,1.49,0,0,0-.41.42,3,3,0,0,0,0,.73c0,.59,0,1.18,0,1.77s0,1.18,0,1.77a2.56,2.56,0,0,1,0,.73,1.49,1.49,0,0,1,.41-.42,3.73,3.73,0,0,0,0-.73c0-.59,0-1.18,0-1.77s0-1.18,0-1.77a4.63,4.63,0,0,1,0-.73Z" transform="translate(-573.38 -15)"/></g><g class="cls-13"><path class="cls-14" d="M1151.56,1870.25a9.1,9.1,0,0,1-2.19,1.51,6.46,6.46,0,0,0,0,.73V1876a6.47,6.47,0,0,1,0,.74,9.1,9.1,0,0,0,2.19-1.51,4.56,4.56,0,0,0,0-.73c0-.59,0-1.18,0-1.77s0-1.18,0-1.77a3.61,3.61,0,0,1,0-.73Z" transform="translate(-573.38 -15)"/></g><g class="cls-13"><path class="cls-14" d="M1150.6,1871c-.37.27-.75.47-1.14.7a14.29,14.29,0,0,1-1.23.79,4.56,4.56,0,0,0,0,.73c0,.59,0,1.18,0,1.77s0,1.18,0,1.77a6.09,6.09,0,0,1,0,.73,14.29,14.29,0,0,0,1.23-.79c.39-.23.77-.43,1.14-.7a4.55,4.55,0,0,0,0-.73c0-.59,0-1.18,0-1.77s0-1.17,0-1.76a3.71,3.71,0,0,1,0-.74Z" transform="translate(-573.38 -15)"/></g><g class="cls-13"><path class="cls-14" d="M1149,1871.82a10.85,10.85,0,0,0-1.86.87c-.71.34-1.43.63-2.16.9a13.75,13.75,0,0,0,0,2.5,16.18,16.18,0,0,1,0,2.5c.73-.27,1.45-.56,2.16-.9a10.85,10.85,0,0,1,1.86-.87,17.15,17.15,0,0,0,0-2.5,23.47,23.47,0,0,1,0-2.5Z" transform="translate(-573.38 -15)"/></g><g class="cls-13"><path class="cls-14" d="M1152,1874.05a3.33,3.33,0,0,0-1.78.62c-.53.28-1.09.5-1.65.74a6.33,6.33,0,0,0,0,.74c0,.58,0,1.17,0,1.76s0,1.18,0,1.77a6.09,6.09,0,0,1,0,.73c.56-.24,1.12-.46,1.65-.74a3.33,3.33,0,0,1,1.78-.62c-.09,0,.17-5,0-5Z" transform="translate(-573.38 -15)"/></g><g class="cls-13"><path class="cls-14" d="M1152,1878.17c-.69.14-1.34.44-2,.58a9.86,9.86,0,0,1-2.17.21s0,5,0,5a9.86,9.86,0,0,0,2.17-.21c.69-.14,1.34-.44,2-.58a20.3,20.3,0,0,0,0-2.5c0-.19-.08-2.49,0-2.5Z" transform="translate(-573.38 -15)"/></g><g class="cls-13"><path class="cls-14" d="M1152,1881.89l-3,.09a2.56,2.56,0,0,1-2.17-.59,4.24,4.24,0,0,1,0,.74v3.53c0,.14-.06.64,0,.73a2.56,2.56,0,0,0,2.17.59l3-.09c.08,0,0-5,0-5Z" transform="translate(-573.38 -15)"/></g><g class="cls-13"><path class="cls-14" d="M1152,1885.58a15,15,0,0,0-2.68.1,4.47,4.47,0,0,1-2.38,0,19.16,19.16,0,0,1,0,2.5,10.9,10.9,0,0,0,0,2.5,4.47,4.47,0,0,0,2.38,0,15,15,0,0,1,2.68-.1s.12-5,0-5Z" transform="translate(-573.38 -15)"/></g><g class="cls-13"><path class="cls-14" d="M1152,1888c-2.08,0-4.15,0-6.23,0,0,0-.08,5,0,5,2.08.06,4.15.06,6.23,0,.08,0,0-5,0-5Z" transform="translate(-573.38 -15)"/></g><g class="cls-13"><path class="cls-14" d="M1151.74,1888a17.87,17.87,0,0,1-3.39,1.69,4.69,4.69,0,0,0,0,.74c0,.59,0,1.17,0,1.76s0,1.18,0,1.77a6.09,6.09,0,0,1,0,.73,17.87,17.87,0,0,0,3.39-1.69,4.7,4.7,0,0,0,0-.73v-3.53a3.13,3.13,0,0,1,0-.74Z" transform="translate(-573.38 -15)"/></g><g class="cls-13"><path class="cls-14" d="M1148.34,1889.75a11.39,11.39,0,0,0-2,.93,17.49,17.49,0,0,1-2.13.66,15.75,15.75,0,0,0,0,2.5c0,.2.11,2.47,0,2.5a17.49,17.49,0,0,0,2.13-.66,11.39,11.39,0,0,1,2-.93,20.45,20.45,0,0,0,0-2.5c0-.19-.08-2.49,0-2.5Z" transform="translate(-573.38 -15)"/></g><g class="cls-13"><path class="cls-14" d="M1144.28,1891.33a22.35,22.35,0,0,1-4.52,1.48,18.52,18.52,0,0,0,0,2.5c0,.19.09,2.48,0,2.5a22.35,22.35,0,0,0,4.52-1.48,11.45,11.45,0,0,0,0-2.5,13.19,13.19,0,0,1,0-2.5Z" transform="translate(-573.38 -15)"/></g><g class="cls-13"><path class="cls-14" d="M1140.81,1892.58l-5.47,1.63a15.83,15.83,0,0,0,0,2.5,19.15,19.15,0,0,1,0,2.5l5.47-1.63a15.75,15.75,0,0,0,0-2.5,21.25,21.25,0,0,1,0-2.5Z" transform="translate(-573.38 -15)"/></g><g class="cls-13"><path class="cls-14" d="M1139.23,1893.16a3,3,0,0,0-1.27.3,4.68,4.68,0,0,0,0,.74c0,.59,0,1.17,0,1.76s0,1.18,0,1.77a4.53,4.53,0,0,1,0,.73,3,3,0,0,1,1.27-.3c.06,0,0-5,0-5Z" transform="translate(-573.38 -15)"/></g><g class="cls-13"><path class="cls-14" d="M1137.89,1893.59a6.21,6.21,0,0,0-2.76.46,6.51,6.51,0,0,0,0,.73c0,.59,0,1.18,0,1.77s0,1.18,0,1.77c0,.08,0,.72,0,.73a6.21,6.21,0,0,1,2.76-.46c-.06,0,.13-5,0-5Z" transform="translate(-573.38 -15)"/></g><g class="cls-13"><path class="cls-14" d="M1137.49,1893.65c-1.85.57-3.72,1.07-5.61,1.48-.38.08.31,4.93,0,5,1.89-.41,3.76-.91,5.61-1.48a15.83,15.83,0,0,0,0-2.5,19.16,19.16,0,0,1,0-2.5Z" transform="translate(-573.38 -15)"/></g><g class="cls-13"><path class="cls-14" d="M1133,1894.9a28.61,28.61,0,0,0-3.16.79,14,14,0,0,0-2.94.76,11.45,11.45,0,0,0,0,2.5,14.07,14.07,0,0,1,0,2.5,14,14,0,0,1,2.94-.76,28.61,28.61,0,0,1,3.16-.79c.18,0-.11-5,0-5Z" transform="translate(-573.38 -15)"/></g><g class="cls-13"><path class="cls-14" d="M1129.07,1895.93h0s0,5,0,5h0s0-5,0-5Z" transform="translate(-573.38 -15)"/></g><g class="cls-13"><path class="cls-14" d="M1128.86,1895.94a58.66,58.66,0,0,1-6,1.26c-.25,0,.18,5,0,5a58.66,58.66,0,0,0,6-1.26c.41-.09-.33-4.92,0-5Z" transform="translate(-573.38 -15)"/></g><g class="cls-13"><path class="cls-14" d="M1123.21,1897.25a26.06,26.06,0,0,1-3.3.39c-.12,0,0,5,0,5a26.06,26.06,0,0,0,3.3-.39,22.74,22.74,0,0,0,0-2.5c0-.19-.08-2.49,0-2.5Z" transform="translate(-573.38 -15)"/></g><g class="cls-13"><path class="cls-14" d="M1121.38,1897.54a20.57,20.57,0,0,0-2.55.43,8.69,8.69,0,0,0-2.53.51,12.15,12.15,0,0,0,0,2.5,13.13,13.13,0,0,1,0,2.5,8.69,8.69,0,0,1,2.53-.51,20.57,20.57,0,0,1,2.55-.43s.07-5,0-5Z" transform="translate(-573.38 -15)"/></g><g class="cls-13"><path class="cls-14" d="M1120.79,1897.63a26.09,26.09,0,0,1-2.8.53l-3.35.3c-.18,0,.11,5,0,5l3.35-.3c1-.09,1.85-.35,2.8-.53.35-.06-.27-5,0-5Z" transform="translate(-573.38 -15)"/></g><g class="cls-13"><path class="cls-14" d="M1117.81,1898.24c-1.72.4-3.5.47-5.24.8-.34.06.27,5,0,5,1.74-.33,3.52-.4,5.24-.8a18.52,18.52,0,0,0,0-2.5c0-.19-.1-2.48,0-2.5Z" transform="translate(-573.38 -15)"/></g><g class="cls-13"><path class="cls-14" d="M1112.81,1899.11c-1.76.18-3.52.65-5.28.73-.11,0,0,5,0,5,1.76-.08,3.52-.55,5.28-.73.21,0-.14-5,0-5Z" transform="translate(-573.38 -15)"/></g><g class="cls-13"><path class="cls-14" d="M1107.61,1899.81h-.1s0,5,0,5h.1s0-5,0-5Z" transform="translate(-573.38 -15)"/></g><g class="cls-13"><path class="cls-14" d="M1107.09,1904.91s0-5,0-5,0,5,0,5Z" transform="translate(-573.38 -15)"/></g><g class="cls-13"><path class="cls-14" d="M1107.9,1899.88c-.77,0-1.55.08-2.32.07,0,0,0,5,0,5,.77,0,1.55,0,2.32-.07.14,0-.07-5,0-5Z" transform="translate(-573.38 -15)"/></g><g class="cls-13"><path class="cls-14" d="M1105.92,1900c-1.52.23-3,.44-4.55.63-.24,0,.18,5,0,5,1.52-.19,3-.4,4.55-.63.28,0-.21-5,0-5Z" transform="translate(-573.38 -15)"/></g><g class="cls-13"><path class="cls-14" d="M1101.41,1900.57c-1.46-.06-2.9.24-4.36,0,.19,0-.26,5,0,5,1.46.2,2.9-.1,4.36,0,0,0,.11-5,0-5Z" transform="translate(-573.38 -15)"/></g><g class="cls-13"><path class="cls-14" d="M1099.66,1900.6a44.28,44.28,0,0,1-5.75.47c-.07,0,0,5,0,5a44.28,44.28,0,0,0,5.75-.47c.28,0-.2-5,0-5Z" transform="translate(-573.38 -15)"/></g><g class="cls-13"><path class="cls-14" d="M1094.46,1901.09a21.72,21.72,0,0,1-4.49.35s-.08,5,0,5a21.72,21.72,0,0,0,4.49-.35,20.36,20.36,0,0,0,0-2.5c0-.19-.08-2.49,0-2.5Z" transform="translate(-573.38 -15)"/></g><g class="cls-13"><path class="cls-14" d="M1090,1901.45a4.16,4.16,0,0,0-.61,0c-.14,0,.07,5,0,5a4.16,4.16,0,0,1,.61,0s.1-5,0-5Z" transform="translate(-573.38 -15)"/></g><g class="cls-13"><path class="cls-14" d="M1089.22,1906.47s0-5,0-5,0,5,0,5Z" transform="translate(-573.38 -15)"/></g><g class="cls-13"><path class="cls-14" d="M1089.56,1901.49c-1.89.12-3.78.24-5.67.38-.15,0,.09,5,0,5,1.89-.14,3.78-.26,5.67-.38.14,0-.07-5,0-5Z" transform="translate(-573.38 -15)"/></g><g class="cls-13"><path class="cls-14" d="M1083.92,1907s0-5,0-5,0,5,0,5Z" transform="translate(-573.38 -15)"/></g><g class="cls-13"><path class="cls-14" d="M1083.94,1901.85c-1.64,0-3.29,0-4.93.09-.13,0,0,5,0,5,1.64-.09,3.29-.12,4.93-.09,0,0,.07-5,0-5Z" transform="translate(-573.38 -15)"/></g><g class="cls-13"><path class="cls-14" d="M1079,1902c-1.37-.06-2.73-.06-4.1,0-.11,0,0,5,0,5,1.37,0,2.73,0,4.1,0,0,0,.12-5,0-5Z" transform="translate(-573.38 -15)"/></g><g class="cls-13"><path class="cls-14" d="M1075,1902c-1.79,0-3.58,0-5.37,0-.09,0,0,5,0,5,1.79,0,3.58,0,5.37,0,.07,0,0-5,0-5Z" transform="translate(-573.38 -15)"/></g><g class="cls-13"><path class="cls-14" d="M1069.66,1902.08a17.71,17.71,0,0,0-3.17-.08,20.36,20.36,0,0,0,0,2.5c0,.2.08,2.49,0,2.5a17.71,17.71,0,0,1,3.17.08c.06,0,0-5,0-5Z" transform="translate(-573.38 -15)"/></g><g class="cls-13"><path class="cls-14" d="M1066.61,1902c-1,.11-1.94-.15-2.92,0-.22,0,.15,5,0,5,1-.11,1.94.15,2.92,0,.22,0-.15-5,0-5Z" transform="translate(-573.38 -15)"/></g><g class="cls-13"><path class="cls-14" d="M1063.77,1902c-1.09-.1-2.17-.15-3.25-.15a4.33,4.33,0,0,1-2.64-.42,11.71,11.71,0,0,1,0,2.5c0,.32-.24,2.31,0,2.5a4.33,4.33,0,0,0,2.64.42c1.08,0,2.16.05,3.25.15-.11,0,.18-5,0-5Z" transform="translate(-573.38 -15)"/></g><g class="cls-13"><path class="cls-14" d="M1058.5,1901.76h-.37s0,5,0,5h.37s0-5,0-5Z" transform="translate(-573.38 -15)"/></g><g class="cls-13"><path class="cls-14" d="M1057.71,1906.74s0-5,0-5,0,5,0,5Z" transform="translate(-573.38 -15)"/></g><g class="cls-13"><path class="cls-14" d="M1058.21,1901.81a21.61,21.61,0,0,0-3.4-.25c-.14,0,0,5,0,5a21.61,21.61,0,0,1,3.4.25c-.13,0,.19-5,0-5Z" transform="translate(-573.38 -15)"/></g><g class="cls-13"><path class="cls-14" d="M1056,1901.62a20.46,20.46,0,0,1-2.47-.25s0,2.31,0,2.5a22.74,22.74,0,0,0,0,2.5,20.46,20.46,0,0,0,2.47.25s0-5,0-5Z" transform="translate(-573.38 -15)"/></g><g class="cls-13"><path class="cls-14" d="M1055.07,1901.6a16.76,16.76,0,0,1-2.09-.25,10.49,10.49,0,0,1-2.37-.25c.05,0,0,2.31,0,2.5a15.73,15.73,0,0,0,0,2.5,10.49,10.49,0,0,0,2.37.25,18.89,18.89,0,0,0,2.09.25c.22,0-.14-5,0-5Z" transform="translate(-573.38 -15)"/></g><g class="cls-13"><path class="cls-14" d="M1053.83,1901.44h-.07s0,5,0,5h.07s0-5,0-5Z" transform="translate(-573.38 -15)"/></g><g class="cls-13"><path class="cls-14" d="M1053.71,1901.44h-.1s0,5,0,5h.1s0-5,0-5Z" transform="translate(-573.38 -15)"/></g><g class="cls-13"><path class="cls-14" d="M1053.66,1901.46c-.88.08-1.76-.15-2.65-.11a10.37,10.37,0,0,1-2.93-.31c.32.08-.4,4.91,0,5a10,10,0,0,0,2.93.31c.89,0,1.77.19,2.65.11.2,0-.13-5,0-5Z" transform="translate(-573.38 -15)"/></g><g class="cls-13"><path class="cls-14" d="M1048.05,1901.18c-2.7-.9-5.89-.87-8.7-1.13.11,0-.19,5,0,5,2.81.26,6,.23,8.7,1.13-.47-.16.53-4.83,0-5Z" transform="translate(-573.38 -15)"/></g><g class="cls-13"><path class="cls-14" d="M1051.88,1900.61c-4,0-7.33.1-11.09-1.56.59.26-.65,4.71,0,5,3.76,1.66,7.06,1.57,11.09,1.56,0,0,0-5,0-5Z" transform="translate(-573.38 -15)"/></g><g class="cls-13"><path class="cls-14" d="M1048.36,1901.16a4.24,4.24,0,0,1-.8-.19s0,.84,0,.73c0,.59,0,1.18,0,1.77v1.76a3.51,3.51,0,0,0,0,.74,4.24,4.24,0,0,0,.8.19s0-2.31,0-2.5a22.74,22.74,0,0,0,0-2.5Z" transform="translate(-573.38 -15)"/></g><g class="cls-13"><path class="cls-14" d="M1047.58,1901.11c-.81,0-1.58-.34-2.4-.35,0,0-.06,5,0,5,.82,0,1.59.3,2.4.35,0,0,.13-5,0-5Z" transform="translate(-573.38 -15)"/></g><g class="cls-13"><path class="cls-14" d="M1046.26,1901.05a10.8,10.8,0,0,1-2.19-.24s0,2.31,0,2.5a20.36,20.36,0,0,0,0,2.5,10.8,10.8,0,0,0,2.19.24c.14,0-.06-5,0-5Z" transform="translate(-573.38 -15)"/></g><g class="cls-13"><path class="cls-14" d="M1044,1900.85a13.47,13.47,0,0,1-4.46-.7,19.16,19.16,0,0,1,0,2.5,11.49,11.49,0,0,0,0,2.5,13.47,13.47,0,0,0,4.46.7s.11-5,0-5Z" transform="translate(-573.38 -15)"/></g><g class="cls-13"><path class="cls-14" d="M1040.2,1900.45a5.27,5.27,0,0,1-2.91-.63s0,.83,0,.73c0,.59,0,1.18,0,1.77s0,1.17,0,1.76a3,3,0,0,0,0,.74,5.27,5.27,0,0,0,2.91.63c.15,0-.07-5,0-5Z" transform="translate(-573.38 -15)"/></g><g class="cls-13"><path class="cls-14" d="M1040,1899.17a15.81,15.81,0,0,1-6.38-1.48c-2.11-1-3.64-2-6.05-2.23.09,0-.16,5,0,5,2.41.18,3.94,1.2,6.05,2.23a15.81,15.81,0,0,0,6.38,1.48s.13-5,0-5Z" transform="translate(-573.38 -15)"/></g><g class="cls-13"><path class="cls-14" d="M1037.89,1900.16c-.49,0-.94-.24-1.43-.28s-1.09-.06-1.63-.09c.06,0-.13,5,0,5,.54,0,1.09,0,1.63.09s.94.25,1.43.28c-.06,0,.13-5,0-5Z" transform="translate(-573.38 -15)"/></g><g class="cls-13"><path class="cls-14" d="M1037.05,1900.1a3.15,3.15,0,0,1-1.1-.32,8.06,8.06,0,0,0-1.19-.33s0,2.3,0,2.5a17.15,17.15,0,0,0,0,2.5,8.06,8.06,0,0,1,1.19.33,3.09,3.09,0,0,0,1.1.32c.12,0,0-5,0-5Z" transform="translate(-573.38 -15)"/></g><g class="cls-13"><path class="cls-14" d="M1034.78,1899.8a3.13,3.13,0,0,1-1.12-.24,9.44,9.44,0,0,0-1.2-.24s0,2.31,0,2.5a22.74,22.74,0,0,0,0,2.5,9.44,9.44,0,0,1,1.2.24,3.13,3.13,0,0,0,1.12.24c.14,0-.06-5,0-5Z" transform="translate(-573.38 -15)"/></g><g class="cls-13"><path class="cls-14" d="M1033.56,1899.67c-.63-.06-1.22-.34-1.86-.43a9.92,9.92,0,0,1-2-.39,21.09,21.09,0,0,1,0,2.5,11.48,11.48,0,0,0,0,2.5,9.92,9.92,0,0,0,2,.39c.64.09,1.23.37,1.86.43-.12,0,.2-5,0-5Z" transform="translate(-573.38 -15)"/></g><g class="cls-13"><path class="cls-14" d="M1032.49,1899.47a20.55,20.55,0,0,0-3.45-.58s0,5,0,5a20.55,20.55,0,0,1,3.45.58s0-2.31,0-2.5a20.52,20.52,0,0,0,0-2.5Z" transform="translate(-573.38 -15)"/></g><g class="cls-13"><path class="cls-14" d="M1030.05,1899.14a2.13,2.13,0,0,0-1.3-.26s-.06,5,0,5a2.13,2.13,0,0,1,1.3.26,5.38,5.38,0,0,1,0-.73c0-.59,0-1.18,0-1.77s0-1.17,0-1.76c0-.13.06-.66,0-.74Z" transform="translate(-573.38 -15)"/></g><g class="cls-13"><path class="cls-14" d="M1029.14,1899c-1.89-.3-3.8-.5-5.68-.84.25.05-.33,4.94,0,5,1.88.34,3.79.54,5.68.84-.23,0,.3-5,0-5Z" transform="translate(-573.38 -15)"/></g><g class="cls-13"><path class="cls-14" d="M1012.81,1900.61a15,15,0,0,0,3.78.91s.08-5,0-5a15,15,0,0,1-3.78-.91c.07,0,0,2.3,0,2.5a12.84,12.84,0,0,0,0,2.5Z" transform="translate(-573.38 -15)"/></g><g class="cls-13"><path class="cls-14" d="M1016.39,1901.6c1.33.13,2.59.7,3.93.86s2.62.48,3.94.6c-.12,0,.19-5,0-5-1.32-.12-2.62-.44-3.94-.6s-2.6-.73-3.93-.86c.13,0-.19,5,0,5Z" transform="translate(-573.38 -15)"/></g><g class="cls-13"><path class="cls-14" d="M1050.77,1890.09c14-1.78,27.7,4.17,41.59,1.16.38-.08-.31-4.93,0-5-13.89,3-27.64-2.94-41.59-1.16-.24,0,.17,5,0,5Z" transform="translate(-573.38 -15)"/></g><g class="cls-13"><path class="cls-14" d="M1069.61,1889.6c18.09.76,37.79,4.2,54.92-3.1.63-.27-.57-4.76,0-5-17.13,7.3-36.83,3.86-54.92,3.1,0,0-.11,5,0,5Z" transform="translate(-573.38 -15)"/></g><g class="cls-13"><path class="cls-14" d="M1149.05,1875.94c-5.08.43-9.74,2.3-14.67,3.44-5.55,1.27-11.25,1.93-16.87,2.79s-11.27,1.85-16.94,2.53a68,68,0,0,1-8.32.57c-1.75,0-4.2-.64-4.51,1.64-.07.5-.24,4.93,0,5a57.66,57.66,0,0,0,31.16.52c5.17-1.27,10.26-2.87,15.52-3.72,4.6-.75,9.12-1,13.34-3.21.26-.14,0-5,0-5a13.83,13.83,0,0,0-8.61,1.13c-.32.15.16,5,0,5l2.89.08c1.24-.43,1.8,0,1.67,1.14,1.38,1.27,1.59,2.06,3.7,2v-5c-10.26,1-19.8,5.73-30,7.3-10.69,1.63-21.54,1.8-32.31,2.61,0,0-.17,5,0,5,5.29,1.2,10.66,2.44,16.12,2.24s10.94-1.85,16.42-2.66c9.84-1.44,20.1-.92,28.78-6.5.34-.21-.15-5,0-5-18.74-.93-38.23,3.56-56.65,6.66-4.14.7-8.31,1.65-12.51,1.76-5,.13-9.83-1.17-14.8-1.2-1.16,0-3.94-.47-5,.41-1.27,1.1-.6,2.39-2.85,2.74-3.86.58-6.45-3.43-7.08-6.64v5a18.58,18.58,0,0,1,10.4,2.09c2.61,1.22,4.43.23,7.25.16a15.13,15.13,0,0,1,6.06,1.11l1.4.66c.9,1.15,1.52,1.13,1.86,0,1.86-.6,3.41-1.62,3.78-3.49.51-2.5.53-5.25-2.09-5.86-3.58-.83-8.74.21-12.47.31l-13.92.4v5c5.2-.81,9.23,2,13,5.29v-5a20.85,20.85,0,0,1-8,0v5a23.39,23.39,0,0,1,14.14.51v-5c-.6.2-4.63,2.43-4.86,2.34l-.85-2.28a1.14,1.14,0,0,1-1.76-.4v5a14.72,14.72,0,0,1,11.43.17v-5a11.17,11.17,0,0,1-4.63.42v5a147.26,147.26,0,0,1,26.31.07c-.21,0,.32-4.92,0-5-4.2-1.09-7.78-3.32-11.77-5a19.45,19.45,0,0,0-5.79-1.58c-1.25-.1-4.87.87-5.16,0v5c1.27-2.14,8.73-.7,11-.44a79.66,79.66,0,0,1,12.71,2.63c-.41-.12.48-4.86,0-5a75.9,75.9,0,0,0-18.26-3c-4.4-.17-5.47-.32-5.46,3.69,0,.49-.24,1.72,0,2.12.52.79,4.52,0,6,.2,6,.87,10.91,4.89,16.71,6.4v-5a147.26,147.26,0,0,0-26.31-.07c-.07,0-.06,5,0,5a11.17,11.17,0,0,0,4.63-.42,33.38,33.38,0,0,0,0-5,14.72,14.72,0,0,0-11.43-.17,24.57,24.57,0,0,0,0,5,1.14,1.14,0,0,0,1.76.4l.85,2.28c.23.09,4.26-2.14,4.86-2.34a34.77,34.77,0,0,0,0-5,23.32,23.32,0,0,0-14.14-.51,41.7,41.7,0,0,0,0,5,21.06,21.06,0,0,0,8,0s.25-4.78,0-5c-3.77-3.29-7.78-6.1-13-5.29-.2,0,.1,5,0,5l15.91-.45c3-.09,10.46-1.79,12.56.81v-5c-.15,1.41-.73,1.62-1.81,2.3-.32.2-2.3,1.79-2.5,1.83-.64.13-3.21-1.69-4.18-2a15,15,0,0,0-5.37-.54c-3.29.26-4.16.82-7.17-.58a17.77,17.77,0,0,0-9.71-1.73c-.07,0-.08,4.58,0,5,.63,3.21,3.22,7.22,7.08,6.64,2-.3,1.52-1.44,2.7-2.31,1.38-1,3.2-.85,5.1-.84,5,0,9.83,1.31,14.8,1.2,4.2-.09,8.38-1.06,12.51-1.76,18.41-3.1,37.91-7.59,56.65-6.66v-5c-8.67,5.58-19,5.06-28.78,6.5-5.2.77-10.29,2.29-15.55,2.61-5.76.35-11.4-.92-17-2.19v5c10.77-.81,21.62-1,32.31-2.61,10.22-1.57,19.76-6.3,30-7.3.16,0-.06-5,0-5-2.11.07-2.32-.72-3.7-2,.13-1.19-.43-1.57-1.67-1.14l-2.89-.08v5a13.88,13.88,0,0,1,8.61-1.13v-5c-4,2-8.21,2.44-12.58,3.1-5.53.83-10.86,2.49-16.28,3.83a57.66,57.66,0,0,1-31.16-.52v5c.42-3.1,9.35-1.81,11.91-2.09,6-.67,11.92-1.74,17.86-2.65,5.35-.82,10.75-1.48,16-2.62s10.15-3.16,15.5-3.61c.17,0-.1-5,0-5Z" transform="translate(-573.38 -15)"/></g><g class="cls-13"><path class="cls-14" d="M1252.24,1893.17c9.78-.57,19.26.24,29,1.37,10.36,1.21,20.15-.21,30.32-2.22.35-.07-.28-5,0-5-10.17,2-20,3.43-30.32,2.22-9.69-1.13-19.17-1.94-29-1.37-.13,0,.06,5,0,5Z" transform="translate(-573.38 -15)"/></g><g class="cls-13"><path class="cls-14" d="M1198,1874.84s0-5,0-5,0,5,0,5Z" transform="translate(-573.38 -15)"/></g><g class="cls-13"><path class="cls-14" d="M1198,1874.8s0-5,0-5,0,5,0,5Z" transform="translate(-573.38 -15)"/></g><g class="cls-13"><path class="cls-14" d="M1198,1874.81c2.9,2.75,7,3.17,10.46,4.85-.62-.3.68-4.68,0-5-3.49-1.68-7.56-2.09-10.46-4.85.23.22,0,2.15,0,2.5s-.29,2.21,0,2.5Z" transform="translate(-573.38 -15)"/></g><g class="cls-13"><path class="cls-14" d="M1198,1879.54h.24s0-5,0-5H1198s0,5,0,5Z" transform="translate(-573.38 -15)"/></g><g class="cls-13"><path class="cls-14" d="M1198.25,1879.6a1.3,1.3,0,0,1,.44.06c-.07,0,0-2.29,0-2.5,0-.59,0-1.18,0-1.77a3.42,3.42,0,0,0,0-.73,1.3,1.3,0,0,0-.44-.06c-.08,0,0,5,0,5Z" transform="translate(-573.38 -15)"/></g><g class="cls-13"><path class="cls-14" d="M1198.49,1879.68c1.7.07,3.28,1.13,5,1.49,2,.45,4,1,5.92,1.65-.45-.15.52-4.84,0-5-2-.63-3.91-1.2-5.92-1.65-1.68-.36-3.26-1.42-5-1.49,0,0-.11,5,0,5Z" transform="translate(-573.38 -15)"/></g><g class="cls-13"><path class="cls-14" d="M1198,1883.43l.42,0c.18,0-.12-5,0-5l-.42,0c-.18,0,.11,5,0,5Z" transform="translate(-573.38 -15)"/></g><g class="cls-13"><path class="cls-14" d="M1198,1887.06a3.87,3.87,0,0,0,.68,0c.1,0,0-5,0-5a3.87,3.87,0,0,1-.68,0s0,2.31,0,2.5a22.74,22.74,0,0,0,0,2.5Z" transform="translate(-573.38 -15)"/></g><g class="cls-13"><path class="cls-14" d="M1198,1890.9a1.7,1.7,0,0,1,.71,0c-.06,0,0-2.3,0-2.5,0-.59,0-1.18,0-1.77a4.23,4.23,0,0,0,0-.73,1.7,1.7,0,0,0-.71,0c-.07,0,0,2.3,0,2.5s0,2.49,0,2.5Z" transform="translate(-573.38 -15)"/></g><g class="cls-13"><path class="cls-14" d="M1198,1893.2c.41,0,.81-.06,1.22-.12.08,0,0-2.31,0-2.5s-.07-2.5,0-2.5c-.41.06-.81.1-1.22.12-.11,0,0,5,0,5Z" transform="translate(-573.38 -15)"/></g><g class="cls-13"><path class="cls-14" d="M1198.37,1883.7a8.83,8.83,0,0,1,1.54,0s0-2.31,0-2.5.06-2.49,0-2.5a8.83,8.83,0,0,0-1.54,0c-.14,0,.06,5,0,5Z" transform="translate(-573.38 -15)"/></g><g class="cls-13"><path class="cls-14" d="M1198.57,1888.22h3.14s0-5,0-5h-3.14s0,5,0,5Z" transform="translate(-573.38 -15)"/></g><g class="cls-13"><path class="cls-14" d="M1199.55,1883.88a11.7,11.7,0,0,1,5.22,1.63,15.58,15.58,0,0,0,4.85,1.43c-.18,0,.26-5,0-5a15.58,15.58,0,0,1-4.85-1.43,11.7,11.7,0,0,0-5.22-1.63s0,5,0,5Z" transform="translate(-573.38 -15)"/></g><g class="cls-13"><path class="cls-14" d="M1200.41,1888.61a22.3,22.3,0,0,1,3.37,0c.88.14,1.15.54,1.84,1.09,1.93,1.57,4.22,1.6,6.61,1.48.12,0-.06-5,0-5-2.4.12-4.67.09-6.61-1.48a4.2,4.2,0,0,0-1.6-1.08,16.13,16.13,0,0,0-3.61,0s0,5,0,5Z" transform="translate(-573.38 -15)"/></g><g class="cls-13"><path class="cls-14" d="M1199,1891.74c3-.27,5.89-.44,8.65.92,3.25,1.59,4.78,1.41,8.22.34.5-.16-.44-4.86,0-5-3.45,1.07-4.94,1.27-8.22-.34-2.76-1.36-5.67-1.19-8.65-.92-.19,0,.11,5,0,5Z" transform="translate(-573.38 -15)"/></g><g class="cls-13"><path class="cls-14" d="M1199,1893.15c2.19-.16,4,.84,6.11,1.38a24.92,24.92,0,0,0,6.83.71c.07,0,0-5,0-5a24.92,24.92,0,0,1-6.83-.71c-2.07-.54-3.92-1.54-6.11-1.38-.15,0,.08,5,0,5Z" transform="translate(-573.38 -15)"/></g><g class="cls-13"><path class="cls-14" d="M1199,1893.14a10.37,10.37,0,0,0,2.14,1l2.36,1a19.15,19.15,0,0,1,0-2.5,10.36,10.36,0,0,0,0-2.5l-2.36-1a10.37,10.37,0,0,1-2.14-1s0,.83,0,.74c0,.59,0,1.17,0,1.76s0,1.18,0,1.77c0,.12-.06.68,0,.73Z" transform="translate(-573.38 -15)"/></g><g class="cls-13"><path class="cls-14" d="M1201.58,1894.36a8.5,8.5,0,0,0,3.87,1c.11,0,0-5,0-5a8.5,8.5,0,0,1-3.87-1,15,15,0,0,1,0,2.5v1.76a3,3,0,0,0,0,.74Z" transform="translate(-573.38 -15)"/></g><g class="cls-13"><path class="cls-14" d="M1203.41,1895.27l6.09,2.26a23.64,23.64,0,0,1,0-2.5,10.86,10.86,0,0,0,0-2.5l-6.09-2.26a23.64,23.64,0,0,1,0,2.5,10.86,10.86,0,0,0,0,2.5Z" transform="translate(-573.38 -15)"/></g><g class="cls-13"><path class="cls-14" d="M1209.45,1897.52c.64.28,1.34.42,2,.68a8.26,8.26,0,0,0,2.26.46c-.15,0,.22-5,0-5a8.26,8.26,0,0,1-2.26-.46c-.66-.26-1.36-.4-2-.68a19.27,19.27,0,0,1,0,2.5c0,.59,0,1.18,0,1.77a2.87,2.87,0,0,0,0,.73Z" transform="translate(-573.38 -15)"/></g><g class="cls-13"><path class="cls-14" d="M1212.86,1898.55a34.58,34.58,0,0,0,5.21,1.42c-.24,0,.3-5,0-5a34.58,34.58,0,0,1-5.21-1.42c.08,0,0,2.29,0,2.5a11.44,11.44,0,0,0,0,2.5Z" transform="translate(-573.38 -15)"/></g><g class="cls-13"><path class="cls-14" d="M1217.6,1900c1.66.41,3.32.78,5,1.1-.28,0,.35-4.93,0-5-1.68-.32-3.34-.69-5-1.1.06,0,0,2.3,0,2.5a14.64,14.64,0,0,0,0,2.5Z" transform="translate(-573.38 -15)"/></g><g class="cls-13"><path class="cls-14" d="M1212.56,1896.64c2.43,0,4.87-.05,7.3,0a9.42,9.42,0,0,1,2.89.34,4.68,4.68,0,0,0,2.46.52c.29,0-.22-5,0-5a4.68,4.68,0,0,1-2.46-.52,9.42,9.42,0,0,0-2.89-.34c-2.43,0-4.87,0-7.3,0,0,0,0,5,0,5Z" transform="translate(-573.38 -15)"/></g><g class="cls-13"><path class="cls-14" d="M1209,1889.61c4.31-.42,8,1,12.09,2a45.51,45.51,0,0,0,12.85,1.18c.11,0,0-5,0-5a45.15,45.15,0,0,1-12.85-1.18c-4.08-1-7.81-2.37-12.09-2-.2,0,.12,5,0,5Z" transform="translate(-573.38 -15)"/></g><g class="cls-13"><path class="cls-14" d="M1214.59,1893.73c11.34-.13,22.74.61,34.06.14.1,0,0-5,0-5-11.32.47-22.72-.27-34.06-.14,0,0,0,5,0,5Z" transform="translate(-573.38 -15)"/></g><g class="cls-13"><path class="cls-14" d="M1207,1885.19c4.32.2,8.38,1.49,12.63,2.12,4,.6,8.06.76,12,1.6,3.72.8,7.31,2.11,11,2.92,4,.86,8,1,12,1.68-.23,0,.3-5,0-5-4-.64-8.06-.81-12-1.68-3.72-.82-7.31-2.12-11-2.92-4-.84-8-1-12-1.6-4.24-.64-8.32-1.92-12.63-2.12,0,0-.11,5,0,5Z" transform="translate(-573.38 -15)"/></g><g class="cls-13"><path class="cls-14" d="M1224.66,1894.94c5.22,1.19,10.07,3.86,15.51,4,5.65.14,11.08-1.91,16.75-1.76,0,0,.09-5,0-5-5.68-.15-11.1,1.91-16.75,1.76-5.44-.14-10.29-2.81-15.51-4,.33.08-.39,4.92,0,5Z" transform="translate(-573.38 -15)"/></g><g class="cls-13"><path class="cls-14" d="M1241.71,1895.31c2.48.13,5-.12,7.43,0a34.56,34.56,0,0,1,6.38,1.14c-.32-.07.4-4.91,0-5a32.83,32.83,0,0,0-6.38-1.14c-2.48-.08-5,.16-7.43,0,0,0-.12,5,0,5Z" transform="translate(-573.38 -15)"/></g><g class="cls-13"><path class="cls-14" d="M1207.94,1882.47c8.2.13,16,3.65,23.84,5.72a208.65,208.65,0,0,0,25.73,5c-.18,0,.25-5,0-5a208.65,208.65,0,0,1-25.73-5c-7.84-2.06-15.64-5.59-23.84-5.72,0,0-.07,5,0,5Z" transform="translate(-573.38 -15)"/></g><g class="cls-13"><path class="cls-14" d="M1221.48,1898.12c13.3-.79,26.28,3.23,39.59,3,13.69-.21,27.41-1.29,41.08-2,.12,0-.05-5,0-5-13.67.7-27.39,1.78-41.08,2-13.31.21-26.29-3.81-39.59-3-.14,0,.06,5,0,5Z" transform="translate(-573.38 -15)"/></g><g class="cls-13"><path class="cls-14" d="M1208,1879.33a17.38,17.38,0,0,0,3.84,1.08c-.06,0,0-2.31,0-2.5a15.83,15.83,0,0,0,0-2.5,17.38,17.38,0,0,1-3.84-1.08,15.09,15.09,0,0,1,0,2.5c0,.59,0,1.18,0,1.77a2.87,2.87,0,0,0,0,.73Z" transform="translate(-573.38 -15)"/></g><g class="cls-13"><path class="cls-14" d="M1208.54,1879.59c.8.19,1.58.4,2.37.61-.07,0,0-2.3,0-2.5,0-.59,0-1.18,0-1.77a4.23,4.23,0,0,0,0-.73c-.79-.21-1.57-.42-2.37-.61.06,0,0,2.3,0,2.5,0,.59,0,1.18,0,1.77a4.32,4.32,0,0,0,0,.73Z" transform="translate(-573.38 -15)"/></g><g class="cls-13"><path class="cls-14" d="M1211.38,1880.24a26.71,26.71,0,0,0,4,.91s0-2.31,0-2.5a15.73,15.73,0,0,0,0-2.5,26.71,26.71,0,0,1-4-.91,21.25,21.25,0,0,1,0,2.5,10.86,10.86,0,0,0,0,2.5Z" transform="translate(-573.38 -15)"/></g><g class="cls-13"><path class="cls-14" d="M1215.3,1881.12a46.49,46.49,0,0,0,5.1.89c-.18,0,.26-5,0-5a46.49,46.49,0,0,1-5.1-.89c.06,0,0,2.3,0,2.5a14.64,14.64,0,0,0,0,2.5Z" transform="translate(-573.38 -15)"/></g><g class="cls-13"><path class="cls-14" d="M1220.4,1882a12.27,12.27,0,0,0,2.07.6c.9.29,1.67.78,2.59,1a29.59,29.59,0,0,1,4.94,1.17c-.58-.25.64-4.72,0-5a29.59,29.59,0,0,0-4.94-1.17,20.41,20.41,0,0,1-2.29-.88,21.63,21.63,0,0,1-2.37-.73,15.08,15.08,0,0,1,0,2.5c0,.28-.2,2.38,0,2.5Z" transform="translate(-573.38 -15)"/></g><g class="cls-13"><path class="cls-14" d="M1220.54,1882c2.16.55,4.39.54,6.55,1.13-.39-.1.46-4.87,0-5-2.15-.59-4.39-.58-6.55-1.13.37.1-.43,4.89,0,5Z" transform="translate(-573.38 -15)"/></g><g class="cls-13"><path class="cls-14" d="M1226.18,1882.9c4.48.29,9,2.21,13,4.07-.6-.28.67-4.7,0-5-4-1.86-8.55-3.78-13-4.07.06,0-.15,5,0,5Z" transform="translate(-573.38 -15)"/></g><g class="cls-13"><path class="cls-14" d="M1229.39,1883.26c1.58.41,3.23.31,4.84.62,2.37.44,4.74.9,7.11,1.35-.27,0,.34-4.93,0-5-2.37-.45-4.74-.91-7.11-1.35-1.61-.31-3.26-.21-4.84-.62.38.1-.45,4.88,0,5Z" transform="translate(-573.38 -15)"/></g><g class="cls-13"><path class="cls-14" d="M1234.75,1883.89c2.12.56,4.42.37,6.6.6a25.35,25.35,0,0,1,6.63,1.64c-.54-.2.59-4.76,0-5a25.35,25.35,0,0,0-6.63-1.64c-2.18-.23-4.48,0-6.6-.6.38.1-.45,4.89,0,5Z" transform="translate(-573.38 -15)"/></g><g class="cls-13"><path class="cls-14" d="M1235.14,1884c1.21.11,2.44.19,3.64.4,0,0,0-2.31,0-2.5a18.66,18.66,0,0,0,0-2.5c-1.2-.21-2.43-.29-3.64-.4.12,0-.19,5,0,5Z" transform="translate(-573.38 -15)"/></g><g class="cls-13"><path class="cls-14" d="M1238.34,1888a40.14,40.14,0,0,1,8.62.62c-.28,0,.34-4.94,0-5a40.14,40.14,0,0,0-8.62-.62c-.08,0,0,5,0,5Z" transform="translate(-573.38 -15)"/></g><g class="cls-13"><path class="cls-14" d="M1242.52,1884.63l3,.27a8,8,0,0,0,2.62.2,17,17,0,0,0,0-2.5c0-.2-.11-2.48,0-2.5a8,8,0,0,1-2.62-.2l-3-.27c.11,0-.19,5,0,5Z" transform="translate(-573.38 -15)"/></g><g class="cls-13"><path class="cls-14" d="M1245.1,1884.81a26.06,26.06,0,0,1,6,1c-.07,0,0-2.3,0-2.5a13.76,13.76,0,0,0,0-2.5,26.06,26.06,0,0,0-6-1s-.11,5,0,5Z" transform="translate(-573.38 -15)"/></g><g class="cls-13"><path class="cls-14" d="M1247.45,1885c5.09-.06,8.8,1.42,12.89,4.4-.77-.56.82-4.4,0-5-4.09-3-7.8-4.46-12.89-4.4-.06,0,0,5,0,5Z" transform="translate(-573.38 -15)"/></g><g class="cls-13"><path class="cls-14" d="M1245.89,1889.08c2.76.11,5.55-.18,8.29.14s5,1.48,7.55,2.22c-.41-.12.49-4.86,0-5-2.53-.74-4.91-1.9-7.55-2.22s-5.53,0-8.29-.14c0,0-.11,5,0,5Z" transform="translate(-573.38 -15)"/></g><g class="cls-13"><path class="cls-14" d="M1251.12,1885.17c1.3.21,2.59.09,3.9.27a24.39,24.39,0,0,0,4.27.19c.1,0,0-5,0-5a24.39,24.39,0,0,1-4.27-.19c-1.31-.18-2.6-.06-3.9-.27.22,0-.29,5,0,5Z" transform="translate(-573.38 -15)"/></g><g class="cls-13"><path class="cls-14" d="M1255.55,1885.49a20.58,20.58,0,0,1,7.4,1,21.25,21.25,0,0,1,0-2.5,10.33,10.33,0,0,0,0-2.5,20.58,20.58,0,0,0-7.4-1s-.06,5,0,5Z" transform="translate(-573.38 -15)"/></g><g class="cls-13"><path class="cls-14" d="M1259.05,1885.54a27.54,27.54,0,0,1,3.94.59,13.16,13.16,0,0,1,3.52,1.75,12.35,12.35,0,0,1,0-2.5c0-.31.24-2.34,0-2.5a13.16,13.16,0,0,0-3.52-1.75,27.54,27.54,0,0,0-3.94-.59c.16,0-.23,5,0,5Z" transform="translate(-573.38 -15)"/></g><g class="cls-13"><path class="cls-14" d="M1260.46,1885.67c.68,0,1.35.07,2,.07,0,0,0-5,0-5-.68,0-1.35,0-2-.07,0,0-.11,5,0,5Z" transform="translate(-573.38 -15)"/></g><g class="cls-13"><path class="cls-14" d="M1262.44,1885.74c2.92.19,6.67-.46,9.38.89a16.28,16.28,0,0,1,0-2.5c0-.27.2-2.38,0-2.5-2.71-1.35-6.46-.7-9.38-.89.07,0-.15,5,0,5Z" transform="translate(-573.38 -15)"/></g><g class="cls-13"><path class="cls-14" d="M1269.48,1885.86c.34,0,3.3.24,3.36,0a3.57,3.57,0,0,0,0-.73c0-.59,0-1.18,0-1.77s0-1.17,0-1.76c0-.13.07-.66,0-.74l0,0a5.61,5.61,0,0,1,0,.73c0,.59,0,1.18,0,1.77s0,1.17,0,1.76a2.28,2.28,0,0,0,0,.74.37.37,0,0,0,.19.2s0-.82,0-.73c0-.59,0-1.18,0-1.77s0-1.18,0-1.77c0-.11.06-.67,0-.73a.37.37,0,0,1-.19-.2v5l0,0v-5c-.06.23-3,0-3.36,0,0,0-.08,5,0,5Z" transform="translate(-573.38 -15)"/></g><g class="cls-13"><path class="cls-14" d="M1272.8,1885.93l3,0s.06-5,0-5l-3,0s-.06,5,0,5Z" transform="translate(-573.38 -15)"/></g><g class="cls-13"><path class="cls-14" d="M1275.6,1885.92c2.78,0,5.56,0,8.33.13,0,0,.1-5,0-5-2.77-.1-5.55-.15-8.33-.13,0,0,0,5,0,5Z" transform="translate(-573.38 -15)"/></g><g class="cls-13"><path class="cls-14" d="M1283.2,1886c1.57,0,3.14,0,4.71-.07.09,0,0-5,0-5-1.57.06-3.14.08-4.71.07,0,0,0,5,0,5Z" transform="translate(-573.38 -15)"/></g><g class="cls-13"><path class="cls-14" d="M1287.82,1885.93c2-.13,4-.11,6-.11,0,0,0-5,0-5-2,0-4,0-6,.11-.15,0,.06,5,0,5Z" transform="translate(-573.38 -15)"/></g><g class="cls-13"><path class="cls-14" d="M1293.53,1885.8l5-.17c.09,0,0-5,0-5l-5,.17c-.09,0,0,5,0,5Z" transform="translate(-573.38 -15)"/></g><g class="cls-13"><path class="cls-14" d="M1298.47,1885.59c1.61.11,3.27-.28,4.9-.31l5.42-.06c.06,0,0-5,0-5l-5.42.06c-1.64,0-3.28.42-4.9.31.08,0-.16,5,0,5Z" transform="translate(-573.38 -15)"/></g><g class="cls-13"><path class="cls-14" d="M1307.33,1885.23c2.65-.32,5.59,0,8.18-.68.42-.1-.35-4.92,0-5-2.59.63-5.53.36-8.18.68-.23,0,.16,5,0,5Z" transform="translate(-573.38 -15)"/></g><g class="cls-13"><path class="cls-14" d="M1311.18,1884.93c1.31.06,2.58-.33,3.89-.23-.1,0,.17-5,0-5-1.31-.1-2.58.29-3.89.23,0,0-.11,5,0,5Z" transform="translate(-573.38 -15)"/></g><g class="cls-13"><path class="cls-14" d="M1315.1,1884.71c1.64-.17,3.27-.36,4.91-.57.25,0-.18-5,0-5-1.64.21-3.27.4-4.91.57-.21,0,.12,5,0,5Z" transform="translate(-573.38 -15)"/></g><g class="cls-13"><path class="cls-14" d="M1319.93,1884.1c1.79.32,3.8-.18,5.59-.39.23,0-.15-5,0-5-1.79.21-3.8.71-5.59.39.25,0-.33,4.94,0,5Z" transform="translate(-573.38 -15)"/></g><g class="cls-13"><path class="cls-14" d="M1319.66,1884.34a7.66,7.66,0,0,0,.83,0c.14,0-.07-5,0-5a7.66,7.66,0,0,1-.83,0s-.09,5,0,5Z" transform="translate(-573.38 -15)"/></g><g class="cls-13"><path class="cls-14" d="M1320.93,1884.16a14.52,14.52,0,0,0,1.47-.1,8.38,8.38,0,0,0,1.65-.21,20.36,20.36,0,0,0,0-2.5c0-.2-.09-2.49,0-2.5a8.38,8.38,0,0,1-1.65.21,14.52,14.52,0,0,1-1.47.1c.12,0-.2,5,0,5Z" transform="translate(-573.38 -15)"/></g><g class="cls-13"><path class="cls-14" d="M1324.81,1883.69c2,.15,4-.34,6.06-.27,0,0,.09-5,0-5-2-.07-4,.42-6.06.27.08,0-.15,5,0,5Z" transform="translate(-573.38 -15)"/></g><g class="cls-13"><path class="cls-14" d="M1325.81,1883.64c2.25-.27,4.5-.53,6.74-.84.27,0-.19-5,0-5-2.24.31-4.49.57-6.74.84-.23,0,.16,5,0,5Z" transform="translate(-573.38 -15)"/></g><g class="cls-13"><path class="cls-14" d="M1332.46,1882.78c2.23-.22,4.46-.65,6.69-1,.29,0-.22-5,0-5-2.23.35-4.46.78-6.69,1-.21,0,.12,5,0,5Z" transform="translate(-573.38 -15)"/></g><g class="cls-13"><path class="cls-14" d="M1339,1881.7a10,10,0,0,0,3.14-.42,18.43,18.43,0,0,1,3.2-.69c.12,0,0-5,0-5a18.43,18.43,0,0,0-3.2.69,10,10,0,0,1-3.14.42c.18,0-.25,5,0,5Z" transform="translate(-573.38 -15)"/></g><g class="cls-13"><path class="cls-14" d="M1345.25,1880.56a24.42,24.42,0,0,0,4.4-1,22.48,22.48,0,0,1,4-1.19c.28,0-.2-5,0-5a22.48,22.48,0,0,0-4,1.19,24.42,24.42,0,0,1-4.4,1c-.3,0,.23,5,0,5Z" transform="translate(-573.38 -15)"/></g><g class="cls-13"><path class="cls-14" d="M1360,1869.82a1.49,1.49,0,0,0-.41.42,3,3,0,0,0,0,.73c0,.59,0,1.18,0,1.77s0,1.18,0,1.77a2.56,2.56,0,0,1,0,.73,1.49,1.49,0,0,1,.41-.42,3.73,3.73,0,0,0,0-.73c0-.59,0-1.18,0-1.77s0-1.18,0-1.77a4.63,4.63,0,0,1,0-.73Z" transform="translate(-573.38 -15)"/></g><g class="cls-13"><path class="cls-14" d="M1359.56,1870.25a9.1,9.1,0,0,1-2.19,1.51,6.46,6.46,0,0,0,0,.73V1876a6.47,6.47,0,0,1,0,.74,9.1,9.1,0,0,0,2.19-1.51,4.56,4.56,0,0,0,0-.73c0-.59,0-1.18,0-1.77s0-1.18,0-1.77a3.61,3.61,0,0,1,0-.73Z" transform="translate(-573.38 -15)"/></g><g class="cls-13"><path class="cls-14" d="M1358.6,1871c-.37.27-.75.47-1.14.7a14.29,14.29,0,0,1-1.23.79,4.56,4.56,0,0,0,0,.73c0,.59,0,1.18,0,1.77s0,1.18,0,1.77a6.09,6.09,0,0,1,0,.73,14.29,14.29,0,0,0,1.23-.79c.39-.23.77-.43,1.14-.7a4.55,4.55,0,0,0,0-.73c0-.59,0-1.18,0-1.77s0-1.17,0-1.76a3.71,3.71,0,0,1,0-.74Z" transform="translate(-573.38 -15)"/></g><g class="cls-13"><path class="cls-14" d="M1357,1871.82a10.85,10.85,0,0,0-1.86.87c-.71.34-1.43.63-2.16.9a13.75,13.75,0,0,0,0,2.5,16.18,16.18,0,0,1,0,2.5c.73-.27,1.45-.56,2.16-.9a10.85,10.85,0,0,1,1.86-.87,17.15,17.15,0,0,0,0-2.5,23.47,23.47,0,0,1,0-2.5Z" transform="translate(-573.38 -15)"/></g><g class="cls-13"><path class="cls-14" d="M1360,1874.05a3.33,3.33,0,0,0-1.78.62c-.53.28-1.09.5-1.65.74a6.33,6.33,0,0,0,0,.74c0,.58,0,1.17,0,1.76s0,1.18,0,1.77a6.09,6.09,0,0,1,0,.73c.56-.24,1.12-.46,1.65-.74a3.33,3.33,0,0,1,1.78-.62c-.09,0,.17-5,0-5Z" transform="translate(-573.38 -15)"/></g><g class="cls-13"><path class="cls-14" d="M1360,1878.17c-.69.14-1.34.44-2,.58a9.86,9.86,0,0,1-2.17.21s0,5,0,5a9.86,9.86,0,0,0,2.17-.21c.69-.14,1.34-.44,2-.58a20.3,20.3,0,0,0,0-2.5c0-.19-.08-2.49,0-2.5Z" transform="translate(-573.38 -15)"/></g><g class="cls-13"><path class="cls-14" d="M1360,1881.89l-3,.09a2.56,2.56,0,0,1-2.17-.59,4.24,4.24,0,0,1,0,.74v3.53c0,.14-.06.64,0,.73a2.56,2.56,0,0,0,2.17.59l3-.09c.08,0,0-5,0-5Z" transform="translate(-573.38 -15)"/></g><g class="cls-13"><path class="cls-14" d="M1360,1885.58a15,15,0,0,0-2.68.1,4.47,4.47,0,0,1-2.38,0,19.16,19.16,0,0,1,0,2.5,10.9,10.9,0,0,0,0,2.5,4.47,4.47,0,0,0,2.38,0,15,15,0,0,1,2.68-.1s.12-5,0-5Z" transform="translate(-573.38 -15)"/></g><g class="cls-13"><path class="cls-14" d="M1360,1888c-2.08,0-4.15,0-6.23,0,0,0-.08,5,0,5,2.08.06,4.15.06,6.23,0,.08,0,0-5,0-5Z" transform="translate(-573.38 -15)"/></g><g class="cls-13"><path class="cls-14" d="M1359.74,1888a17.87,17.87,0,0,1-3.39,1.69,4.69,4.69,0,0,0,0,.74c0,.59,0,1.17,0,1.76s0,1.18,0,1.77a6.09,6.09,0,0,1,0,.73,17.87,17.87,0,0,0,3.39-1.69,4.7,4.7,0,0,0,0-.73v-3.53a3.13,3.13,0,0,1,0-.74Z" transform="translate(-573.38 -15)"/></g><g class="cls-13"><path class="cls-14" d="M1356.34,1889.75a11.39,11.39,0,0,0-2,.93,17.49,17.49,0,0,1-2.13.66,15.75,15.75,0,0,0,0,2.5c0,.2.11,2.47,0,2.5a17.49,17.49,0,0,0,2.13-.66,11.39,11.39,0,0,1,2-.93,20.45,20.45,0,0,0,0-2.5c0-.19-.08-2.49,0-2.5Z" transform="translate(-573.38 -15)"/></g><g class="cls-13"><path class="cls-14" d="M1352.28,1891.33a22.35,22.35,0,0,1-4.52,1.48,18.52,18.52,0,0,0,0,2.5c0,.19.09,2.48,0,2.5a22.35,22.35,0,0,0,4.52-1.48,11.45,11.45,0,0,0,0-2.5,13.19,13.19,0,0,1,0-2.5Z" transform="translate(-573.38 -15)"/></g><g class="cls-13"><path class="cls-14" d="M1348.81,1892.58l-5.47,1.63a15.83,15.83,0,0,0,0,2.5,19.15,19.15,0,0,1,0,2.5l5.47-1.63a15.75,15.75,0,0,0,0-2.5,21.25,21.25,0,0,1,0-2.5Z" transform="translate(-573.38 -15)"/></g><g class="cls-13"><path class="cls-14" d="M1347.23,1893.16a3,3,0,0,0-1.27.3,4.68,4.68,0,0,0,0,.74c0,.59,0,1.17,0,1.76s0,1.18,0,1.77a4.53,4.53,0,0,1,0,.73,3,3,0,0,1,1.27-.3c.06,0,0-5,0-5Z" transform="translate(-573.38 -15)"/></g><g class="cls-13"><path class="cls-14" d="M1345.89,1893.59a6.21,6.21,0,0,0-2.76.46,6.51,6.51,0,0,0,0,.73c0,.59,0,1.18,0,1.77s0,1.18,0,1.77c0,.08,0,.72,0,.73a6.21,6.21,0,0,1,2.76-.46c-.06,0,.13-5,0-5Z" transform="translate(-573.38 -15)"/></g><g class="cls-13"><path class="cls-14" d="M1345.49,1893.65c-1.85.57-3.72,1.07-5.61,1.48-.38.08.31,4.93,0,5,1.89-.41,3.76-.91,5.61-1.48a15.83,15.83,0,0,0,0-2.5,19.16,19.16,0,0,1,0-2.5Z" transform="translate(-573.38 -15)"/></g><g class="cls-13"><path class="cls-14" d="M1341,1894.9a28.61,28.61,0,0,0-3.16.79,14,14,0,0,0-2.94.76,11.45,11.45,0,0,0,0,2.5,14.07,14.07,0,0,1,0,2.5,14,14,0,0,1,2.94-.76,28.61,28.61,0,0,1,3.16-.79c.18,0-.11-5,0-5Z" transform="translate(-573.38 -15)"/></g><g class="cls-13"><path class="cls-14" d="M1337.07,1895.93h0s0,5,0,5h0s0-5,0-5Z" transform="translate(-573.38 -15)"/></g><g class="cls-13"><path class="cls-14" d="M1336.86,1895.94a58.66,58.66,0,0,1-6,1.26c-.25,0,.18,5,0,5a58.66,58.66,0,0,0,6-1.26c.41-.09-.33-4.92,0-5Z" transform="translate(-573.38 -15)"/></g><g class="cls-13"><path class="cls-14" d="M1331.21,1897.25a26.06,26.06,0,0,1-3.3.39c-.12,0,0,5,0,5a26.06,26.06,0,0,0,3.3-.39,22.74,22.74,0,0,0,0-2.5c0-.19-.08-2.49,0-2.5Z" transform="translate(-573.38 -15)"/></g><g class="cls-13"><path class="cls-14" d="M1329.38,1897.54a20.57,20.57,0,0,0-2.55.43,8.69,8.69,0,0,0-2.53.51,12.15,12.15,0,0,0,0,2.5,13.13,13.13,0,0,1,0,2.5,8.69,8.69,0,0,1,2.53-.51,20.57,20.57,0,0,1,2.55-.43s.07-5,0-5Z" transform="translate(-573.38 -15)"/></g><g class="cls-13"><path class="cls-14" d="M1328.79,1897.63a26.09,26.09,0,0,1-2.8.53l-3.35.3c-.18,0,.11,5,0,5l3.35-.3c1-.09,1.85-.35,2.8-.53.35-.06-.27-5,0-5Z" transform="translate(-573.38 -15)"/></g><g class="cls-13"><path class="cls-14" d="M1325.81,1898.24c-1.72.4-3.5.47-5.24.8-.34.06.27,5,0,5,1.74-.33,3.52-.4,5.24-.8a18.52,18.52,0,0,0,0-2.5c0-.19-.1-2.48,0-2.5Z" transform="translate(-573.38 -15)"/></g><g class="cls-13"><path class="cls-14" d="M1320.81,1899.11c-1.76.18-3.52.65-5.28.73-.11,0,0,5,0,5,1.76-.08,3.52-.55,5.28-.73.21,0-.14-5,0-5Z" transform="translate(-573.38 -15)"/></g><g class="cls-13"><path class="cls-14" d="M1315.61,1899.81h-.1s0,5,0,5h.1s0-5,0-5Z" transform="translate(-573.38 -15)"/></g><g class="cls-13"><path class="cls-14" d="M1315.09,1904.91s0-5,0-5,0,5,0,5Z" transform="translate(-573.38 -15)"/></g><g class="cls-13"><path class="cls-14" d="M1315.9,1899.88c-.77,0-1.55.08-2.32.07,0,0,0,5,0,5,.77,0,1.55,0,2.32-.07.14,0-.07-5,0-5Z" transform="translate(-573.38 -15)"/></g><g class="cls-13"><path class="cls-14" d="M1313.92,1900c-1.52.23-3,.44-4.55.63-.24,0,.18,5,0,5,1.52-.19,3-.4,4.55-.63.28,0-.21-5,0-5Z" transform="translate(-573.38 -15)"/></g><g class="cls-13"><path class="cls-14" d="M1309.41,1900.57c-1.46-.06-2.9.24-4.36,0,.19,0-.26,5,0,5,1.46.2,2.9-.1,4.36,0,0,0,.11-5,0-5Z" transform="translate(-573.38 -15)"/></g><g class="cls-13"><path class="cls-14" d="M1307.66,1900.6a44.28,44.28,0,0,1-5.75.47c-.07,0,0,5,0,5a44.28,44.28,0,0,0,5.75-.47c.28,0-.2-5,0-5Z" transform="translate(-573.38 -15)"/></g><g class="cls-13"><path class="cls-14" d="M1302.46,1901.09a21.72,21.72,0,0,1-4.49.35s-.08,5,0,5a21.72,21.72,0,0,0,4.49-.35,20.36,20.36,0,0,0,0-2.5c0-.19-.08-2.49,0-2.5Z" transform="translate(-573.38 -15)"/></g><g class="cls-13"><path class="cls-14" d="M1298,1901.45a4.16,4.16,0,0,0-.61,0c-.14,0,.07,5,0,5a4.16,4.16,0,0,1,.61,0s.1-5,0-5Z" transform="translate(-573.38 -15)"/></g><g class="cls-13"><path class="cls-14" d="M1297.22,1906.47s0-5,0-5,0,5,0,5Z" transform="translate(-573.38 -15)"/></g><g class="cls-13"><path class="cls-14" d="M1297.56,1901.49c-1.89.12-3.78.24-5.67.38-.15,0,.09,5,0,5,1.89-.14,3.78-.26,5.67-.38.14,0-.07-5,0-5Z" transform="translate(-573.38 -15)"/></g><g class="cls-13"><path class="cls-14" d="M1291.92,1907s0-5,0-5,0,5,0,5Z" transform="translate(-573.38 -15)"/></g><g class="cls-13"><path class="cls-14" d="M1291.94,1901.85c-1.64,0-3.29,0-4.93.09-.13,0,0,5,0,5,1.64-.09,3.29-.12,4.93-.09,0,0,.07-5,0-5Z" transform="translate(-573.38 -15)"/></g><g class="cls-13"><path class="cls-14" d="M1287,1902c-1.37-.06-2.73-.06-4.1,0-.11,0,0,5,0,5,1.37,0,2.73,0,4.1,0,0,0,.12-5,0-5Z" transform="translate(-573.38 -15)"/></g><g class="cls-13"><path class="cls-14" d="M1283,1902c-1.79,0-3.58,0-5.37,0-.09,0,0,5,0,5,1.79,0,3.58,0,5.37,0,.07,0,0-5,0-5Z" transform="translate(-573.38 -15)"/></g><g class="cls-13"><path class="cls-14" d="M1277.66,1902.08a17.71,17.71,0,0,0-3.17-.08,20.36,20.36,0,0,0,0,2.5c0,.2.08,2.49,0,2.5a17.71,17.71,0,0,1,3.17.08c.06,0,0-5,0-5Z" transform="translate(-573.38 -15)"/></g><g class="cls-13"><path class="cls-14" d="M1274.61,1902c-1,.11-1.94-.15-2.92,0-.22,0,.15,5,0,5,1-.11,1.94.15,2.92,0,.22,0-.15-5,0-5Z" transform="translate(-573.38 -15)"/></g><g class="cls-13"><path class="cls-14" d="M1271.77,1902c-1.09-.1-2.17-.15-3.25-.15a4.33,4.33,0,0,1-2.64-.42,11.71,11.71,0,0,1,0,2.5c0,.32-.24,2.31,0,2.5a4.33,4.33,0,0,0,2.64.42c1.08,0,2.16.05,3.25.15-.11,0,.18-5,0-5Z" transform="translate(-573.38 -15)"/></g><g class="cls-13"><path class="cls-14" d="M1266.5,1901.76h-.37s0,5,0,5h.37s0-5,0-5Z" transform="translate(-573.38 -15)"/></g><g class="cls-13"><path class="cls-14" d="M1265.71,1906.74s0-5,0-5,0,5,0,5Z" transform="translate(-573.38 -15)"/></g><g class="cls-13"><path class="cls-14" d="M1266.21,1901.81a21.61,21.61,0,0,0-3.4-.25c-.14,0,0,5,0,5a21.61,21.61,0,0,1,3.4.25c-.13,0,.19-5,0-5Z" transform="translate(-573.38 -15)"/></g><g class="cls-13"><path class="cls-14" d="M1264,1901.62a20.46,20.46,0,0,1-2.47-.25s0,2.31,0,2.5a22.74,22.74,0,0,0,0,2.5,20.46,20.46,0,0,0,2.47.25s0-5,0-5Z" transform="translate(-573.38 -15)"/></g><g class="cls-13"><path class="cls-14" d="M1263.07,1901.6a16.76,16.76,0,0,1-2.09-.25,10.49,10.49,0,0,1-2.37-.25c.05,0,0,2.31,0,2.5a15.73,15.73,0,0,0,0,2.5,10.49,10.49,0,0,0,2.37.25,18.89,18.89,0,0,0,2.09.25c.22,0-.14-5,0-5Z" transform="translate(-573.38 -15)"/></g><g class="cls-13"><path class="cls-14" d="M1261.83,1901.44h-.07s0,5,0,5h.07s0-5,0-5Z" transform="translate(-573.38 -15)"/></g><g class="cls-13"><path class="cls-14" d="M1261.71,1901.44h-.1s0,5,0,5h.1s0-5,0-5Z" transform="translate(-573.38 -15)"/></g><g class="cls-13"><path class="cls-14" d="M1261.66,1901.46c-.88.08-1.76-.15-2.65-.11a10.37,10.37,0,0,1-2.93-.31c.32.08-.4,4.91,0,5a10,10,0,0,0,2.93.31c.89,0,1.77.19,2.65.11.2,0-.13-5,0-5Z" transform="translate(-573.38 -15)"/></g><g class="cls-13"><path class="cls-14" d="M1256.05,1901.18c-2.7-.9-5.89-.87-8.7-1.13.11,0-.19,5,0,5,2.81.26,6,.23,8.7,1.13-.47-.16.53-4.83,0-5Z" transform="translate(-573.38 -15)"/></g><g class="cls-13"><path class="cls-14" d="M1259.88,1900.61c-4,0-7.33.1-11.09-1.56.59.26-.65,4.71,0,5,3.76,1.66,7.06,1.57,11.09,1.56,0,0,0-5,0-5Z" transform="translate(-573.38 -15)"/></g><g class="cls-13"><path class="cls-14" d="M1256.36,1901.16a4.24,4.24,0,0,1-.8-.19s0,.84,0,.73c0,.59,0,1.18,0,1.77v1.76a3.51,3.51,0,0,0,0,.74,4.24,4.24,0,0,0,.8.19s0-2.31,0-2.5a22.74,22.74,0,0,0,0-2.5Z" transform="translate(-573.38 -15)"/></g><g class="cls-13"><path class="cls-14" d="M1255.58,1901.11c-.81,0-1.58-.34-2.4-.35,0,0-.06,5,0,5,.82,0,1.59.3,2.4.35,0,0,.13-5,0-5Z" transform="translate(-573.38 -15)"/></g><g class="cls-13"><path class="cls-14" d="M1254.26,1901.05a10.8,10.8,0,0,1-2.19-.24s0,2.31,0,2.5a20.36,20.36,0,0,0,0,2.5,10.8,10.8,0,0,0,2.19.24c.14,0-.06-5,0-5Z" transform="translate(-573.38 -15)"/></g><g class="cls-13"><path class="cls-14" d="M1252,1900.85a13.47,13.47,0,0,1-4.46-.7,19.16,19.16,0,0,1,0,2.5,11.49,11.49,0,0,0,0,2.5,13.47,13.47,0,0,0,4.46.7s.11-5,0-5Z" transform="translate(-573.38 -15)"/></g><g class="cls-13"><path class="cls-14" d="M1248.2,1900.45a5.27,5.27,0,0,1-2.91-.63s0,.83,0,.73c0,.59,0,1.18,0,1.77s0,1.17,0,1.76a3,3,0,0,0,0,.74,5.27,5.27,0,0,0,2.91.63c.15,0-.07-5,0-5Z" transform="translate(-573.38 -15)"/></g><g class="cls-13"><path class="cls-14" d="M1248,1899.17a15.81,15.81,0,0,1-6.38-1.48c-2.11-1-3.64-2-6.05-2.23.09,0-.16,5,0,5,2.41.18,3.94,1.2,6.05,2.23a15.81,15.81,0,0,0,6.38,1.48s.13-5,0-5Z" transform="translate(-573.38 -15)"/></g><g class="cls-13"><path class="cls-14" d="M1245.89,1900.16c-.49,0-.94-.24-1.43-.28s-1.09-.06-1.63-.09c.06,0-.13,5,0,5,.54,0,1.09,0,1.63.09s.94.25,1.43.28c-.06,0,.13-5,0-5Z" transform="translate(-573.38 -15)"/></g><g class="cls-13"><path class="cls-14" d="M1245.05,1900.1a3.15,3.15,0,0,1-1.1-.32,8.06,8.06,0,0,0-1.19-.33s0,2.3,0,2.5a17.15,17.15,0,0,0,0,2.5,8.06,8.06,0,0,1,1.19.33,3.09,3.09,0,0,0,1.1.32c.12,0,0-5,0-5Z" transform="translate(-573.38 -15)"/></g><g class="cls-13"><path class="cls-14" d="M1242.78,1899.8a3.13,3.13,0,0,1-1.12-.24,9.44,9.44,0,0,0-1.2-.24s0,2.31,0,2.5a22.74,22.74,0,0,0,0,2.5,9.44,9.44,0,0,1,1.2.24,3.13,3.13,0,0,0,1.12.24c.14,0-.06-5,0-5Z" transform="translate(-573.38 -15)"/></g><g class="cls-13"><path class="cls-14" d="M1241.56,1899.67c-.63-.06-1.22-.34-1.86-.43a9.92,9.92,0,0,1-2-.39,21.09,21.09,0,0,1,0,2.5,11.48,11.48,0,0,0,0,2.5,9.92,9.92,0,0,0,2,.39c.64.09,1.23.37,1.86.43-.12,0,.2-5,0-5Z" transform="translate(-573.38 -15)"/></g><g class="cls-13"><path class="cls-14" d="M1240.49,1899.47a20.55,20.55,0,0,0-3.45-.58s0,5,0,5a20.55,20.55,0,0,1,3.45.58s0-2.31,0-2.5a20.52,20.52,0,0,0,0-2.5Z" transform="translate(-573.38 -15)"/></g><g class="cls-13"><path class="cls-14" d="M1238.05,1899.14a2.13,2.13,0,0,0-1.3-.26s-.06,5,0,5a2.13,2.13,0,0,1,1.3.26,5.38,5.38,0,0,1,0-.73c0-.59,0-1.18,0-1.77s0-1.17,0-1.76c0-.13.06-.66,0-.74Z" transform="translate(-573.38 -15)"/></g><g class="cls-13"><path class="cls-14" d="M1237.14,1899c-1.89-.3-3.8-.5-5.68-.84.25.05-.33,4.94,0,5,1.88.34,3.79.54,5.68.84-.23,0,.3-5,0-5Z" transform="translate(-573.38 -15)"/></g><g class="cls-13"><path class="cls-14" d="M1220.81,1900.61a15,15,0,0,0,3.78.91s.08-5,0-5a15,15,0,0,1-3.78-.91c.07,0,0,2.3,0,2.5a12.84,12.84,0,0,0,0,2.5Z" transform="translate(-573.38 -15)"/></g><g class="cls-13"><path class="cls-14" d="M1224.39,1901.6c1.33.13,2.59.7,3.93.86s2.62.48,3.94.6c-.12,0,.19-5,0-5-1.32-.12-2.62-.44-3.94-.6s-2.6-.73-3.93-.86c.13,0-.19,5,0,5Z" transform="translate(-573.38 -15)"/></g><g class="cls-13"><path class="cls-14" d="M1258.77,1890.09c14-1.78,27.7,4.17,41.59,1.16.38-.08-.31-4.93,0-5-13.89,3-27.64-2.94-41.59-1.16-.24,0,.17,5,0,5Z" transform="translate(-573.38 -15)"/></g><g class="cls-13"><path class="cls-14" d="M1277.61,1889.6c18.09.76,37.79,4.2,54.92-3.1.63-.27-.57-4.76,0-5-17.13,7.3-36.83,3.86-54.92,3.1,0,0-.11,5,0,5Z" transform="translate(-573.38 -15)"/></g><g class="cls-13"><path class="cls-14" d="M1357.05,1875.94c-5.08.43-9.74,2.3-14.67,3.44-5.55,1.27-11.25,1.93-16.87,2.79s-11.27,1.85-16.94,2.53a68,68,0,0,1-8.32.57c-1.75,0-4.2-.64-4.51,1.64-.07.5-.24,4.93,0,5a57.66,57.66,0,0,0,31.16.52c5.17-1.27,10.26-2.87,15.52-3.72,4.6-.75,9.12-1,13.34-3.21.26-.14,0-5,0-5a13.83,13.83,0,0,0-8.61,1.13c-.32.15.16,5,0,5l2.89.08c1.24-.43,1.8,0,1.67,1.14,1.38,1.27,1.59,2.06,3.7,2v-5c-10.26,1-19.8,5.73-30,7.3-10.69,1.63-21.54,1.8-32.31,2.61,0,0-.17,5,0,5,5.29,1.2,10.66,2.44,16.12,2.24s10.94-1.85,16.42-2.66c9.84-1.44,20.1-.92,28.78-6.5.34-.21-.15-5,0-5-18.74-.93-38.23,3.56-56.65,6.66-4.14.7-8.31,1.65-12.51,1.76-5,.13-9.83-1.17-14.8-1.2-1.16,0-3.94-.47-5,.41-1.27,1.1-.6,2.39-2.85,2.74-3.86.58-6.45-3.43-7.08-6.64v5a18.58,18.58,0,0,1,10.4,2.09c2.61,1.22,4.43.23,7.25.16a15.13,15.13,0,0,1,6.06,1.11l1.4.66c.9,1.15,1.52,1.13,1.86,0,1.86-.6,3.41-1.62,3.78-3.49.51-2.5.53-5.25-2.09-5.86-3.58-.83-8.74.21-12.47.31l-13.92.4v5c5.2-.81,9.23,2,13,5.29v-5a20.85,20.85,0,0,1-8,0v5a23.39,23.39,0,0,1,14.14.51v-5c-.6.2-4.63,2.43-4.86,2.34l-.85-2.28a1.14,1.14,0,0,1-1.76-.4v5a14.72,14.72,0,0,1,11.43.17v-5a11.17,11.17,0,0,1-4.63.42v5a147.26,147.26,0,0,1,26.31.07c-.21,0,.32-4.92,0-5-4.2-1.09-7.78-3.32-11.77-5a19.45,19.45,0,0,0-5.79-1.58c-1.25-.1-4.87.87-5.16,0v5c1.27-2.14,8.73-.7,11-.44a79.66,79.66,0,0,1,12.71,2.63c-.41-.12.48-4.86,0-5a75.9,75.9,0,0,0-18.26-3c-4.4-.17-5.47-.32-5.46,3.69,0,.49-.24,1.72,0,2.12.52.79,4.52,0,6,.2,6,.87,10.91,4.89,16.71,6.4v-5a147.26,147.26,0,0,0-26.31-.07c-.07,0-.06,5,0,5a11.17,11.17,0,0,0,4.63-.42,33.38,33.38,0,0,0,0-5,14.72,14.72,0,0,0-11.43-.17,24.57,24.57,0,0,0,0,5,1.14,1.14,0,0,0,1.76.4l.85,2.28c.23.09,4.26-2.14,4.86-2.34a34.77,34.77,0,0,0,0-5,23.32,23.32,0,0,0-14.14-.51,41.7,41.7,0,0,0,0,5,21.06,21.06,0,0,0,8,0s.25-4.78,0-5c-3.77-3.29-7.78-6.1-13-5.29-.2,0,.1,5,0,5l15.91-.45c3-.09,10.46-1.79,12.56.81v-5c-.15,1.41-.73,1.62-1.81,2.3-.32.2-2.3,1.79-2.5,1.83-.64.13-3.21-1.69-4.18-2a15,15,0,0,0-5.37-.54c-3.29.26-4.16.82-7.17-.58a17.77,17.77,0,0,0-9.71-1.73c-.07,0-.08,4.58,0,5,.63,3.21,3.22,7.22,7.08,6.64,2-.3,1.52-1.44,2.7-2.31,1.38-1,3.2-.85,5.1-.84,5,0,9.83,1.31,14.8,1.2,4.2-.09,8.38-1.06,12.51-1.76,18.41-3.1,37.91-7.59,56.65-6.66v-5c-8.67,5.58-19,5.06-28.78,6.5-5.2.77-10.29,2.29-15.55,2.61-5.76.35-11.4-.92-17-2.19v5c10.77-.81,21.62-1,32.31-2.61,10.22-1.57,19.76-6.3,30-7.3.16,0-.06-5,0-5-2.11.07-2.32-.72-3.7-2,.13-1.19-.43-1.57-1.67-1.14l-2.89-.08v5a13.88,13.88,0,0,1,8.61-1.13v-5c-4,2-8.21,2.44-12.58,3.1-5.53.83-10.86,2.49-16.28,3.83a57.66,57.66,0,0,1-31.16-.52v5c.42-3.1,9.35-1.81,11.91-2.09,6-.67,11.92-1.74,17.86-2.65,5.35-.82,10.75-1.48,16-2.62s10.15-3.16,15.5-3.61c.17,0-.1-5,0-5Z" transform="translate(-573.38 -15)"/></g><g class="cls-13"><path class="cls-14" d="M2565.24,1891.17c9.78-.57,19.26.24,29,1.37,10.36,1.21,20.15-.21,30.32-2.22.35-.07-.28-5,0-5-10.17,2-20,3.43-30.32,2.22-9.69-1.13-19.17-1.94-29-1.37-.13,0,.06,5,0,5Z" transform="translate(-573.38 -15)"/></g><g class="cls-13"><path class="cls-14" d="M2511,1872.84s0-5,0-5,0,5,0,5Z" transform="translate(-573.38 -15)"/></g><g class="cls-13"><path class="cls-14" d="M2511,1872.8s0-5,0-5,0,5,0,5Z" transform="translate(-573.38 -15)"/></g><g class="cls-13"><path class="cls-14" d="M2511,1872.81c2.9,2.75,7,3.17,10.46,4.85-.62-.3.68-4.68,0-5-3.49-1.68-7.56-2.09-10.46-4.85.23.22,0,2.15,0,2.5s-.29,2.21,0,2.5Z" transform="translate(-573.38 -15)"/></g><g class="cls-13"><path class="cls-14" d="M2511,1877.54h.24s0-5,0-5H2511s0,5,0,5Z" transform="translate(-573.38 -15)"/></g><g class="cls-13"><path class="cls-14" d="M2511.25,1877.6a1.3,1.3,0,0,1,.44.06c-.07,0,0-2.29,0-2.5,0-.59,0-1.18,0-1.77a3.42,3.42,0,0,0,0-.73,1.3,1.3,0,0,0-.44-.06c-.08,0,0,5,0,5Z" transform="translate(-573.38 -15)"/></g><g class="cls-13"><path class="cls-14" d="M2511.49,1877.68c1.7.07,3.28,1.13,5,1.49,2,.45,4,1,5.92,1.65-.45-.15.52-4.84,0-5-2-.63-3.91-1.2-5.92-1.65-1.68-.36-3.26-1.42-5-1.49,0,0-.11,5,0,5Z" transform="translate(-573.38 -15)"/></g><g class="cls-13"><path class="cls-14" d="M2511,1881.43l.42,0c.18,0-.12-5,0-5l-.42,0c-.18,0,.11,5,0,5Z" transform="translate(-573.38 -15)"/></g><g class="cls-13"><path class="cls-14" d="M2511,1885.06a3.87,3.87,0,0,0,.68,0c.1,0,0-5,0-5a3.87,3.87,0,0,1-.68,0s0,2.31,0,2.5a22.74,22.74,0,0,0,0,2.5Z" transform="translate(-573.38 -15)"/></g><g class="cls-13"><path class="cls-14" d="M2511,1888.9a1.7,1.7,0,0,1,.71,0c-.06,0,0-2.3,0-2.5,0-.59,0-1.18,0-1.77a4.23,4.23,0,0,0,0-.73,1.7,1.7,0,0,0-.71,0c-.07,0,0,2.3,0,2.5s0,2.49,0,2.5Z" transform="translate(-573.38 -15)"/></g><g class="cls-13"><path class="cls-14" d="M2511,1891.2c.41,0,.81-.06,1.22-.12.08,0,0-2.31,0-2.5s-.07-2.5,0-2.5c-.41.06-.81.1-1.22.12-.11,0,0,5,0,5Z" transform="translate(-573.38 -15)"/></g><g class="cls-13"><path class="cls-14" d="M2511.37,1881.7a8.83,8.83,0,0,1,1.54,0s0-2.31,0-2.5.06-2.49,0-2.5a8.83,8.83,0,0,0-1.54,0c-.14,0,.06,5,0,5Z" transform="translate(-573.38 -15)"/></g><g class="cls-13"><path class="cls-14" d="M2511.57,1886.22h3.14s0-5,0-5h-3.14s0,5,0,5Z" transform="translate(-573.38 -15)"/></g><g class="cls-13"><path class="cls-14" d="M2512.55,1881.88a11.7,11.7,0,0,1,5.22,1.63,15.58,15.58,0,0,0,4.85,1.43c-.18,0,.26-5,0-5a15.58,15.58,0,0,1-4.85-1.43,11.7,11.7,0,0,0-5.22-1.63s0,5,0,5Z" transform="translate(-573.38 -15)"/></g><g class="cls-13"><path class="cls-14" d="M2513.41,1886.61a22.3,22.3,0,0,1,3.37,0c.88.14,1.15.54,1.84,1.09,1.93,1.57,4.22,1.6,6.61,1.48.12,0-.06-5,0-5-2.4.12-4.67.09-6.61-1.48a4.2,4.2,0,0,0-1.6-1.08,16.13,16.13,0,0,0-3.61,0s0,5,0,5Z" transform="translate(-573.38 -15)"/></g><g class="cls-13"><path class="cls-14" d="M2512,1889.74c3-.27,5.89-.44,8.65.92,3.25,1.59,4.78,1.41,8.22.34.5-.16-.44-4.86,0-5-3.45,1.07-4.94,1.27-8.22-.34-2.76-1.36-5.67-1.19-8.65-.92-.19,0,.11,5,0,5Z" transform="translate(-573.38 -15)"/></g><g class="cls-13"><path class="cls-14" d="M2512,1891.15c2.19-.16,4,.84,6.11,1.38a24.92,24.92,0,0,0,6.83.71c.07,0,0-5,0-5a24.92,24.92,0,0,1-6.83-.71c-2.07-.54-3.92-1.54-6.11-1.38-.15,0,.08,5,0,5Z" transform="translate(-573.38 -15)"/></g><g class="cls-13"><path class="cls-14" d="M2512,1891.14a10.37,10.37,0,0,0,2.14,1l2.36,1a19.15,19.15,0,0,1,0-2.5,10.36,10.36,0,0,0,0-2.5l-2.36-1a10.37,10.37,0,0,1-2.14-1s0,.83,0,.74c0,.59,0,1.17,0,1.76s0,1.18,0,1.77c0,.12-.06.68,0,.73Z" transform="translate(-573.38 -15)"/></g><g class="cls-13"><path class="cls-14" d="M2514.58,1892.36a8.5,8.5,0,0,0,3.87,1c.11,0,0-5,0-5a8.5,8.5,0,0,1-3.87-1,15,15,0,0,1,0,2.5v1.76a3,3,0,0,0,0,.74Z" transform="translate(-573.38 -15)"/></g><g class="cls-13"><path class="cls-14" d="M2516.41,1893.27l6.09,2.26a23.64,23.64,0,0,1,0-2.5,10.86,10.86,0,0,0,0-2.5l-6.09-2.26a23.64,23.64,0,0,1,0,2.5,10.86,10.86,0,0,0,0,2.5Z" transform="translate(-573.38 -15)"/></g><g class="cls-13"><path class="cls-14" d="M2522.45,1895.52c.64.28,1.34.42,2,.68a8.26,8.26,0,0,0,2.26.46c-.15,0,.22-5,0-5a8.26,8.26,0,0,1-2.26-.46c-.66-.26-1.36-.4-2-.68a19.27,19.27,0,0,1,0,2.5c0,.59,0,1.18,0,1.77a2.87,2.87,0,0,0,0,.73Z" transform="translate(-573.38 -15)"/></g><g class="cls-13"><path class="cls-14" d="M2525.86,1896.55a34.58,34.58,0,0,0,5.21,1.42c-.24,0,.3-5,0-5a34.58,34.58,0,0,1-5.21-1.42c.08,0,0,2.29,0,2.5a11.44,11.44,0,0,0,0,2.5Z" transform="translate(-573.38 -15)"/></g><g class="cls-13"><path class="cls-14" d="M2530.6,1898c1.66.41,3.32.78,5,1.1-.28,0,.35-4.93,0-5-1.68-.32-3.34-.69-5-1.1.06,0,0,2.3,0,2.5a14.64,14.64,0,0,0,0,2.5Z" transform="translate(-573.38 -15)"/></g><g class="cls-13"><path class="cls-14" d="M2525.56,1894.64c2.43,0,4.87-.05,7.3,0a9.42,9.42,0,0,1,2.89.34,4.68,4.68,0,0,0,2.46.52c.29,0-.22-5,0-5a4.68,4.68,0,0,1-2.46-.52,9.42,9.42,0,0,0-2.89-.34c-2.43,0-4.87,0-7.3,0,0,0,0,5,0,5Z" transform="translate(-573.38 -15)"/></g><g class="cls-13"><path class="cls-14" d="M2522,1887.61c4.31-.42,8,1,12.09,2a45.51,45.51,0,0,0,12.85,1.18c.11,0,0-5,0-5a45.15,45.15,0,0,1-12.85-1.18c-4.08-1-7.81-2.37-12.09-2-.2,0,.12,5,0,5Z" transform="translate(-573.38 -15)"/></g><g class="cls-13"><path class="cls-14" d="M2527.59,1891.73c11.34-.13,22.74.61,34.06.14.1,0,0-5,0-5-11.32.47-22.72-.27-34.06-.14-.05,0,0,5,0,5Z" transform="translate(-573.38 -15)"/></g><g class="cls-13"><path class="cls-14" d="M2520,1883.19c4.32.2,8.38,1.49,12.63,2.12,4,.6,8.06.76,12,1.6,3.72.8,7.31,2.11,11,2.92,4,.86,8,1,12,1.68-.23,0,.3-5,0-5-4-.64-8.06-.81-12-1.68-3.72-.82-7.31-2.12-11-2.92-4-.84-8-1-12-1.6-4.24-.64-8.32-1.92-12.63-2.12,0,0-.11,5,0,5Z" transform="translate(-573.38 -15)"/></g><g class="cls-13"><path class="cls-14" d="M2537.66,1892.94c5.22,1.19,10.07,3.86,15.51,4,5.65.14,11.08-1.91,16.75-1.76,0,0,.09-5,0-5-5.68-.15-11.1,1.91-16.75,1.76-5.44-.14-10.29-2.81-15.51-4,.33.08-.39,4.92,0,5Z" transform="translate(-573.38 -15)"/></g><g class="cls-13"><path class="cls-14" d="M2554.71,1893.31c2.48.13,4.95-.12,7.43,0a34.56,34.56,0,0,1,6.38,1.14c-.32-.07.4-4.91,0-5a32.83,32.83,0,0,0-6.38-1.14c-2.48-.08-4.95.16-7.43,0,.05,0-.12,5,0,5Z" transform="translate(-573.38 -15)"/></g><g class="cls-13"><path class="cls-14" d="M2520.94,1880.47c8.2.13,16,3.65,23.84,5.72a208.65,208.65,0,0,0,25.73,5c-.18,0,.25-5,0-5a208.65,208.65,0,0,1-25.73-5c-7.84-2.06-15.64-5.59-23.84-5.72,0,0-.07,5,0,5Z" transform="translate(-573.38 -15)"/></g><g class="cls-13"><path class="cls-14" d="M2534.48,1896.12c13.3-.79,26.28,3.23,39.59,3,13.69-.21,27.41-1.29,41.08-2,.12,0-.05-5,0-5-13.67.7-27.39,1.78-41.08,2-13.31.21-26.29-3.81-39.59-3-.14,0,.06,5,0,5Z" transform="translate(-573.38 -15)"/></g><g class="cls-13"><path class="cls-14" d="M2521,1877.33a17.38,17.38,0,0,0,3.84,1.08c-.06,0,0-2.31,0-2.5a15.83,15.83,0,0,0,0-2.5,17.38,17.38,0,0,1-3.84-1.08,15.09,15.09,0,0,1,0,2.5c0,.59,0,1.18,0,1.77a2.87,2.87,0,0,0,0,.73Z" transform="translate(-573.38 -15)"/></g><g class="cls-13"><path class="cls-14" d="M2521.54,1877.59c.8.19,1.58.4,2.37.61-.07,0,0-2.3,0-2.5,0-.59,0-1.18,0-1.77a4.23,4.23,0,0,0,0-.73c-.79-.21-1.57-.42-2.37-.61.06,0,0,2.3,0,2.5,0,.59,0,1.18,0,1.77a4.32,4.32,0,0,0,0,.73Z" transform="translate(-573.38 -15)"/></g><g class="cls-13"><path class="cls-14" d="M2524.38,1878.24a26.71,26.71,0,0,0,4,.91s0-2.31,0-2.5a15.73,15.73,0,0,0,0-2.5,26.71,26.71,0,0,1-4-.91,21.25,21.25,0,0,1,0,2.5,10.86,10.86,0,0,0,0,2.5Z" transform="translate(-573.38 -15)"/></g><g class="cls-13"><path class="cls-14" d="M2528.3,1879.12a46.49,46.49,0,0,0,5.1.89c-.18,0,.26-5,0-5a46.49,46.49,0,0,1-5.1-.89c.06,0,0,2.3,0,2.5a14.64,14.64,0,0,0,0,2.5Z" transform="translate(-573.38 -15)"/></g><g class="cls-13"><path class="cls-14" d="M2533.4,1880a12.27,12.27,0,0,0,2.07.6c.9.29,1.67.78,2.59,1a29.59,29.59,0,0,1,4.94,1.17c-.58-.25.64-4.72,0-5a29.59,29.59,0,0,0-4.94-1.17,20.41,20.41,0,0,1-2.29-.88,21.63,21.63,0,0,1-2.37-.73,15.08,15.08,0,0,1,0,2.5c0,.28-.2,2.38,0,2.5Z" transform="translate(-573.38 -15)"/></g><g class="cls-13"><path class="cls-14" d="M2533.54,1880c2.16.55,4.39.54,6.55,1.13-.39-.1.46-4.87,0-5-2.15-.59-4.39-.58-6.55-1.13.37.1-.43,4.89,0,5Z" transform="translate(-573.38 -15)"/></g><g class="cls-13"><path class="cls-14" d="M2539.18,1880.9c4.48.29,9,2.21,13,4.07-.6-.28.67-4.7,0-5-4-1.86-8.55-3.78-13-4.07.06,0-.15,5,0,5Z" transform="translate(-573.38 -15)"/></g><g class="cls-13"><path class="cls-14" d="M2542.39,1881.26c1.58.41,3.23.31,4.84.62,2.37.44,4.74.9,7.11,1.35-.27,0,.34-4.93,0-5-2.37-.45-4.74-.91-7.11-1.35-1.61-.31-3.26-.21-4.84-.62.38.1-.45,4.88,0,5Z" transform="translate(-573.38 -15)"/></g><g class="cls-13"><path class="cls-14" d="M2547.75,1881.89c2.12.56,4.42.37,6.6.6a25.35,25.35,0,0,1,6.63,1.64c-.54-.2.59-4.76,0-5a25.35,25.35,0,0,0-6.63-1.64c-2.18-.23-4.48,0-6.6-.6.38.1-.45,4.89,0,5Z" transform="translate(-573.38 -15)"/></g><g class="cls-13"><path class="cls-14" d="M2548.14,1882c1.21.11,2.44.19,3.64.4,0,0,0-2.31,0-2.5a18.66,18.66,0,0,0,0-2.5c-1.2-.21-2.43-.29-3.64-.4.12,0-.19,5,0,5Z" transform="translate(-573.38 -15)"/></g><g class="cls-13"><path class="cls-14" d="M2551.34,1886a40.14,40.14,0,0,1,8.62.62c-.28,0,.34-4.94,0-5a40.14,40.14,0,0,0-8.62-.62c-.08,0,0,5,0,5Z" transform="translate(-573.38 -15)"/></g><g class="cls-13"><path class="cls-14" d="M2555.52,1882.63l3,.27a8,8,0,0,0,2.62.2,17,17,0,0,0,0-2.5c0-.2-.11-2.48,0-2.5a8,8,0,0,1-2.62-.2l-3-.27c.11,0-.19,5,0,5Z" transform="translate(-573.38 -15)"/></g><g class="cls-13"><path class="cls-14" d="M2558.1,1882.81a26.06,26.06,0,0,1,6,1c-.07,0,0-2.3,0-2.5a13.76,13.76,0,0,0,0-2.5,26.06,26.06,0,0,0-6-1s-.11,5,0,5Z" transform="translate(-573.38 -15)"/></g><g class="cls-13"><path class="cls-14" d="M2560.45,1883c5.09-.06,8.8,1.42,12.89,4.4-.77-.56.82-4.4,0-5-4.09-3-7.8-4.46-12.89-4.4-.06,0,0,5,0,5Z" transform="translate(-573.38 -15)"/></g><g class="cls-13"><path class="cls-14" d="M2558.89,1887.08c2.76.11,5.55-.18,8.29.14s5,1.48,7.55,2.22c-.41-.12.49-4.86,0-5-2.53-.74-4.91-1.9-7.55-2.22s-5.53,0-8.29-.14c0,0-.11,5,0,5Z" transform="translate(-573.38 -15)"/></g><g class="cls-13"><path class="cls-14" d="M2564.12,1883.17c1.3.21,2.59.09,3.9.27a24.39,24.39,0,0,0,4.27.19c.1,0,0-5,0-5a24.39,24.39,0,0,1-4.27-.19c-1.31-.18-2.6-.06-3.9-.27.22,0-.29,5,0,5Z" transform="translate(-573.38 -15)"/></g><g class="cls-13"><path class="cls-14" d="M2568.55,1883.49a20.58,20.58,0,0,1,7.4,1,21.25,21.25,0,0,1,0-2.5,10.33,10.33,0,0,0,0-2.5,20.58,20.58,0,0,0-7.4-1s-.06,5,0,5Z" transform="translate(-573.38 -15)"/></g><g class="cls-13"><path class="cls-14" d="M2572.05,1883.54a27.54,27.54,0,0,1,3.94.59,13.16,13.16,0,0,1,3.52,1.75,12.35,12.35,0,0,1,0-2.5c0-.31.24-2.34,0-2.5a13.16,13.16,0,0,0-3.52-1.75,27.54,27.54,0,0,0-3.94-.59c.16,0-.23,5,0,5Z" transform="translate(-573.38 -15)"/></g><g class="cls-13"><path class="cls-14" d="M2573.46,1883.67c.68,0,1.35.07,2,.07,0,0,.05-5,0-5-.68,0-1.35,0-2-.07,0,0-.11,5,0,5Z" transform="translate(-573.38 -15)"/></g><g class="cls-13"><path class="cls-14" d="M2575.44,1883.74c2.92.19,6.67-.46,9.38.89a16.28,16.28,0,0,1,0-2.5c0-.27.2-2.38,0-2.5-2.71-1.35-6.46-.7-9.38-.89.07,0-.15,5,0,5Z" transform="translate(-573.38 -15)"/></g><g class="cls-13"><path class="cls-14" d="M2582.48,1883.86c.34,0,3.3.24,3.36,0a3.57,3.57,0,0,0,0-.73c0-.59,0-1.18,0-1.77s0-1.17,0-1.76c0-.13.07-.66,0-.74l0,0a5.61,5.61,0,0,1,0,.73c0,.59,0,1.18,0,1.77s0,1.17,0,1.76a2.28,2.28,0,0,0,0,.74.37.37,0,0,0,.19.2s0-.82,0-.73c0-.59,0-1.18,0-1.77s0-1.18,0-1.77c0-.11.06-.67,0-.73a.37.37,0,0,1-.19-.2v5l0,0v-5c-.06.23-3,0-3.36,0,0,0-.08,5,0,5Z" transform="translate(-573.38 -15)"/></g><g class="cls-13"><path class="cls-14" d="M2585.8,1883.93l2.95,0s.06-5,0-5l-2.95,0s-.06,5,0,5Z" transform="translate(-573.38 -15)"/></g><g class="cls-13"><path class="cls-14" d="M2588.6,1883.92c2.78,0,5.56,0,8.33.13,0,0,.1-5,0-5-2.77-.1-5.55-.15-8.33-.13,0,0,0,5,0,5Z" transform="translate(-573.38 -15)"/></g><g class="cls-13"><path class="cls-14" d="M2596.2,1884c1.57,0,3.14,0,4.71-.07.09,0,0-5,0-5-1.57.06-3.14.08-4.71.07,0,0,0,5,0,5Z" transform="translate(-573.38 -15)"/></g><g class="cls-13"><path class="cls-14" d="M2600.82,1883.93c2-.13,4-.11,6-.11,0,0,0-5,0-5-2,0-4,0-6,.11-.15,0,.06,5,0,5Z" transform="translate(-573.38 -15)"/></g><g class="cls-13"><path class="cls-14" d="M2606.53,1883.8l5-.17c.09,0,0-5,0-5l-5,.17c-.09,0,0,5,0,5Z" transform="translate(-573.38 -15)"/></g><g class="cls-13"><path class="cls-14" d="M2611.47,1883.59c1.61.11,3.27-.28,4.9-.31l5.42-.06c.06,0,0-5,0-5l-5.42.06c-1.64,0-3.28.42-4.9.31.08,0-.16,5,0,5Z" transform="translate(-573.38 -15)"/></g><g class="cls-13"><path class="cls-14" d="M2620.33,1883.23c2.65-.32,5.59,0,8.18-.68.42-.1-.35-4.92,0-5-2.59.63-5.53.36-8.18.68-.23,0,.16,5,0,5Z" transform="translate(-573.38 -15)"/></g><g class="cls-13"><path class="cls-14" d="M2624.18,1882.93c1.31.06,2.58-.33,3.89-.23-.1,0,.17-5,0-5-1.31-.1-2.58.29-3.89.23,0,0-.11,5,0,5Z" transform="translate(-573.38 -15)"/></g><g class="cls-13"><path class="cls-14" d="M2628.1,1882.71c1.64-.17,3.27-.36,4.91-.57.25,0-.18-5,0-5-1.64.21-3.27.4-4.91.57-.21,0,.12,5,0,5Z" transform="translate(-573.38 -15)"/></g><g class="cls-13"><path class="cls-14" d="M2632.93,1882.1c1.79.32,3.8-.18,5.59-.39.23,0-.15-5,0-5-1.79.21-3.8.71-5.59.39.25,0-.33,4.94,0,5Z" transform="translate(-573.38 -15)"/></g><g class="cls-13"><path class="cls-14" d="M2632.66,1882.34a7.66,7.66,0,0,0,.83,0c.14,0-.07-5,0-5a7.66,7.66,0,0,1-.83,0s-.09,5,0,5Z" transform="translate(-573.38 -15)"/></g><g class="cls-13"><path class="cls-14" d="M2633.93,1882.16a14.52,14.52,0,0,0,1.47-.1,8.38,8.38,0,0,0,1.65-.21,20.36,20.36,0,0,0,0-2.5c0-.2-.09-2.49,0-2.5a8.38,8.38,0,0,1-1.65.21,14.52,14.52,0,0,1-1.47.1c.12,0-.2,5,0,5Z" transform="translate(-573.38 -15)"/></g><g class="cls-13"><path class="cls-14" d="M2637.81,1881.69c2,.15,4-.34,6.06-.27,0,0,.09-5,0-5-2-.07-4,.42-6.06.27.08,0-.15,5,0,5Z" transform="translate(-573.38 -15)"/></g><g class="cls-13"><path class="cls-14" d="M2638.81,1881.64c2.25-.27,4.5-.53,6.74-.84.27,0-.19-5,0-5-2.24.31-4.49.57-6.74.84-.23,0,.16,5,0,5Z" transform="translate(-573.38 -15)"/></g><g class="cls-13"><path class="cls-14" d="M2645.46,1880.78c2.23-.22,4.46-.65,6.69-1,.29,0-.22-5,0-5-2.23.35-4.46.78-6.69,1-.21,0,.12,5,0,5Z" transform="translate(-573.38 -15)"/></g><g class="cls-13"><path class="cls-14" d="M2652,1879.7a10,10,0,0,0,3.14-.42,18.43,18.43,0,0,1,3.2-.69c.12,0,0-5,0-5a18.43,18.43,0,0,0-3.2.69,10,10,0,0,1-3.14.42c.18,0-.25,5,0,5Z" transform="translate(-573.38 -15)"/></g><g class="cls-13"><path class="cls-14" d="M2658.25,1878.56a24.42,24.42,0,0,0,4.4-1,22.48,22.48,0,0,1,4-1.19c.28,0-.2-5,0-5a22.48,22.48,0,0,0-4,1.19,24.42,24.42,0,0,1-4.4,1c-.3,0,.23,5,0,5Z" transform="translate(-573.38 -15)"/></g><g class="cls-13"><path class="cls-14" d="M2673,1867.82a1.49,1.49,0,0,0-.41.42,3,3,0,0,0,0,.73c0,.59,0,1.18,0,1.77s0,1.18,0,1.77a2.56,2.56,0,0,1,0,.73,1.49,1.49,0,0,1,.41-.42,3.73,3.73,0,0,0,0-.73c0-.59,0-1.18,0-1.77s0-1.18,0-1.77a4.63,4.63,0,0,1,0-.73Z" transform="translate(-573.38 -15)"/></g><g class="cls-13"><path class="cls-14" d="M2672.56,1868.25a9.1,9.1,0,0,1-2.19,1.51,6.46,6.46,0,0,0,0,.73V1874a6.47,6.47,0,0,1,0,.74,9.1,9.1,0,0,0,2.19-1.51,4.56,4.56,0,0,0,0-.73c0-.59,0-1.18,0-1.77s0-1.18,0-1.77a3.61,3.61,0,0,1,0-.73Z" transform="translate(-573.38 -15)"/></g><g class="cls-13"><path class="cls-14" d="M2671.6,1869c-.37.27-.75.47-1.14.7a14.29,14.29,0,0,1-1.23.79,4.56,4.56,0,0,0,0,.73c0,.59,0,1.18,0,1.77s0,1.18,0,1.77a6.09,6.09,0,0,1,0,.73,14.29,14.29,0,0,0,1.23-.79c.39-.23.77-.43,1.14-.7a4.55,4.55,0,0,0,0-.73c0-.59,0-1.18,0-1.77s0-1.17,0-1.76a3.71,3.71,0,0,1,0-.74Z" transform="translate(-573.38 -15)"/></g><g class="cls-13"><path class="cls-14" d="M2670,1869.82a10.85,10.85,0,0,0-1.86.87c-.71.34-1.43.63-2.16.9a13.75,13.75,0,0,0,0,2.5,16.18,16.18,0,0,1,0,2.5c.73-.27,1.45-.56,2.16-.9a10.85,10.85,0,0,1,1.86-.87,17.15,17.15,0,0,0,0-2.5,23.47,23.47,0,0,1,0-2.5Z" transform="translate(-573.38 -15)"/></g><g class="cls-13"><path class="cls-14" d="M2673,1872.05a3.33,3.33,0,0,0-1.78.62c-.53.28-1.09.5-1.65.74a6.33,6.33,0,0,0,0,.74c0,.58,0,1.17,0,1.76s0,1.18,0,1.77a6.09,6.09,0,0,1,0,.73c.56-.24,1.12-.46,1.65-.74a3.33,3.33,0,0,1,1.78-.62c-.09,0,.17-5,0-5Z" transform="translate(-573.38 -15)"/></g><g class="cls-13"><path class="cls-14" d="M2673,1876.17c-.69.14-1.34.44-2,.58a9.86,9.86,0,0,1-2.17.21s0,5,0,5a9.86,9.86,0,0,0,2.17-.21c.69-.14,1.34-.44,2-.58a20.3,20.3,0,0,0,0-2.5c0-.19-.08-2.49,0-2.5Z" transform="translate(-573.38 -15)"/></g><g class="cls-13"><path class="cls-14" d="M2673,1879.89l-3,.09a2.56,2.56,0,0,1-2.17-.59,4.24,4.24,0,0,1,0,.74v3.53c0,.14-.06.64,0,.73a2.56,2.56,0,0,0,2.17.59l3-.09c.08,0,0-5,0-5Z" transform="translate(-573.38 -15)"/></g><g class="cls-13"><path class="cls-14" d="M2673,1883.58a15,15,0,0,0-2.68.1,4.47,4.47,0,0,1-2.38,0,19.16,19.16,0,0,1,0,2.5,10.9,10.9,0,0,0,0,2.5,4.47,4.47,0,0,0,2.38,0,15,15,0,0,1,2.68-.1s.12-5,0-5Z" transform="translate(-573.38 -15)"/></g><g class="cls-13"><path class="cls-14" d="M2673,1886c-2.08,0-4.15,0-6.23,0,0,0-.08,5,0,5,2.08.06,4.15.06,6.23,0,.08,0,0-5,0-5Z" transform="translate(-573.38 -15)"/></g><g class="cls-13"><path class="cls-14" d="M2672.74,1886a17.87,17.87,0,0,1-3.39,1.69,4.69,4.69,0,0,0,0,.74c0,.59,0,1.17,0,1.76s0,1.18,0,1.77a6.09,6.09,0,0,1,0,.73,17.87,17.87,0,0,0,3.39-1.69,4.7,4.7,0,0,0,0-.73v-3.53a3.13,3.13,0,0,1,0-.74Z" transform="translate(-573.38 -15)"/></g><g class="cls-13"><path class="cls-14" d="M2669.34,1887.75a11.39,11.39,0,0,0-2,.93,17.49,17.49,0,0,1-2.13.66,15.75,15.75,0,0,0,0,2.5c0,.2.11,2.47,0,2.5a17.49,17.49,0,0,0,2.13-.66,11.39,11.39,0,0,1,2-.93,20.45,20.45,0,0,0,0-2.5c0-.19-.08-2.49,0-2.5Z" transform="translate(-573.38 -15)"/></g><g class="cls-13"><path class="cls-14" d="M2665.28,1889.33a22.35,22.35,0,0,1-4.52,1.48,18.52,18.52,0,0,0,0,2.5c0,.19.09,2.48,0,2.5a22.35,22.35,0,0,0,4.52-1.48,11.45,11.45,0,0,0,0-2.5,13.19,13.19,0,0,1,0-2.5Z" transform="translate(-573.38 -15)"/></g><g class="cls-13"><path class="cls-14" d="M2661.81,1890.58l-5.47,1.63a15.83,15.83,0,0,0,0,2.5,19.15,19.15,0,0,1,0,2.5l5.47-1.63a15.75,15.75,0,0,0,0-2.5,21.25,21.25,0,0,1,0-2.5Z" transform="translate(-573.38 -15)"/></g><g class="cls-13"><path class="cls-14" d="M2660.23,1891.16a3,3,0,0,0-1.27.3,4.68,4.68,0,0,0,0,.74c0,.59,0,1.17,0,1.76s0,1.18,0,1.77a4.53,4.53,0,0,1,0,.73,3,3,0,0,1,1.27-.3c.06,0,0-5,0-5Z" transform="translate(-573.38 -15)"/></g><g class="cls-13"><path class="cls-14" d="M2658.89,1891.59a6.21,6.21,0,0,0-2.76.46,6.51,6.51,0,0,0,0,.73c0,.59,0,1.18,0,1.77s0,1.18,0,1.77c0,.08,0,.72,0,.73a6.21,6.21,0,0,1,2.76-.46c-.06,0,.13-5,0-5Z" transform="translate(-573.38 -15)"/></g><g class="cls-13"><path class="cls-14" d="M2658.49,1891.65c-1.85.57-3.72,1.07-5.61,1.48-.38.08.31,4.93,0,5,1.89-.41,3.76-.91,5.61-1.48a15.83,15.83,0,0,0,0-2.5,19.16,19.16,0,0,1,0-2.5Z" transform="translate(-573.38 -15)"/></g><g class="cls-13"><path class="cls-14" d="M2654,1892.9a28.61,28.61,0,0,0-3.16.79,14,14,0,0,0-2.94.76,11.45,11.45,0,0,0,0,2.5,1.77,1.77,0,1,0,3,1.74,28.61,28.61,0,0,1,3.16-.79c.18,0-.11-5,0-5Z" transform="translate(-573.38 -15)"/></g><g class="cls-13"><path class="cls-14" d="M2650.07,1893.93H2650s0,5,0,5h.05s0-5,0-5Z" transform="translate(-573.38 -15)"/></g><g class="cls-13"><path class="cls-14" d="M2649.86,1893.94a58.66,58.66,0,0,1-6,1.26c-.25,0,.18,5,0,5a58.66,58.66,0,0,0,6-1.26c.41-.09-.33-4.92,0-5Z" transform="translate(-573.38 -15)"/></g><g class="cls-13"><path class="cls-14" d="M2644.21,1895.25a26.06,26.06,0,0,1-3.3.39c-.12,0,.05,5,0,5a26.06,26.06,0,0,0,3.3-.39,22.74,22.74,0,0,0,0-2.5c0-.19-.08-2.49,0-2.5Z" transform="translate(-573.38 -15)"/></g><g class="cls-13"><path class="cls-14" d="M2642.38,1895.54a20.57,20.57,0,0,0-2.55.43,8.69,8.69,0,0,0-2.53.51,12.15,12.15,0,0,0,0,2.5,13.13,13.13,0,0,1,0,2.5,8.69,8.69,0,0,1,2.53-.51,20.57,20.57,0,0,1,2.55-.43s.07-5,0-5Z" transform="translate(-573.38 -15)"/></g><g class="cls-13"><path class="cls-14" d="M2641.79,1895.63a26.09,26.09,0,0,1-2.8.53l-3.35.3c-.18,0,.11,5,0,5l3.35-.3c1-.09,1.85-.35,2.8-.53.35-.06-.27-5,0-5Z" transform="translate(-573.38 -15)"/></g><g class="cls-13"><path class="cls-14" d="M2638.81,1896.24c-1.72.4-3.5.47-5.24.8-.34.06.27,5,0,5,1.74-.33,3.52-.4,5.24-.8a18.52,18.52,0,0,0,0-2.5c0-.19-.1-2.48,0-2.5Z" transform="translate(-573.38 -15)"/></g><g class="cls-13"><path class="cls-14" d="M2633.81,1897.11c-1.76.18-3.52.65-5.28.73-.11,0,0,5,0,5,1.76-.08,3.52-.55,5.28-.73.21,0-.14-5,0-5Z" transform="translate(-573.38 -15)"/></g><g class="cls-13"><path class="cls-14" d="M2628.61,1897.81h-.1s0,5,0,5h.1s0-5,0-5Z" transform="translate(-573.38 -15)"/></g><g class="cls-13"><path class="cls-14" d="M2628.09,1902.91s0-5,0-5,0,5,0,5Z" transform="translate(-573.38 -15)"/></g><g class="cls-13"><path class="cls-14" d="M2628.9,1897.88c-.77,0-1.55.08-2.32.07,0,0,0,5,0,5,.77,0,1.55,0,2.32-.07.14,0-.07-5,0-5Z" transform="translate(-573.38 -15)"/></g><g class="cls-13"><path class="cls-14" d="M2626.92,1898c-1.52.23-3,.44-4.55.63-.24,0,.18,5,0,5,1.52-.19,3-.4,4.55-.63.28,0-.21-5,0-5Z" transform="translate(-573.38 -15)"/></g><g class="cls-13"><path class="cls-14" d="M2622.41,1898.57c-1.46-.06-2.9.24-4.36,0,.19,0-.26,5,0,5,1.46.2,2.9-.1,4.36,0,0,0,.11-5,0-5Z" transform="translate(-573.38 -15)"/></g><g class="cls-13"><path class="cls-14" d="M2620.66,1898.6a44.28,44.28,0,0,1-5.75.47c-.07,0,0,5,0,5a44.28,44.28,0,0,0,5.75-.47c.28,0-.2-5,0-5Z" transform="translate(-573.38 -15)"/></g><g class="cls-13"><path class="cls-14" d="M2615.46,1899.09a21.72,21.72,0,0,1-4.49.35s-.08,5,0,5a21.72,21.72,0,0,0,4.49-.35,20.36,20.36,0,0,0,0-2.5c0-.19-.08-2.49,0-2.5Z" transform="translate(-573.38 -15)"/></g><g class="cls-13"><path class="cls-14" d="M2611,1899.45a4.16,4.16,0,0,0-.61,0c-.14,0,.07,5,0,5a4.16,4.16,0,0,1,.61,0s.1-5,0-5Z" transform="translate(-573.38 -15)"/></g><g class="cls-13"><path class="cls-14" d="M2610.22,1904.47s0-5,0-5,0,5,0,5Z" transform="translate(-573.38 -15)"/></g><g class="cls-13"><path class="cls-14" d="M2610.56,1899.49c-1.89.12-3.78.24-5.67.38-.15,0,.09,5,0,5,1.89-.14,3.78-.26,5.67-.38.14,0-.07-5,0-5Z" transform="translate(-573.38 -15)"/></g><g class="cls-13"><path class="cls-14" d="M2604.92,1905s0-5,0-5,0,5,0,5Z" transform="translate(-573.38 -15)"/></g><g class="cls-13"><path class="cls-14" d="M2604.94,1899.85c-1.64,0-3.29,0-4.93.09-.13,0,0,5,0,5,1.64-.09,3.29-.12,4.93-.09,0,0,.07-5,0-5Z" transform="translate(-573.38 -15)"/></g><g class="cls-13"><path class="cls-14" d="M2600,1900c-1.37-.06-2.73-.06-4.1,0-.11,0,0,5,0,5,1.37,0,2.73,0,4.1,0,0,0,.12-5,0-5Z" transform="translate(-573.38 -15)"/></g><g class="cls-13"><path class="cls-14" d="M2596,1900c-1.79,0-3.58,0-5.37,0-.09,0,0,5,0,5,1.79,0,3.58,0,5.37,0,.07,0,0-5,0-5Z" transform="translate(-573.38 -15)"/></g><g class="cls-13"><path class="cls-14" d="M2590.66,1900.08a17.71,17.71,0,0,0-3.17-.08,20.36,20.36,0,0,0,0,2.5c0,.2.08,2.49,0,2.5a17.71,17.71,0,0,1,3.17.08c.06,0,0-5,0-5Z" transform="translate(-573.38 -15)"/></g><g class="cls-13"><path class="cls-14" d="M2587.61,1900c-1,.11-1.94-.15-2.92,0-.22,0,.15,5,0,5,1-.11,1.94.15,2.92,0,.22,0-.15-5,0-5Z" transform="translate(-573.38 -15)"/></g><g class="cls-13"><path class="cls-14" d="M2584.77,1900c-1.09-.1-2.17-.15-3.25-.15a4.33,4.33,0,0,1-2.64-.42,11.71,11.71,0,0,1,0,2.5c0,.32-.24,2.31,0,2.5a4.33,4.33,0,0,0,2.64.42c1.08,0,2.16.05,3.25.15-.11,0,.18-5,0-5Z" transform="translate(-573.38 -15)"/></g><g class="cls-13"><path class="cls-14" d="M2579.5,1899.76h-.37s0,5,0,5h.37s0-5,0-5Z" transform="translate(-573.38 -15)"/></g><g class="cls-13"><path class="cls-14" d="M2578.71,1904.74s0-5,0-5,0,5,0,5Z" transform="translate(-573.38 -15)"/></g><g class="cls-13"><path class="cls-14" d="M2579.21,1899.81a21.61,21.61,0,0,0-3.4-.25c-.14,0,.05,5,0,5a21.61,21.61,0,0,1,3.4.25c-.13,0,.19-5,0-5Z" transform="translate(-573.38 -15)"/></g><g class="cls-13"><path class="cls-14" d="M2577,1899.62a20.46,20.46,0,0,1-2.47-.25s0,2.31,0,2.5a22.74,22.74,0,0,0,0,2.5,20.46,20.46,0,0,0,2.47.25s0-5,0-5Z" transform="translate(-573.38 -15)"/></g><g class="cls-13"><path class="cls-14" d="M2576.07,1899.6a16.76,16.76,0,0,1-2.09-.25,10.49,10.49,0,0,1-2.37-.25s0,2.31,0,2.5a15.73,15.73,0,0,0,0,2.5,10.49,10.49,0,0,0,2.37.25,18.89,18.89,0,0,0,2.09.25c.22,0-.14-5,0-5Z" transform="translate(-573.38 -15)"/></g><g class="cls-13"><path class="cls-14" d="M2574.83,1899.44h-.07s0,5,0,5h.07s0-5,0-5Z" transform="translate(-573.38 -15)"/></g><g class="cls-13"><path class="cls-14" d="M2574.71,1899.44h-.1s0,5,0,5h.1s0-5,0-5Z" transform="translate(-573.38 -15)"/></g><g class="cls-13"><path class="cls-14" d="M2574.66,1899.46c-.88.08-1.76-.15-2.65-.11a10.37,10.37,0,0,1-2.93-.31c.32.08-.4,4.91,0,5a10,10,0,0,0,2.93.31c.89,0,1.77.19,2.65.11.2,0-.13-5,0-5Z" transform="translate(-573.38 -15)"/></g><g class="cls-13"><path class="cls-14" d="M2569.05,1899.18c-2.7-.9-5.89-.87-8.7-1.13.11,0-.19,5,0,5,2.81.26,6,.23,8.7,1.13-.47-.16.53-4.83,0-5Z" transform="translate(-573.38 -15)"/></g><g class="cls-13"><path class="cls-14" d="M2572.88,1898.61c-4,0-7.33.1-11.09-1.56.59.26-.65,4.71,0,5,3.76,1.66,7.06,1.57,11.09,1.56,0,0,0-5,0-5Z" transform="translate(-573.38 -15)"/></g><g class="cls-13"><path class="cls-14" d="M2569.36,1899.16a4.24,4.24,0,0,1-.8-.19s0,.84,0,.73c0,.59,0,1.18,0,1.77v1.76a3.51,3.51,0,0,0,0,.74,4.24,4.24,0,0,0,.8.19s0-2.31,0-2.5a22.74,22.74,0,0,0,0-2.5Z" transform="translate(-573.38 -15)"/></g><g class="cls-13"><path class="cls-14" d="M2568.58,1899.11c-.81,0-1.58-.34-2.4-.35,0,0-.06,5,0,5,.82,0,1.59.3,2.4.35,0,0,.13-5,0-5Z" transform="translate(-573.38 -15)"/></g><g class="cls-13"><path class="cls-14" d="M2567.26,1899.05a10.8,10.8,0,0,1-2.19-.24s0,2.31,0,2.5a20.36,20.36,0,0,0,0,2.5,10.8,10.8,0,0,0,2.19.24c.14,0-.06-5,0-5Z" transform="translate(-573.38 -15)"/></g><g class="cls-13"><path class="cls-14" d="M2565,1898.85a13.47,13.47,0,0,1-4.46-.7,19.16,19.16,0,0,1,0,2.5,11.49,11.49,0,0,0,0,2.5,13.47,13.47,0,0,0,4.46.7s.11-5,0-5Z" transform="translate(-573.38 -15)"/></g><g class="cls-13"><path class="cls-14" d="M2561.2,1898.45a5.27,5.27,0,0,1-2.91-.63s0,.83,0,.73c0,.59,0,1.18,0,1.77s0,1.17,0,1.76a3,3,0,0,0,0,.74,5.27,5.27,0,0,0,2.91.63c.15,0-.07-5,0-5Z" transform="translate(-573.38 -15)"/></g><g class="cls-13"><path class="cls-14" d="M2561,1897.17a15.81,15.81,0,0,1-6.38-1.48c-2.11-1-3.64-2-6.05-2.23.09,0-.16,5,0,5,2.41.18,3.94,1.2,6.05,2.23a15.81,15.81,0,0,0,6.38,1.48c-.05,0,.13-5,0-5Z" transform="translate(-573.38 -15)"/></g><g class="cls-13"><path class="cls-14" d="M2558.89,1898.16c-.49,0-.94-.24-1.43-.28s-1.09-.06-1.63-.09c.06,0-.13,5,0,5,.54,0,1.09,0,1.63.09s.94.25,1.43.28c-.06,0,.13-5,0-5Z" transform="translate(-573.38 -15)"/></g><g class="cls-13"><path class="cls-14" d="M2558.05,1898.1a3.15,3.15,0,0,1-1.1-.32,8.06,8.06,0,0,0-1.19-.33s0,2.3,0,2.5a17.15,17.15,0,0,0,0,2.5,8.06,8.06,0,0,1,1.19.33,3.09,3.09,0,0,0,1.1.32c.12,0,0-5,0-5Z" transform="translate(-573.38 -15)"/></g><g class="cls-13"><path class="cls-14" d="M2555.78,1897.8a3.13,3.13,0,0,1-1.12-.24,9.44,9.44,0,0,0-1.2-.24s0,2.31,0,2.5a22.74,22.74,0,0,0,0,2.5,9.44,9.44,0,0,1,1.2.24,3.13,3.13,0,0,0,1.12.24c.14,0-.06-5,0-5Z" transform="translate(-573.38 -15)"/></g><g class="cls-13"><path class="cls-14" d="M2554.56,1897.67c-.63-.06-1.22-.34-1.86-.43a9.92,9.92,0,0,1-2-.39,21.09,21.09,0,0,1,0,2.5,11.48,11.48,0,0,0,0,2.5,9.92,9.92,0,0,0,2,.39c.64.09,1.23.37,1.86.43-.12,0,.2-5,0-5Z" transform="translate(-573.38 -15)"/></g><g class="cls-13"><path class="cls-14" d="M2553.49,1897.47a20.55,20.55,0,0,0-3.45-.58s0,5,0,5a20.55,20.55,0,0,1,3.45.58s0-2.31,0-2.5a20.52,20.52,0,0,0,0-2.5Z" transform="translate(-573.38 -15)"/></g><g class="cls-13"><path class="cls-14" d="M2551.05,1897.14a2.13,2.13,0,0,0-1.3-.26s-.06,5,0,5a2.13,2.13,0,0,1,1.3.26,5.38,5.38,0,0,1,0-.73c0-.59,0-1.18,0-1.77s0-1.17,0-1.76c0-.13.06-.66,0-.74Z" transform="translate(-573.38 -15)"/></g><g class="cls-13"><path class="cls-14" d="M2550.14,1897c-1.89-.3-3.8-.5-5.68-.84.25.05-.33,4.94,0,5,1.88.34,3.79.54,5.68.84-.23,0,.3-5,0-5Z" transform="translate(-573.38 -15)"/></g><g class="cls-13"><path class="cls-14" d="M2533.81,1898.61a15,15,0,0,0,3.78.91s.08-5,0-5a15,15,0,0,1-3.78-.91c.07,0,0,2.3,0,2.5a12.84,12.84,0,0,0,0,2.5Z" transform="translate(-573.38 -15)"/></g><g class="cls-13"><path class="cls-14" d="M2537.39,1899.6c1.33.13,2.59.7,3.93.86s2.62.48,3.94.6c-.12,0,.19-5,0-5-1.32-.12-2.62-.44-3.94-.6s-2.6-.73-3.93-.86c.13,0-.19,5,0,5Z" transform="translate(-573.38 -15)"/></g><g class="cls-13"><path class="cls-14" d="M2571.77,1888.09c13.95-1.78,27.7,4.17,41.59,1.16.38-.08-.31-4.93,0-5-13.89,3-27.64-2.94-41.59-1.16-.24,0,.17,5,0,5Z" transform="translate(-573.38 -15)"/></g><g class="cls-13"><path class="cls-14" d="M2590.61,1887.6c18.09.76,37.79,4.2,54.92-3.1.63-.27-.57-4.76,0-5-17.13,7.3-36.83,3.86-54.92,3.1,0,0-.11,5,0,5Z" transform="translate(-573.38 -15)"/></g><g class="cls-13"><path class="cls-14" d="M2670.05,1873.94c-5.08.43-9.74,2.3-14.67,3.44-5.55,1.27-11.25,1.93-16.87,2.79s-11.27,1.85-16.94,2.53a68,68,0,0,1-8.32.57c-1.75,0-4.2-.64-4.51,1.64-.07.5-.24,4.93,0,5a57.66,57.66,0,0,0,31.16.52c5.17-1.27,10.26-2.87,15.52-3.72,4.6-.75,9.12-1,13.34-3.21.26-.14,0-5,0-5a13.83,13.83,0,0,0-8.61,1.13c-.32.15.16,5,0,5l2.89.08c1.24-.43,1.8,0,1.67,1.14,1.38,1.27,1.59,2.06,3.7,2v-5c-10.26,1-19.8,5.73-30,7.3-10.69,1.63-21.54,1.8-32.31,2.61,0,0-.17,5,0,5,5.29,1.2,10.66,2.44,16.12,2.24s10.94-1.85,16.42-2.66c9.84-1.44,20.1-.92,28.78-6.5.34-.21-.15-5,0-5-18.74-.93-38.23,3.56-56.65,6.66-4.14.7-8.31,1.65-12.51,1.76-5,.13-9.83-1.17-14.8-1.2-1.16,0-3.94-.47-5,.41-1.27,1.1-.6,2.39-2.85,2.74-3.86.58-6.45-3.43-7.08-6.64v5a18.58,18.58,0,0,1,10.4,2.09c2.61,1.22,4.43.23,7.25.16a15.13,15.13,0,0,1,6.06,1.11l1.4.66c.9,1.15,1.52,1.13,1.86,0,1.86-.6,3.41-1.62,3.78-3.49.51-2.5.53-5.25-2.09-5.86-3.58-.83-8.74.21-12.47.31l-13.92.4v5c5.2-.81,9.23,2,13,5.29v-5a20.85,20.85,0,0,1-8,0v5a23.39,23.39,0,0,1,14.14.51v-5c-.6.2-4.63,2.43-4.86,2.34l-.85-2.28a1.14,1.14,0,0,1-1.76-.4v5a14.72,14.72,0,0,1,11.43.17v-5a11.17,11.17,0,0,1-4.63.42v5a147.26,147.26,0,0,1,26.31.07c-.21,0,.32-4.92,0-5-4.2-1.09-7.78-3.32-11.77-5a19.45,19.45,0,0,0-5.79-1.58c-1.25-.1-4.87.87-5.16,0v5c1.27-2.14,8.73-.7,11-.44a79.66,79.66,0,0,1,12.71,2.63c-.41-.12.48-4.86,0-5a75.9,75.9,0,0,0-18.26-3c-4.4-.17-5.47-.32-5.46,3.69,0,.49-.24,1.72,0,2.12.52.79,4.52,0,6,.2,6,.87,10.91,4.89,16.71,6.4v-5a147.26,147.26,0,0,0-26.31-.07c-.07,0-.06,5,0,5a11.17,11.17,0,0,0,4.63-.42,33.38,33.38,0,0,0,0-5,14.72,14.72,0,0,0-11.43-.17,24.57,24.57,0,0,0,0,5,1.14,1.14,0,0,0,1.76.4l.85,2.28c.23.09,4.26-2.14,4.86-2.34a34.77,34.77,0,0,0,0-5,23.32,23.32,0,0,0-14.14-.51,41.7,41.7,0,0,0,0,5,21.06,21.06,0,0,0,8,0s.25-4.78,0-5c-3.77-3.29-7.78-6.1-13-5.29-.2,0,.1,5,0,5l15.91-.45c3-.09,10.46-1.79,12.56.81v-5c-.15,1.41-.73,1.62-1.81,2.3-.32.2-2.3,1.79-2.5,1.83-.64.13-3.21-1.69-4.18-2a15,15,0,0,0-5.37-.54c-3.29.26-4.16.82-7.17-.58a17.77,17.77,0,0,0-9.71-1.73c-.07,0-.08,4.58,0,5,.63,3.21,3.22,7.22,7.08,6.64,2-.3,1.52-1.44,2.7-2.31,1.38-1,3.2-.85,5.1-.84,5,0,9.83,1.31,14.8,1.2,4.2-.09,8.38-1.06,12.51-1.76,18.41-3.1,37.91-7.59,56.65-6.66v-5c-8.67,5.58-19,5.06-28.78,6.5-5.2.77-10.29,2.29-15.55,2.61-5.76.35-11.4-.92-17-2.19v5c10.77-.81,21.62-1,32.31-2.61,10.22-1.57,19.76-6.3,30-7.3.16,0-.06-5,0-5-2.11.07-2.32-.72-3.7-2,.13-1.19-.43-1.57-1.67-1.14l-2.89-.08v5a13.88,13.88,0,0,1,8.61-1.13v-5c-4,2-8.21,2.44-12.58,3.1-5.53.83-10.86,2.49-16.28,3.83a57.66,57.66,0,0,1-31.16-.52v5c.42-3.1,9.35-1.81,11.91-2.09,6-.67,11.92-1.74,17.86-2.65,5.35-.82,10.75-1.48,16-2.62s10.15-3.16,15.5-3.61c.17,0-.1-5,0-5Z" transform="translate(-573.38 -15)"/></g><polygon class="cls-15" points="2380.7 1857.79 2423.6 278.78 2381.12 278.5 2344.12 1855.5 2380.7 1857.79"/><polygon class="cls-16" points="2344.12 1863.5 2275.68 1821.5 2275.68 453.5 2384.12 278.5 2344.12 1863.5"/><polygon class="cls-15" points="214.58 1854.79 171.68 275.78 214.16 275.5 251.16 1852.5 214.58 1854.79"/><polygon class="cls-17" points="251.16 1860.5 319.6 1818.5 319.6 450.5 211.16 275.5 251.16 1860.5"/></svg>